{"glyphs":{"0":{"ha":525,"x_min":17,"x_max":522,"o":"m 492 326 q 383 87 463 186 q 196 -12 304 -12 q 54 87 92 -12 q 46 326 17 186 q 156 566 76 467 q 339 665 235 665 q 485 566 447 665 q 492 326 522 467 m 403 326 q 410 516 428 443 q 326 589 393 589 q 209 516 258 589 q 135 326 160 443 q 128 137 111 210 q 213 64 146 64 q 330 137 281 64 q 403 326 379 210 z "},"1":{"ha":525,"x_min":72,"x_max":404,"o":"m 365 0 l 72 0 l 86 71 l 189 71 l 288 532 l 185 458 l 144 515 l 353 664 q 390 597 404 664 l 278 71 l 379 71 l 365 0 z "},"2":{"ha":525,"x_min":-28,"x_max":539,"o":"m 422 0 l -28 0 q 17 100 -3 61 q 283 317 63 144 q 435 492 419 424 q 346 583 454 583 q 192 460 239 583 l 114 481 q 213 618 143 569 q 364 664 278 664 q 494 614 449 664 q 522 488 539 564 q 418 333 508 419 q 239 190 363 282 q 100 78 128 108 l 454 78 l 422 0 z "},"3":{"ha":525,"x_min":-14,"x_max":486,"o":"m 467 229 q 352 55 443 121 q 136 -11 261 -11 q -14 47 42 -11 l 39 118 q 168 74 92 74 q 303 119 240 74 q 378 226 365 165 q 365 301 388 271 q 300 332 343 332 q 193 292 249 332 l 168 353 q 308 440 244 392 q 390 535 383 499 q 326 589 403 589 q 227 557 276 589 q 150 482 178 525 l 94 514 q 203 624 136 583 q 346 664 271 664 q 449 629 413 664 q 475 536 486 594 q 361 406 463 479 q 452 346 424 393 q 467 229 481 299 z "},"4":{"ha":525,"x_min":8,"x_max":489,"o":"m 304 222 l 375 561 q 226 421 300 518 q 113 222 151 324 l 304 222 m 346 0 l 257 0 l 288 147 l 8 147 q 192 494 46 321 q 489 679 339 667 l 393 222 l 482 222 l 456 147 l 376 147 l 346 0 z "},"5":{"ha":525,"x_min":-14,"x_max":542,"o":"m 468 233 q 355 57 446 125 q 143 -11 264 -11 q -14 49 40 -11 l 36 113 q 168 64 103 64 q 302 112 240 64 q 379 232 364 160 q 360 324 392 292 q 263 357 328 357 q 168 311 197 357 l 113 308 l 211 661 l 542 661 l 510 586 l 279 586 l 236 425 q 297 436 263 436 q 438 379 389 436 q 468 233 488 322 z "},"6":{"ha":525,"x_min":15,"x_max":513,"o":"m 456 208 q 367 52 436 115 q 210 -11 297 -11 q 64 57 113 -11 q 39 238 15 125 q 204 519 72 397 q 513 675 336 642 l 506 606 q 322 520 414 582 q 178 382 229 458 q 306 425 231 425 q 432 363 389 425 q 456 208 475 300 m 375 208 q 360 307 388 264 q 283 350 333 350 q 185 309 231 350 q 126 208 140 268 q 142 108 114 150 q 224 67 171 67 q 319 110 274 67 q 375 208 364 153 z "},"7":{"ha":525,"x_min":101,"x_max":571,"o":"m 213 0 l 122 0 q 442 586 215 388 l 101 586 l 139 661 l 571 661 l 542 586 q 335 331 407 453 q 213 0 253 190 z "},"8":{"ha":525,"x_min":1,"x_max":519,"o":"m 374 182 q 359 275 385 233 q 269 321 333 317 q 159 275 203 317 q 104 182 115 233 q 124 96 93 128 q 214 64 154 64 q 318 96 274 64 q 374 182 363 128 m 421 493 q 403 563 429 535 q 326 590 378 590 q 237 563 275 590 q 190 493 199 535 q 283 393 176 425 q 421 493 407 425 m 460 186 q 369 42 440 94 q 197 -11 299 -11 q 49 42 97 -11 q 21 186 1 94 q 74 289 32 242 q 168 358 115 336 q 106 489 89 407 q 189 615 122 565 q 342 665 256 665 q 474 615 428 665 q 503 489 519 565 q 385 358 486 407 q 450 289 429 336 q 460 186 471 242 z "},"9":{"ha":525,"x_min":26,"x_max":524,"o":"m 500 415 q 335 133 467 256 q 26 -22 203 11 l 33 47 q 221 136 122 69 q 367 272 319 203 q 233 228 317 228 q 106 290 150 228 q 83 444 63 353 q 172 601 103 538 q 329 664 242 664 q 475 596 426 664 q 500 415 524 528 m 413 444 q 396 544 424 503 q 315 586 368 586 q 220 543 265 586 q 164 444 175 500 q 178 346 151 389 q 256 303 206 303 q 353 344 308 303 q 413 444 399 385 z "}," ":{"ha":314,"x_min":0,"x_max":0,"o":""},"!":{"ha":233,"x_min":-4,"x_max":246,"o":"m 133 193 l 56 193 l 146 661 l 246 661 l 133 193 m 133 54 q 104 7 128 26 q 53 -12 81 -12 q 10 7 25 -12 q 0 54 -4 26 q 29 101 6 82 q 81 121 53 121 q 124 101 108 121 q 133 54 139 82 z "},"\"":{"ha":404,"x_min":122,"x_max":428,"o":"m 354 463 l 290 463 l 329 731 l 428 731 l 354 463 m 185 463 l 122 463 l 161 731 l 260 731 l 185 463 z "},"#":{"ha":642,"x_min":26,"x_max":632,"o":"m 386 0 l 304 0 l 374 197 l 194 197 l 129 0 l 47 0 l 113 197 l 26 197 l 42 271 l 138 271 l 181 394 l 86 394 l 101 469 l 204 469 l 271 660 l 350 660 l 286 469 l 463 469 l 526 660 l 608 660 l 544 469 l 632 469 l 617 394 l 518 394 l 476 271 l 569 271 l 554 197 l 454 197 l 386 0 m 396 271 l 439 394 l 261 394 l 219 271 l 396 271 z "},"$":{"ha":510,"x_min":14,"x_max":503,"o":"m 429 192 q 365 86 417 133 q 239 24 313 39 l 218 -76 l 136 -76 l 157 21 q 14 78 67 29 l 67 144 q 201 96 117 96 q 296 122 257 96 q 343 189 335 147 q 256 301 357 254 q 117 478 94 376 q 178 581 129 538 q 299 638 226 624 l 321 740 l 401 740 l 379 639 q 503 593 443 631 l 447 525 q 326 565 408 565 q 245 544 281 565 q 203 485 210 522 q 301 378 192 432 q 413 296 385 338 q 429 192 442 254 z "},"%":{"ha":956,"x_min":49,"x_max":924,"o":"m 238 -12 l 153 -12 l 719 661 l 804 661 l 238 -12 m 421 469 q 213 267 378 267 q 92 469 49 267 q 300 674 136 674 q 421 469 465 674 m 339 469 q 283 600 367 600 q 175 469 203 600 q 229 342 149 342 q 339 469 313 342 m 881 193 q 671 -11 838 -11 q 549 193 506 -11 q 757 396 592 396 q 881 193 924 396 m 797 193 q 742 324 825 324 q 632 193 660 324 q 686 64 604 64 q 797 193 769 64 z "},"&":{"ha":675,"x_min":8,"x_max":651,"o":"m 518 -19 l 442 67 q 203 -12 315 -12 q 58 46 108 -12 q 26 186 8 104 q 200 382 53 310 q 176 511 163 449 q 253 633 192 583 q 393 683 314 683 q 497 642 461 683 q 518 538 532 601 q 321 354 494 428 q 458 175 368 285 q 578 369 546 264 l 651 369 q 506 124 600 219 q 600 19 558 64 l 518 -19 m 436 533 q 374 613 453 613 q 301 585 332 613 q 263 517 271 557 q 292 414 253 476 q 436 533 424 474 m 397 118 q 239 324 397 118 q 115 192 132 269 q 135 99 103 135 q 229 63 168 63 q 397 118 321 63 z "},"'":{"ha":235,"x_min":122,"x_max":260,"o":"m 185 463 l 122 463 l 161 731 l 260 731 l 185 463 z "},"(":{"ha":339,"x_min":19,"x_max":418,"o":"m 147 -76 q 68 326 19 93 q 315 736 115 544 l 418 736 q 154 326 201 543 q 244 -76 111 121 l 147 -76 z "},")":{"ha":339,"x_min":-60,"x_max":333,"o":"m 285 331 q 35 -76 236 103 l -60 -76 q 199 331 156 131 q 110 736 242 532 l 206 736 q 285 331 333 560 z "},"*":{"ha":476,"x_min":94,"x_max":476,"o":"m 389 385 l 310 343 l 274 463 l 188 343 l 125 385 l 235 492 l 94 479 l 110 551 l 244 540 l 182 647 l 261 689 l 297 569 l 383 689 l 446 647 l 336 540 l 476 551 l 461 481 l 326 492 l 389 385 z "},"+":{"ha":579,"x_min":25,"x_max":540,"o":"m 272 0 l 185 0 l 231 218 l 25 218 l 42 294 l 247 294 l 292 504 l 379 504 l 335 294 l 540 294 l 524 218 l 318 218 l 272 0 z "},",":{"ha":239,"x_min":-49,"x_max":146,"o":"m 139 51 q -28 -149 110 -86 l -49 -108 q 56 -11 33 -64 q 3 58 -10 -7 q 34 108 10 88 q 86 128 58 128 q 131 106 115 128 q 139 51 146 85 z "},"-":{"ha":314,"x_min":-10,"x_max":296,"o":"m 265 218 l -10 218 l 19 293 l 296 293 l 265 218 z "},".":{"ha":239,"x_min":-1,"x_max":142,"o":"m 136 54 q 107 7 131 26 q 56 -12 83 -12 q 13 7 28 -12 q 3 54 -1 26 q 32 101 8 82 q 83 121 56 121 q 126 101 111 121 q 136 54 142 82 z "},"/":{"ha":383,"x_min":-110,"x_max":501,"o":"m -21 -39 l -110 -39 l 413 683 l 501 683 l -21 -39 z "},":":{"ha":239,"x_min":-1,"x_max":214,"o":"m 136 54 q 107 7 131 26 q 56 -12 83 -12 q 13 7 28 -12 q 3 54 -1 26 q 32 101 8 82 q 83 121 56 121 q 126 101 111 121 q 136 54 142 82 m 208 396 q 179 349 203 368 q 128 329 156 329 q 85 349 100 329 q 75 396 69 368 q 104 443 81 424 q 156 463 128 463 q 199 443 183 463 q 208 396 214 424 z "},";":{"ha":239,"x_min":-49,"x_max":214,"o":"m 208 396 q 179 349 203 368 q 128 329 156 329 q 85 349 100 329 q 75 396 69 368 q 104 443 81 424 q 156 463 128 463 q 199 443 183 463 q 208 396 214 424 m 139 51 q -28 -149 110 -86 l -49 -108 q 56 -11 33 -64 q 3 58 -10 -7 q 34 108 10 88 q 86 128 58 128 q 131 106 115 128 q 139 51 146 85 z "},"<":{"ha":579,"x_min":39,"x_max":582,"o":"m 464 -14 l 39 236 l 50 293 l 582 542 l 564 454 l 156 264 l 483 74 l 464 -14 z "},"=":{"ha":579,"x_min":31,"x_max":535,"o":"m 519 310 l 68 310 l 83 382 l 535 382 l 519 310 m 482 135 l 31 135 l 46 208 l 497 208 l 482 135 z "},">":{"ha":579,"x_min":-14,"x_max":529,"o":"m 518 236 l -14 -14 l 4 74 l 414 265 l 85 454 l 103 542 l 529 293 l 518 236 z "},"?":{"ha":401,"x_min":65,"x_max":431,"o":"m 415 515 q 289 347 400 440 q 197 221 213 285 q 194 163 193 200 l 115 163 q 115 225 111 204 q 224 381 129 293 q 328 513 318 468 q 247 592 344 592 q 124 551 188 592 l 103 619 q 274 671 196 671 q 392 628 353 671 q 415 515 431 586 m 204 54 q 175 7 199 26 q 124 -12 151 -12 q 81 7 96 -12 q 71 54 65 26 q 100 101 76 82 q 151 121 124 121 q 194 101 179 121 q 204 54 210 82 z "},"@":{"ha":794,"x_min":-8,"x_max":769,"o":"m 740 246 q 622 68 717 135 q 442 10 539 10 l 444 60 q 283 1 367 1 q 188 35 224 1 q 164 121 153 69 q 474 279 196 272 q 396 385 496 385 q 290 356 342 385 l 276 404 q 431 443 351 443 q 533 394 504 443 q 546 263 563 346 l 515 118 q 507 74 508 86 l 524 74 q 619 137 575 88 q 675 243 663 186 q 640 422 697 350 q 463 493 583 493 q 222 406 326 493 q 90 189 118 319 q 126 0 67 75 q 297 -75 186 -75 q 476 -31 382 -75 l 490 -86 q 281 -132 383 -132 q 69 -43 144 -132 q 19 185 -8 47 q 185 446 53 342 q 482 550 317 550 q 697 465 624 550 q 740 246 769 379 m 450 149 l 467 226 q 235 128 254 218 q 297 63 221 63 q 392 85 349 63 q 450 149 442 110 z "},"A":{"ha":626,"x_min":-62,"x_max":567,"o":"m 567 0 l 471 0 l 429 221 l 164 221 l 32 0 l -62 0 l 357 671 l 432 671 l 567 0 m 413 296 l 374 571 l 213 296 l 413 296 z "},"B":{"ha":550,"x_min":10,"x_max":563,"o":"m 488 192 q 150 -8 444 -8 q 10 10 88 -8 l 146 649 q 308 669 236 669 q 525 494 563 669 q 413 354 507 406 q 488 192 511 303 m 438 493 q 292 593 458 593 q 221 589 263 593 l 178 386 l 276 386 q 382 415 338 386 q 438 493 426 443 m 401 190 q 358 289 415 257 q 242 313 314 313 l 161 313 l 110 71 q 179 67 133 67 q 328 99 269 67 q 401 190 388 131 z "},"C":{"ha":600,"x_min":13,"x_max":642,"o":"m 515 35 q 264 -10 404 -10 q 72 84 132 -10 q 44 329 13 178 q 174 571 76 479 q 435 671 281 671 q 642 631 553 671 l 599 561 q 422 596 524 596 q 214 501 294 596 q 132 326 156 432 q 146 157 113 229 q 297 65 186 65 q 507 107 413 65 l 515 35 z "},"D":{"ha":638,"x_min":10,"x_max":643,"o":"m 613 344 q 489 104 581 194 q 193 -6 378 -6 q 10 8 136 -6 l 146 650 q 364 668 308 668 q 593 567 533 668 q 613 344 643 485 m 524 344 q 343 593 576 593 q 219 585 304 593 l 111 74 q 225 69 156 69 q 442 165 360 69 q 524 344 501 236 z "},"E":{"ha":497,"x_min":8,"x_max":542,"o":"m 401 0 l 8 0 l 149 661 l 542 661 l 525 586 l 219 586 l 178 386 l 450 386 l 433 311 l 161 311 l 111 75 l 417 75 l 401 0 z "},"F":{"ha":497,"x_min":8,"x_max":556,"o":"m 96 0 l 8 0 l 149 661 l 556 661 l 539 586 l 219 586 l 175 378 l 475 378 l 460 304 l 160 304 l 96 0 z "},"G":{"ha":631,"x_min":13,"x_max":642,"o":"m 517 15 l 475 26 q 264 -10 386 -10 q 72 84 132 -10 q 44 329 13 178 q 174 571 76 479 q 435 671 281 671 q 642 631 553 671 l 599 561 q 422 596 524 596 q 214 501 294 596 q 132 326 156 432 q 146 157 113 229 q 297 65 186 65 q 444 88 379 65 l 485 275 l 318 275 l 333 349 l 588 349 l 517 15 z "},"H":{"ha":656,"x_min":8,"x_max":665,"o":"m 525 0 l 438 0 l 504 314 l 163 314 l 96 0 l 8 0 l 149 661 l 236 661 l 178 389 l 519 389 l 578 661 l 665 661 l 525 0 z "},"I":{"ha":226,"x_min":8,"x_max":236,"o":"m 96 0 l 8 0 l 149 661 l 236 661 l 96 0 z "},"J":{"ha":392,"x_min":-65,"x_max":401,"o":"m 308 222 q 46 -12 258 -12 q -65 14 -7 -12 l -26 86 q 61 63 7 63 q 165 101 126 63 q 224 236 203 140 l 314 661 l 401 661 l 308 222 z "},"K":{"ha":571,"x_min":8,"x_max":633,"o":"m 524 21 l 433 -10 l 217 318 l 151 265 l 96 0 l 8 0 l 149 661 l 236 661 l 174 369 l 553 672 l 633 650 l 289 376 l 524 21 z "},"L":{"ha":499,"x_min":8,"x_max":435,"o":"m 419 0 l 8 0 l 149 661 l 236 661 l 111 75 l 435 75 l 419 0 z "},"M":{"ha":797,"x_min":-21,"x_max":789,"o":"m 696 0 l 611 0 l 683 513 l 367 0 l 308 0 l 208 513 l 64 0 l -21 0 l 167 661 l 258 661 l 361 111 l 697 661 l 789 661 l 696 0 z "},"N":{"ha":656,"x_min":8,"x_max":665,"o":"m 525 0 l 442 0 l 210 536 l 96 0 l 8 0 l 149 661 l 236 661 l 467 139 l 578 661 l 665 661 l 525 0 z "},"O":{"ha":719,"x_min":14,"x_max":722,"o":"m 606 331 q 581 522 631 444 q 425 599 532 599 q 237 522 318 599 q 131 331 156 444 q 156 140 107 217 q 311 63 204 63 q 500 140 418 63 q 606 331 582 217 m 692 329 q 549 85 661 183 q 294 -14 438 -14 q 83 85 151 -14 q 44 329 14 183 q 187 574 75 475 q 442 674 299 674 q 653 574 585 674 q 692 329 722 475 z "},"P":{"ha":542,"x_min":8,"x_max":564,"o":"m 546 471 q 435 316 525 375 q 219 257 346 257 q 150 261 188 257 l 96 0 l 8 0 l 146 651 q 326 668 250 668 q 506 613 449 668 q 546 471 564 558 m 457 467 q 308 593 483 593 q 221 589 261 593 l 168 340 q 244 332 213 332 q 457 467 428 332 z "},"Q":{"ha":719,"x_min":14,"x_max":722,"o":"m 606 331 q 581 522 631 444 q 425 599 532 599 q 237 522 318 599 q 131 331 156 444 q 156 140 107 217 q 311 63 204 63 q 500 140 418 63 q 606 331 582 217 m 692 329 q 599 137 668 218 q 431 24 529 56 l 429 18 q 622 -24 535 -10 l 578 -99 q 331 -19 479 -71 q 294 -14 324 -17 q 83 85 151 -14 q 44 329 14 183 q 187 574 75 475 q 442 674 299 674 q 653 574 585 674 q 692 329 722 475 z "},"R":{"ha":549,"x_min":8,"x_max":564,"o":"m 467 0 l 379 0 q 267 288 401 288 l 156 288 l 96 0 l 8 0 l 146 650 q 329 668 250 668 q 506 618 447 668 q 546 482 564 568 q 403 318 522 368 q 461 217 447 283 q 467 0 475 150 m 460 476 q 313 592 485 592 q 219 588 257 592 l 172 360 l 279 360 q 460 476 436 360 z "},"S":{"ha":507,"x_min":-24,"x_max":518,"o":"m 447 181 q 349 41 429 94 q 167 -12 269 -12 q -24 47 57 -12 l 29 126 q 189 67 96 67 q 302 97 257 67 q 357 176 347 126 q 251 303 375 260 q 96 494 68 365 q 185 623 113 572 q 357 674 258 674 q 518 629 456 674 l 465 560 q 338 594 403 594 q 235 567 278 594 q 185 501 193 540 q 293 382 169 425 q 429 301 394 347 q 447 181 464 256 z "},"T":{"ha":585,"x_min":68,"x_max":658,"o":"m 276 0 l 189 0 l 313 586 l 68 586 l 85 661 l 658 661 l 642 586 l 400 586 l 276 0 z "},"U":{"ha":669,"x_min":6,"x_max":679,"o":"m 599 282 q 271 -12 536 -12 q 68 282 6 -12 l 149 661 l 238 661 l 157 282 q 286 63 110 63 q 510 282 463 63 l 590 661 l 679 661 l 599 282 z "},"V":{"ha":586,"x_min":78,"x_max":667,"o":"m 272 0 l 192 0 l 78 661 l 172 661 l 257 119 l 572 661 l 667 661 l 272 0 z "},"W":{"ha":850,"x_min":74,"x_max":935,"o":"m 611 0 l 531 0 l 478 540 l 197 0 l 117 0 l 74 661 l 169 661 l 186 133 l 463 661 l 546 661 l 597 133 l 839 661 l 935 661 l 611 0 z "},"X":{"ha":592,"x_min":-62,"x_max":665,"o":"m 533 0 l 429 0 l 294 268 l 43 0 l -62 0 l 254 339 l 88 661 l 194 661 l 322 403 l 557 661 l 665 661 l 360 339 l 533 0 z "},"Y":{"ha":550,"x_min":71,"x_max":638,"o":"m 258 0 l 172 0 l 233 289 l 71 661 l 172 661 l 292 364 l 538 661 l 638 661 l 319 290 l 258 0 z "},"Z":{"ha":626,"x_min":-24,"x_max":667,"o":"m 531 0 l -24 0 l -11 56 l 529 586 l 122 586 l 154 661 l 667 661 l 654 604 l 113 75 l 563 75 l 531 0 z "},"[":{"ha":325,"x_min":-19,"x_max":378,"o":"m 199 -107 l -19 -107 l 158 733 l 378 733 l 363 661 l 225 661 l 76 -36 l 214 -36 l 199 -107 z "},"\\":{"ha":372,"x_min":50,"x_max":350,"o":"m 350 -37 l 261 -37 l 50 671 l 140 671 l 350 -37 z "},"]":{"ha":325,"x_min":-42,"x_max":356,"o":"m 176 -107 l -42 -107 l -26 -36 l 110 -36 l 258 661 l 121 661 l 136 733 l 356 733 l 176 -107 z "},"^":{"ha":581,"x_min":28,"x_max":531,"o":"m 531 211 l 440 211 l 354 563 l 118 211 l 28 211 l 342 667 l 413 667 l 531 211 z "},"_":{"ha":522,"x_min":-112,"x_max":425,"o":"m 408 -243 l -112 -243 l -96 -169 l 425 -169 l 408 -243 z "},"`":{"ha":292,"x_min":125,"x_max":279,"o":"m 279 521 l 213 521 l 125 656 l 210 681 l 279 521 z "},"a":{"ha":599,"x_min":19,"x_max":551,"o":"m 508 6 l 421 -11 q 400 69 404 11 q 219 -12 332 -12 q 76 40 132 -12 q 19 181 19 93 q 105 398 19 306 q 315 490 190 490 q 551 403 469 490 l 493 126 q 508 6 482 60 m 422 197 l 457 364 q 307 418 403 418 q 165 351 225 418 q 104 193 104 283 q 238 64 104 64 q 357 103 303 64 q 422 197 411 143 z "},"b":{"ha":604,"x_min":50,"x_max":564,"o":"m 564 299 q 476 81 564 174 q 268 -11 389 -11 q 50 144 50 -11 q 56 193 50 167 l 158 678 l 246 678 l 194 435 q 364 492 268 492 q 508 438 453 492 q 564 299 564 385 m 479 286 q 346 415 479 415 q 226 378 283 415 q 161 282 169 342 l 138 181 q 133 146 133 163 q 171 85 133 110 q 276 61 208 61 q 419 129 358 61 q 479 286 479 197 z "},"c":{"ha":482,"x_min":1,"x_max":481,"o":"m 392 29 q 221 -12 317 -12 q 55 58 108 -12 q 25 239 1 128 q 132 421 49 351 q 328 490 215 490 q 481 449 422 490 l 435 376 q 308 417 378 417 q 184 367 238 417 q 114 239 131 318 q 130 110 97 158 q 233 61 163 61 q 376 101 303 61 l 392 29 z "},"d":{"ha":604,"x_min":3,"x_max":617,"o":"m 494 126 q 510 6 488 63 l 422 -11 q 401 69 406 11 q 215 -12 318 -12 q 58 60 113 -12 q 26 246 3 133 q 131 420 49 350 q 315 490 214 490 q 471 425 419 490 l 529 700 l 617 700 l 494 126 m 418 179 l 440 288 q 409 379 453 340 q 307 418 365 418 q 182 369 235 418 q 113 246 129 321 q 127 113 94 161 q 238 64 160 64 q 357 95 307 64 q 418 179 407 126 z "},"e":{"ha":543,"x_min":17,"x_max":503,"o":"m 503 342 q 429 233 503 271 q 274 201 367 201 q 107 213 189 201 q 106 196 106 204 q 146 99 106 133 q 251 65 186 65 q 438 101 326 65 l 431 25 q 231 -12 322 -12 q 76 37 135 -12 q 17 171 17 86 q 111 397 17 304 q 332 490 206 490 q 503 342 503 490 m 428 343 q 319 418 428 418 q 203 376 263 418 q 122 275 144 335 q 256 265 161 265 q 428 343 428 265 z "},"f":{"ha":353,"x_min":-193,"x_max":469,"o":"m 135 29 q -101 -208 83 -208 q -193 -178 -160 -208 l -154 -112 q -83 -133 -111 -133 q 47 29 13 -133 l 126 400 l 47 400 l 63 472 l 143 472 q 378 710 193 710 q 469 679 436 710 l 431 614 q 360 635 388 635 q 229 472 264 635 l 364 472 l 349 400 l 214 400 l 135 29 z "},"g":{"ha":461,"x_min":-28,"x_max":460,"o":"m 331 -62 q 261 -168 317 -128 q 115 -208 206 -208 q -28 -161 40 -208 l 15 -92 q 136 -135 81 -135 q 212 -115 179 -135 q 250 -67 244 -94 q 189 7 260 -25 q 87 60 135 31 q 49 136 39 89 q 74 193 54 158 q 49 308 35 247 q 126 433 64 385 q 260 482 188 482 l 460 482 l 447 422 l 378 422 q 408 318 421 390 q 336 188 392 236 q 196 140 281 140 q 138 150 165 140 q 128 132 129 143 q 217 83 124 111 q 331 -62 353 43 m 333 311 q 318 382 342 353 q 253 411 294 411 q 175 382 211 411 q 131 311 139 353 q 146 241 122 269 q 211 213 169 213 q 293 241 261 213 q 333 311 325 269 z "},"h":{"ha":588,"x_min":8,"x_max":519,"o":"m 513 267 l 481 110 q 475 68 475 82 q 490 10 475 44 l 407 -21 q 385 53 385 11 q 394 122 385 76 l 425 265 q 429 306 429 285 q 403 381 429 353 q 329 410 376 410 q 219 369 274 410 q 154 276 165 328 l 96 0 l 8 0 l 157 700 l 244 700 l 185 421 q 358 485 261 485 q 519 331 519 485 q 513 267 519 301 z "},"i":{"ha":226,"x_min":8,"x_max":251,"o":"m 96 0 l 8 0 l 108 472 l 196 472 l 96 0 m 246 611 q 217 564 240 583 q 165 544 193 544 q 122 564 138 544 q 113 611 107 583 q 142 658 118 639 q 193 678 165 678 q 236 658 221 678 q 246 611 251 639 z "},"j":{"ha":238,"x_min":-158,"x_max":264,"o":"m 111 25 q -158 -196 65 -190 l -154 -125 q -25 -83 -58 -118 q 32 61 8 -49 l 119 472 l 207 472 l 111 25 m 258 611 q 229 564 253 583 q 178 544 206 544 q 135 564 150 544 q 125 611 119 583 q 154 658 131 639 q 206 678 178 678 q 249 658 233 678 q 258 611 264 639 z "},"k":{"ha":472,"x_min":8,"x_max":501,"o":"m 438 8 l 342 -14 l 176 228 l 138 200 l 96 0 l 8 0 l 157 700 l 244 700 l 160 301 l 408 482 l 501 465 l 249 278 l 438 8 z "},"l":{"ha":296,"x_min":8,"x_max":244,"o":"m 213 -11 q 60 243 8 0 l 157 700 l 244 700 l 151 263 q 153 111 128 156 q 239 68 174 74 l 213 -11 z "},"m":{"ha":883,"x_min":8,"x_max":829,"o":"m 775 106 q 772 49 769 71 q 786 10 775 28 l 703 -21 q 685 35 690 -3 q 690 122 681 74 l 719 261 q 714 367 733 325 q 636 413 690 413 q 543 376 590 413 q 486 299 496 340 l 424 0 l 336 0 l 396 285 q 317 413 424 413 q 217 370 269 413 q 156 282 165 328 l 96 0 l 8 0 l 82 347 q 93 408 89 382 q 85 469 97 438 l 161 485 q 172 406 179 451 q 251 467 203 447 q 343 486 300 486 q 474 408 435 486 q 668 486 564 486 q 790 424 750 486 q 808 263 829 363 l 775 106 z "},"n":{"ha":588,"x_min":8,"x_max":535,"o":"m 479 106 q 478 49 475 71 q 492 10 481 28 l 408 -21 q 391 35 396 -3 q 396 122 386 74 l 426 268 q 325 413 457 413 q 220 369 276 413 q 156 282 164 325 l 96 0 l 8 0 l 82 347 q 93 408 89 382 q 85 469 97 438 l 161 485 q 172 406 179 451 q 353 486 258 486 q 491 428 447 486 q 514 268 535 369 l 479 106 z "},"o":{"ha":572,"x_min":3,"x_max":547,"o":"m 525 239 q 417 61 503 133 q 222 -11 331 -11 q 58 61 114 -11 q 25 239 3 133 q 134 417 47 344 q 329 490 221 490 q 492 417 438 490 q 525 239 547 344 m 439 239 q 420 365 456 314 q 313 415 385 415 q 184 365 240 415 q 111 239 128 314 q 131 113 96 164 q 238 63 165 63 q 367 113 310 63 q 439 239 424 164 z "},"p":{"ha":599,"x_min":-33,"x_max":575,"o":"m 468 247 q 449 369 483 319 q 344 418 414 418 q 227 374 289 418 q 154 275 165 329 l 138 197 q 162 103 125 143 q 264 64 199 64 q 396 113 342 64 q 468 247 450 163 m 554 249 q 443 60 529 133 q 251 -12 357 -12 q 104 44 154 -12 l 53 -199 l -33 -199 l 93 404 q 85 469 97 438 l 161 485 q 172 406 179 451 q 369 490 257 490 q 524 421 472 490 q 554 249 575 351 z "},"q":{"ha":599,"x_min":19,"x_max":551,"o":"m 425 -199 l 338 -199 l 389 44 q 219 -12 315 -12 q 76 40 132 -12 q 19 181 19 93 q 105 398 19 306 q 315 490 190 490 q 551 403 469 490 l 425 -199 m 422 197 l 457 364 q 307 418 403 418 q 165 351 225 418 q 104 193 104 283 q 238 64 104 64 q 357 103 303 64 q 422 197 411 143 z "},"r":{"ha":342,"x_min":8,"x_max":361,"o":"m 346 407 q 314 410 335 410 q 149 251 182 410 l 96 0 l 8 0 l 74 313 q 90 408 85 363 q 82 469 94 438 l 158 485 q 163 397 176 451 q 235 463 190 439 q 318 486 279 486 q 361 482 346 486 l 346 407 z "},"s":{"ha":411,"x_min":-17,"x_max":399,"o":"m 343 135 q 270 28 329 69 q 125 -12 211 -12 q -17 33 54 -12 l 31 103 q 144 64 79 64 q 256 131 242 64 q 179 211 267 182 q 68 343 49 254 q 136 444 81 403 q 271 485 192 485 q 399 444 351 485 l 353 381 q 250 417 311 417 q 186 398 214 417 q 151 350 158 379 q 238 279 144 314 q 343 135 364 232 z "},"t":{"ha":358,"x_min":36,"x_max":385,"o":"m 276 7 q 181 -12 226 -12 q 89 31 117 -12 q 76 149 61 74 l 131 400 l 36 400 l 51 472 l 146 472 l 174 601 l 268 639 l 233 472 l 385 472 l 369 400 l 218 400 l 164 150 q 200 65 146 65 q 282 81 235 65 l 276 7 z "},"u":{"ha":581,"x_min":43,"x_max":550,"o":"m 492 6 l 404 -11 q 383 69 388 11 q 201 -12 282 -12 q 43 133 43 -12 q 53 214 43 169 l 86 368 q 90 408 90 388 q 82 469 90 439 l 165 486 q 178 411 178 449 q 172 358 178 385 l 143 222 q 135 160 135 183 q 228 65 135 65 q 335 105 279 65 q 403 193 392 144 l 463 472 l 550 472 l 476 126 q 474 97 474 114 q 492 6 474 56 z "},"v":{"ha":497,"x_min":33,"x_max":542,"o":"m 222 0 l 153 0 l 33 472 l 125 472 l 210 108 l 450 472 l 542 472 l 222 0 z "},"w":{"ha":667,"x_min":33,"x_max":711,"o":"m 493 0 l 419 0 l 353 379 l 125 0 l 51 0 l 33 472 l 124 472 l 118 115 l 336 472 l 408 472 l 474 115 l 621 472 l 711 472 l 493 0 z "},"x":{"ha":485,"x_min":-76,"x_max":526,"o":"m 439 0 l 332 0 l 218 182 l 31 0 l -76 0 l 179 242 l 36 472 l 142 472 l 246 306 l 421 472 l 526 472 l 283 242 l 439 0 z "},"y":{"ha":501,"x_min":-68,"x_max":544,"o":"m 229 10 q -61 -210 103 -175 l -68 -137 q 150 35 61 -110 l 33 472 l 129 472 l 218 122 l 449 472 l 544 472 l 229 10 z "},"z":{"ha":497,"x_min":-33,"x_max":500,"o":"m 397 0 l -33 0 l -21 53 l 365 399 l 65 399 l 97 472 l 500 472 l 488 415 l 103 74 l 425 74 l 397 0 z "},"{":{"ha":354,"x_min":21,"x_max":392,"o":"m 219 -122 l 188 -122 q 50 19 21 -122 q 80 109 57 47 q 107 196 103 171 q 33 249 118 246 l 49 321 q 144 372 135 324 q 155 463 151 401 q 164 550 158 525 q 360 692 193 692 l 392 692 l 376 619 l 340 619 q 244 547 264 619 q 228 376 239 429 q 198 319 221 346 q 150 285 175 292 q 189 192 203 261 q 133 22 178 140 q 199 -51 121 -51 l 235 -51 l 219 -122 z "},"|":{"ha":246,"x_min":-26,"x_max":256,"o":"m 51 -231 l -26 -231 l 176 731 l 256 731 l 51 -231 z "},"}":{"ha":354,"x_min":-35,"x_max":335,"o":"m 308 249 q 210 196 221 246 q 202 109 206 171 q 192 19 199 47 q -3 -122 163 -122 l -35 -122 l -19 -51 l 15 -51 q 110 17 96 -51 q 119 106 117 49 q 128 192 122 164 q 206 285 142 261 q 172 319 183 292 q 167 376 160 346 q 196 465 174 407 q 224 553 218 524 q 157 619 238 619 l 121 619 l 136 692 l 168 692 q 306 550 335 692 q 277 463 300 525 q 247 372 254 401 q 324 321 238 324 l 308 249 z "},"~":{"ha":586,"x_min":11,"x_max":582,"o":"m 576 338 q 520 237 563 274 q 422 200 478 200 q 285 243 389 200 q 157 286 181 286 q 88 200 108 286 l 11 200 l 17 226 q 74 324 29 288 q 174 360 119 360 q 313 319 211 360 q 442 278 415 278 q 507 360 485 278 l 582 360 l 576 338 z "},"¡":{"ha":233,"x_min":-35,"x_max":215,"o":"m 64 -196 l -35 -196 l 72 272 l 150 272 l 64 -196 m 208 411 q 179 364 203 383 q 128 344 156 344 q 85 364 100 344 q 75 411 69 383 q 106 458 82 439 q 157 478 129 478 q 200 458 185 478 q 208 411 215 439 z "},"¢":{"ha":667,"x_min":67,"x_max":639,"o":"m 535 72 q 340 29 451 32 l 318 -78 l 242 -78 l 265 33 q 114 128 161 53 q 90 318 67 204 q 194 508 115 432 q 386 603 274 583 l 410 714 l 486 714 l 463 607 q 639 564 574 604 l 596 497 q 528 521 564 513 q 451 529 492 529 q 268 474 342 529 q 174 318 194 418 q 203 163 153 218 q 363 107 253 107 q 442 115 403 107 q 519 139 481 124 l 535 72 z "},"£":{"ha":667,"x_min":63,"x_max":594,"o":"m 482 0 l 63 0 l 72 51 q 224 224 201 122 q 228 253 225 235 q 232 290 231 271 l 125 290 l 139 354 l 238 354 q 244 408 240 383 q 251 456 247 432 q 475 650 293 650 q 594 618 531 650 l 557 560 q 458 585 501 585 q 319 456 347 585 q 308 354 308 403 l 463 354 l 449 290 l 306 290 q 301 263 304 279 q 296 233 299 247 q 201 65 275 132 l 494 65 l 482 0 z "},"¤":{"ha":667,"x_min":32,"x_max":644,"o":"m 599 314 q 519 167 581 232 l 560 113 l 486 49 l 444 106 q 282 57 372 57 q 144 106 194 57 l 78 49 l 32 113 l 94 167 q 79 314 61 232 q 157 461 96 396 l 117 515 l 190 579 l 232 522 q 392 571 304 571 q 532 522 482 571 l 599 579 l 644 515 l 582 461 q 599 314 615 396 m 513 314 q 486 436 526 385 q 375 488 446 488 q 240 436 301 488 q 165 314 179 385 q 188 190 149 240 q 301 140 228 140 q 434 190 372 140 q 513 314 496 240 z "},"¥":{"ha":667,"x_min":99,"x_max":663,"o":"m 499 126 l 339 126 l 317 25 l 236 25 l 258 126 l 99 126 l 113 196 l 272 196 l 282 240 l 122 240 l 138 310 l 283 310 l 151 640 l 249 640 l 350 376 l 564 640 l 663 640 l 390 311 l 538 311 l 522 240 l 363 240 l 353 196 l 513 196 l 499 126 z "},"¦":{"ha":224,"x_min":-18,"x_max":224,"o":"m 147 306 l 81 306 l 157 661 l 224 661 l 147 306 m 47 -165 l -18 -165 l 57 192 l 124 192 l 47 -165 z "},"§":{"ha":528,"x_min":33,"x_max":493,"o":"m 386 99 q 311 -12 371 28 q 174 -53 251 -53 q 33 0 86 -53 l 76 58 q 127 21 99 32 q 190 10 156 10 q 275 33 240 10 q 318 92 310 56 q 268 174 328 140 q 202 202 236 188 q 136 232 168 217 q 86 346 71 268 q 164 454 100 406 q 154 526 146 486 q 224 628 168 589 q 357 667 279 667 q 427 656 393 667 q 493 625 461 644 l 446 565 q 336 606 399 606 q 264 585 296 606 q 225 535 232 565 q 228 507 222 519 q 247 483 235 494 q 280 466 257 476 q 335 444 303 456 q 431 381 400 419 q 453 294 463 343 q 426 234 446 263 q 376 179 406 206 q 386 99 396 147 m 379 288 q 363 335 385 311 q 303 375 342 360 q 244 399 269 388 q 203 418 219 410 q 154 349 163 388 q 158 319 150 332 q 183 292 167 306 q 217 274 196 285 q 271 251 238 264 q 311 234 294 242 q 339 218 328 226 q 367 253 358 236 q 379 288 376 269 z "},"¨":{"ha":474,"x_min":132,"x_max":469,"o":"m 258 590 q 231 547 253 564 q 185 529 208 529 q 146 547 160 529 q 138 590 132 564 q 165 633 143 615 q 211 651 186 651 q 249 633 235 651 q 258 590 264 615 m 464 590 q 436 547 458 564 q 390 529 414 529 q 352 547 367 529 q 343 590 338 564 q 371 633 349 615 q 417 651 393 651 q 455 633 440 651 q 464 590 469 615 z "},"©":{"ha":750,"x_min":57,"x_max":732,"o":"m 535 163 q 392 122 482 122 q 244 181 299 122 q 190 324 190 239 q 247 477 190 421 q 399 533 304 533 q 528 500 483 533 l 511 450 q 399 481 458 481 q 254 331 254 481 q 400 179 254 179 q 517 214 468 179 l 535 163 m 732 333 q 633 95 732 194 q 394 -4 533 -4 q 156 95 256 -4 q 57 333 57 194 q 156 572 57 472 q 394 671 256 671 q 633 572 533 671 q 732 333 732 472 m 674 333 q 592 531 674 449 q 394 613 510 613 q 197 531 279 613 q 115 333 115 449 q 197 136 115 218 q 394 54 279 54 q 592 136 510 54 q 674 333 674 218 z "},"ª":{"ha":401,"x_min":72,"x_max":408,"o":"m 408 615 l 363 408 q 360 381 360 396 q 367 346 360 358 l 319 335 q 314 368 314 350 q 315 392 314 382 q 189 335 256 335 q 103 367 135 335 q 72 450 72 399 q 126 598 72 532 q 263 664 181 664 q 408 615 349 664 m 318 479 l 342 589 q 264 613 304 613 q 171 565 207 613 q 135 460 135 517 q 206 386 135 386 q 276 415 243 386 q 318 479 308 443 z "},"«":{"ha":494,"x_min":33,"x_max":482,"o":"m 404 65 l 321 65 l 203 249 l 400 436 l 482 436 l 286 250 l 404 65 m 235 65 l 150 65 l 33 249 l 226 438 l 313 438 l 115 249 l 235 65 z "},"¬":{"ha":622,"x_min":47,"x_max":560,"o":"m 560 122 l 493 122 l 493 325 l 47 325 l 47 388 l 560 388 l 560 122 z "},"®":{"ha":750,"x_min":57,"x_max":732,"o":"m 546 124 l 492 124 q 383 306 467 306 l 314 306 l 314 124 l 257 124 l 257 533 q 371 544 321 544 q 488 513 444 544 q 532 428 532 482 q 464 325 532 356 q 515 260 497 301 q 546 124 532 218 m 481 424 q 371 496 481 496 q 314 493 336 496 l 314 351 l 379 351 q 481 424 481 351 m 732 333 q 633 95 732 194 q 394 -4 533 -4 q 156 95 256 -4 q 57 333 57 194 q 156 572 57 472 q 394 671 256 671 q 633 572 533 671 q 732 333 732 472 m 674 333 q 592 531 674 449 q 394 613 510 613 q 197 531 279 613 q 115 333 115 449 q 197 136 115 218 q 394 54 279 54 q 592 136 510 54 q 674 333 674 218 z "},"¯":{"ha":522,"x_min":94,"x_max":632,"o":"m 617 733 l 94 733 l 110 807 l 632 807 l 617 733 z "},"°":{"ha":385,"x_min":113,"x_max":382,"o":"m 371 551 q 316 464 360 500 q 221 428 272 428 q 141 464 169 428 q 124 551 113 500 q 178 639 135 603 q 274 675 222 675 q 353 639 325 675 q 371 551 382 603 m 326 551 q 315 607 333 583 q 264 631 296 631 q 203 607 232 631 q 168 551 175 583 q 180 496 161 519 q 231 472 199 472 q 291 496 263 472 q 326 551 319 519 z "},"±":{"ha":611,"x_min":-11,"x_max":574,"o":"m 501 0 l -11 0 l 4 76 l 517 76 l 501 0 m 558 301 l 353 301 l 311 108 l 224 108 l 265 301 l 60 301 l 75 378 l 281 378 l 325 588 l 413 588 l 368 378 l 574 378 l 558 301 z "},"²":{"ha":361,"x_min":32,"x_max":371,"o":"m 296 264 l 32 264 q 81 347 40 307 q 165 422 121 386 q 248 492 210 458 q 293 558 286 526 q 288 594 299 582 q 256 607 276 607 q 204 588 229 607 q 169 531 179 568 l 113 542 q 174 637 133 604 q 265 669 214 669 q 344 640 318 669 q 360 558 371 610 q 328 494 353 529 q 256 419 303 460 l 144 326 l 317 326 l 296 264 z "},"³":{"ha":361,"x_min":51,"x_max":369,"o":"m 342 408 q 275 301 328 342 q 147 260 222 261 q 51 294 90 260 l 90 353 q 125 331 107 336 q 163 325 143 325 q 238 348 207 325 q 276 407 268 371 q 269 443 281 431 q 238 456 257 456 q 203 449 221 456 q 172 435 185 443 l 158 476 q 251 528 218 501 q 289 578 285 556 q 257 608 296 608 q 208 592 233 608 q 164 544 182 576 l 118 571 q 274 671 182 671 q 353 589 369 671 q 289 503 342 542 q 342 408 357 482 z "},"´":{"ha":360,"x_min":119,"x_max":367,"o":"m 185 508 l 119 508 l 258 668 l 367 668 l 185 508 z "},"µ":{"ha":575,"x_min":-36,"x_max":546,"o":"m 475 6 l 388 -11 q 382 20 383 4 q 381 56 381 36 q 290 6 335 25 q 197 -12 246 -12 q 139 -1 165 -12 q 99 33 113 10 l 50 -196 l -36 -196 l 104 475 l 192 475 l 139 222 q 224 65 104 65 q 331 101 275 65 q 399 193 386 136 l 458 475 l 546 475 l 472 126 q 468 71 467 101 q 475 6 469 40 z "},"¶":{"ha":528,"x_min":81,"x_max":526,"o":"m 369 -87 l 322 -87 l 472 615 l 406 615 l 256 -87 l 207 -87 l 279 250 l 274 250 q 135 302 190 250 q 100 446 81 354 q 419 660 144 660 q 526 653 493 660 l 369 -87 z "},"·":{"ha":239,"x_min":39,"x_max":183,"o":"m 178 253 q 149 206 172 225 q 97 186 125 186 q 54 206 69 186 q 44 253 39 225 q 74 300 50 281 q 125 319 97 319 q 168 300 153 319 q 178 253 183 281 z "},"¸":{"ha":346,"x_min":-28,"x_max":190,"o":"m 183 -125 q 140 -195 175 -169 q 53 -221 106 -221 q 12 -215 33 -221 q -28 -196 -10 -208 l 0 -151 q 35 -167 17 -161 q 65 -172 54 -172 q 119 -131 110 -172 q 42 -76 126 -92 l 121 15 l 181 15 l 131 -39 q 178 -72 165 -50 q 183 -125 190 -93 z "},"¹":{"ha":361,"x_min":101,"x_max":308,"o":"m 288 271 l 101 271 l 113 325 l 172 325 l 225 575 l 158 522 l 135 569 l 271 672 q 300 659 292 672 q 304 625 308 646 l 240 325 l 299 325 l 288 271 z "},"º":{"ha":408,"x_min":54,"x_max":440,"o":"m 425 499 q 346 373 408 424 q 210 322 283 322 q 94 373 135 322 q 71 499 54 424 q 148 624 86 572 q 285 676 210 676 q 399 624 358 676 q 425 499 440 572 m 364 499 q 347 581 374 546 q 272 615 319 615 q 183 581 225 615 q 132 499 142 546 q 149 417 122 451 q 222 383 175 383 q 312 417 269 383 q 364 499 354 451 z "},"»":{"ha":494,"x_min":-6,"x_max":444,"o":"m 76 65 l -6 65 l 192 250 l 74 436 l 156 436 l 275 249 l 76 65 m 247 65 l 163 65 l 363 249 l 243 438 l 329 438 l 444 249 l 247 65 z "},"¼":{"ha":753,"x_min":54,"x_max":696,"o":"m 542 150 l 578 314 q 510 240 543 286 q 463 150 478 193 l 542 150 m 583 0 l 511 0 l 528 83 l 376 83 q 412 183 386 128 q 476 288 438 239 q 563 372 514 338 q 669 407 613 406 l 614 150 l 672 150 l 656 83 l 600 83 l 583 0 m 240 244 l 54 244 l 65 299 l 125 299 l 176 540 l 114 494 l 86 544 l 225 647 q 257 599 267 644 l 193 299 l 251 299 l 240 244 m 156 -12 l 86 -12 l 626 658 l 696 658 l 156 -12 z "},"½":{"ha":753,"x_min":54,"x_max":738,"o":"m 661 0 l 397 0 q 452 93 413 53 q 533 165 492 133 q 574 198 553 182 q 612 231 594 214 q 642 263 629 247 q 658 294 654 279 q 653 328 663 314 q 621 342 644 342 q 538 267 564 342 l 478 278 q 538 373 497 340 q 631 406 579 406 q 710 376 683 406 q 726 294 738 347 q 692 229 718 260 q 632 170 665 199 q 565 115 599 142 q 510 64 532 89 l 682 64 l 661 0 m 156 -12 l 86 -12 l 626 658 l 696 658 l 156 -12 m 240 244 l 54 244 l 65 299 l 125 299 l 176 540 l 114 494 l 86 544 l 225 647 q 257 599 267 644 l 193 299 l 251 299 l 240 244 z "},"¾":{"ha":753,"x_min":42,"x_max":696,"o":"m 542 150 l 578 314 q 510 236 542 279 q 463 150 478 193 l 542 150 m 583 0 l 511 0 l 528 83 l 376 83 q 416 191 390 135 q 479 295 442 247 q 565 374 517 343 q 669 407 613 406 l 614 150 l 672 150 l 656 83 l 600 83 l 583 0 m 156 -12 l 86 -12 l 626 658 l 696 658 l 156 -12 m 332 396 q 305 332 325 360 q 258 285 285 304 q 200 257 232 267 q 138 247 168 247 q 42 282 81 247 l 82 342 q 115 319 97 326 q 153 311 133 311 q 228 335 197 311 q 267 394 258 358 q 231 443 276 443 q 161 418 196 443 l 149 460 q 243 517 217 492 q 276 569 269 542 q 272 588 278 581 q 247 596 265 596 q 153 528 192 596 l 107 554 q 264 654 171 654 q 331 632 313 654 q 342 579 349 610 q 281 493 332 532 q 328 461 317 488 q 332 396 340 435 z "},"¿":{"ha":401,"x_min":-54,"x_max":310,"o":"m 272 -158 q 101 -210 179 -210 q -16 -167 22 -210 q -39 -54 -54 -125 q 88 114 -24 19 q 149 178 126 146 q 178 240 171 211 q 181 299 183 264 l 260 299 q 263 263 263 279 q 261 236 263 247 q 146 75 244 160 q 49 -51 60 0 q 129 -131 32 -131 q 253 -90 189 -131 l 272 -158 m 304 407 q 275 360 299 379 q 225 340 251 340 q 183 360 199 340 q 174 407 168 379 q 203 454 179 435 q 253 474 226 474 q 294 454 279 474 q 304 407 310 435 z "},"À":{"ha":626,"x_min":-62,"x_max":567,"o":"m 567 0 l 471 0 l 429 221 l 164 221 l 32 0 l -62 0 l 357 671 l 432 671 l 567 0 m 413 296 l 374 571 l 213 296 l 413 296 m 12793 4060 l 12726 4060 l 12639 4194 l 12724 4219 l 12793 4060 z "},"Á":{"ha":626,"x_min":-62,"x_max":567,"o":"m 567 0 l 471 0 l 429 221 l 164 221 l 32 0 l -62 0 l 357 671 l 432 671 l 567 0 m 413 296 l 374 571 l 213 296 l 413 296 m 15010 4429 l 15083 4404 l 14938 4269 l 14871 4269 l 15010 4429 z "},"Â":{"ha":626,"x_min":-62,"x_max":567,"o":"m 567 0 l 471 0 l 429 221 l 164 221 l 32 0 l -62 0 l 357 671 l 432 671 l 567 0 m 413 296 l 374 571 l 213 296 l 413 296 m 1871 1668 l 1796 1668 l 1760 1767 l 1683 1668 l 1607 1668 l 1750 1828 l 1799 1828 l 1871 1668 z "},"Ã":{"ha":626,"x_min":-62,"x_max":567,"o":"m 567 0 l 471 0 l 429 221 l 164 221 l 32 0 l -62 0 l 357 671 l 432 671 l 567 0 m 413 296 l 374 571 l 213 296 l 413 296 m 13600 4928 q 13563 4851 13589 4879 q 13497 4822 13538 4822 q 13472 4828 13486 4822 q 13442 4842 13457 4835 q 13412 4856 13426 4850 q 13388 4863 13397 4863 q 13372 4852 13376 4863 q 13364 4829 13367 4842 l 13303 4829 q 13338 4899 13313 4871 q 13401 4928 13364 4928 q 13429 4922 13414 4928 q 13458 4909 13444 4917 q 13485 4896 13471 4901 q 13508 4890 13499 4890 q 13542 4928 13535 4890 l 13600 4928 z "},"Ä":{"ha":626,"x_min":-62,"x_max":586,"o":"m 567 0 l 471 0 l 429 221 l 164 221 l 32 0 l -62 0 l 357 671 l 432 671 l 567 0 m 413 296 l 374 571 l 213 296 l 413 296 m 375 779 q 347 735 369 753 q 301 718 325 718 q 263 735 276 718 q 254 779 249 753 q 281 822 260 804 q 328 840 303 840 q 366 822 351 840 q 375 779 381 804 m 581 779 q 553 735 575 753 q 507 718 531 718 q 469 735 483 718 q 460 779 454 753 q 488 822 465 804 q 533 840 510 840 q 572 822 557 840 q 581 779 586 804 z "},"Å":{"ha":626,"x_min":-62,"x_max":567,"o":"m 567 0 l 471 0 l 429 221 l 164 221 l 32 0 l -62 0 l 357 671 l 432 671 l 567 0 m 413 296 l 374 571 l 213 296 l 413 296 m 826 1022 q 777 944 817 976 q 692 911 738 911 q 620 944 646 911 q 604 1022 594 976 q 653 1101 614 1068 q 739 1133 693 1133 q 810 1101 785 1133 q 826 1022 836 1068 m 768 1022 q 761 1060 774 1044 q 726 1075 749 1075 q 685 1060 704 1075 q 661 1022 667 1044 q 669 984 657 1000 q 704 968 682 968 q 745 984 726 968 q 768 1022 764 1000 z "},"Æ":{"ha":810,"x_min":-75,"x_max":835,"o":"m 710 0 l 392 0 l 410 264 l 215 264 l 19 0 l -75 0 l 426 671 l 835 671 l 818 594 l 515 594 l 499 390 l 761 390 l 746 314 l 496 314 l 481 76 l 725 76 l 710 0 m 414 339 l 436 563 l 268 339 l 414 339 z "},"Ç":{"ha":600,"x_min":13,"x_max":642,"o":"m 515 35 q 264 -10 404 -10 q 72 84 132 -10 q 44 329 13 178 q 174 571 76 479 q 435 671 281 671 q 642 631 553 671 l 599 561 q 422 596 524 596 q 214 501 294 596 q 132 326 156 432 q 146 157 113 229 q 297 65 186 65 q 507 107 413 65 l 515 35 m 310 -125 q 267 -195 301 -169 q 179 -221 232 -221 q 138 -215 160 -221 q 99 -196 117 -208 l 126 -151 q 162 -167 143 -161 q 192 -172 181 -172 q 246 -131 236 -172 q 168 -76 253 -92 l 247 15 l 307 15 l 257 -39 q 304 -72 292 -50 q 310 -125 317 -93 z "},"È":{"ha":497,"x_min":8,"x_max":949,"o":"m 401 0 l 8 0 l 149 661 l 542 661 l 525 586 l 219 586 l 178 386 l 450 386 l 433 311 l 161 311 l 111 75 l 417 75 l 401 0 m 12729 4060 l 12663 4060 l 12575 4194 l 12660 4219 l 12729 4060 z "},"É":{"ha":497,"x_min":8,"x_max":1008,"o":"m 401 0 l 8 0 l 149 661 l 542 661 l 525 586 l 219 586 l 178 386 l 450 386 l 433 311 l 161 311 l 111 75 l 417 75 l 401 0 m 14946 4429 l 15019 4404 l 14874 4269 l 14807 4269 l 14946 4429 z "},"Ê":{"ha":497,"x_min":8,"x_max":674,"o":"m 401 0 l 8 0 l 149 661 l 542 661 l 525 586 l 219 586 l 178 386 l 450 386 l 433 311 l 161 311 l 111 75 l 417 75 l 401 0 m 1807 1668 l 1732 1668 l 1696 1767 l 1619 1668 l 1543 1668 l 1686 1828 l 1735 1828 l 1807 1668 z "},"Ë":{"ha":497,"x_min":8,"x_max":638,"o":"m 401 0 l 8 0 l 149 661 l 542 661 l 525 586 l 219 586 l 178 386 l 450 386 l 433 311 l 161 311 l 111 75 l 417 75 l 401 0 m 310 779 q 282 735 304 753 q 236 718 260 718 q 197 735 211 718 q 189 779 183 753 q 216 822 194 804 q 263 840 238 840 q 301 822 286 840 q 310 779 315 804 m 515 779 q 488 735 510 753 q 442 718 465 718 q 403 735 418 718 q 394 779 389 753 q 422 822 400 804 q 468 840 444 840 q 506 822 492 840 q 515 779 521 804 z "},"Ì":{"ha":226,"x_min":8,"x_max":1265,"o":"m 96 0 l 8 0 l 149 661 l 236 661 l 96 0 m 12593 4060 l 12526 4060 l 12439 4194 l 12524 4219 l 12593 4060 z "},"Í":{"ha":226,"x_min":8,"x_max":1356,"o":"m 96 0 l 8 0 l 149 661 l 236 661 l 96 0 m 14810 4429 l 14883 4404 l 14738 4269 l 14671 4269 l 14810 4429 z "},"Î":{"ha":226,"x_min":8,"x_max":676,"o":"m 96 0 l 8 0 l 149 661 l 236 661 l 96 0 m 1672 1668 l 1597 1668 l 1561 1767 l 1485 1668 l 1408 1668 l 1551 1828 l 1600 1828 l 1672 1668 z "},"Ï":{"ha":226,"x_min":8,"x_max":561,"o":"m 96 0 l 8 0 l 149 661 l 236 661 l 96 0 m 182 779 q 154 735 176 753 q 108 718 132 718 q 69 735 83 718 q 61 779 56 753 q 88 822 67 804 q 135 840 110 840 q 173 822 158 840 q 182 779 188 804 m 388 779 q 360 735 382 753 q 314 718 338 718 q 276 735 290 718 q 267 779 261 753 q 294 822 272 804 q 340 840 317 840 q 378 822 364 840 q 388 779 393 804 z "},"Ð":{"ha":638,"x_min":10,"x_max":643,"o":"m 613 344 q 489 104 581 194 q 193 -6 378 -6 q 10 8 136 -6 l 68 286 l 11 286 l 28 361 l 85 361 l 146 650 q 364 668 308 668 q 593 567 533 668 q 613 344 643 485 m 524 344 q 343 593 576 593 q 219 585 304 593 l 172 361 l 394 361 l 378 286 l 156 286 l 111 74 q 225 69 156 69 q 442 165 360 69 q 524 344 501 236 z "},"Ñ":{"ha":656,"x_min":8,"x_max":1110,"o":"m 525 0 l 442 0 l 210 536 l 96 0 l 8 0 l 149 661 l 236 661 l 467 139 l 578 661 l 665 661 l 525 0 m 13615 4928 q 13578 4851 13604 4879 q 13513 4822 13553 4822 q 13487 4828 13501 4822 q 13457 4842 13472 4835 q 13427 4856 13442 4850 q 13403 4863 13413 4863 q 13387 4852 13392 4863 q 13379 4829 13382 4842 l 13318 4829 q 13353 4899 13328 4871 q 13417 4928 13379 4928 q 13444 4922 13429 4928 q 13473 4909 13460 4917 q 13500 4896 13486 4901 q 13524 4890 13514 4890 q 13557 4928 13550 4890 l 13615 4928 z "},"Ò":{"ha":719,"x_min":14,"x_max":1829,"o":"m 606 331 q 581 522 631 444 q 425 599 532 599 q 237 522 318 599 q 131 331 156 444 q 156 140 107 217 q 311 63 204 63 q 500 140 418 63 q 606 331 582 217 m 692 329 q 549 85 661 183 q 294 -14 438 -14 q 83 85 151 -14 q 44 329 14 183 q 187 574 75 475 q 442 674 299 674 q 653 574 585 674 q 692 329 722 475 m 12840 4060 l 12774 4060 l 12686 4194 l 12771 4219 l 12840 4060 z "},"Ó":{"ha":719,"x_min":14,"x_max":1950,"o":"m 606 331 q 581 522 631 444 q 425 599 532 599 q 237 522 318 599 q 131 331 156 444 q 156 140 107 217 q 311 63 204 63 q 500 140 418 63 q 606 331 582 217 m 692 329 q 549 85 661 183 q 294 -14 438 -14 q 83 85 151 -14 q 44 329 14 183 q 187 574 75 475 q 442 674 299 674 q 653 574 585 674 q 692 329 722 475 m 15057 4429 l 15131 4404 l 14985 4269 l 14918 4269 l 15057 4429 z "},"Ô":{"ha":719,"x_min":14,"x_max":925,"o":"m 606 331 q 581 522 631 444 q 425 599 532 599 q 237 522 318 599 q 131 331 156 444 q 156 140 107 217 q 311 63 204 63 q 500 140 418 63 q 606 331 582 217 m 692 329 q 549 85 661 183 q 294 -14 438 -14 q 83 85 151 -14 q 44 329 14 183 q 187 574 75 475 q 442 674 299 674 q 653 574 585 674 q 692 329 722 475 m 1918 1668 l 1843 1668 l 1807 1767 l 1731 1668 l 1654 1668 l 1797 1828 l 1846 1828 l 1918 1668 z "},"Õ":{"ha":719,"x_min":14,"x_max":1689,"o":"m 606 331 q 581 522 631 444 q 425 599 532 599 q 237 522 318 599 q 131 331 156 444 q 156 140 107 217 q 311 63 204 63 q 500 140 418 63 q 606 331 582 217 m 692 329 q 549 85 661 183 q 294 -14 438 -14 q 83 85 151 -14 q 44 329 14 183 q 187 574 75 475 q 442 674 299 674 q 653 574 585 674 q 692 329 722 475 m 13647 4928 q 13610 4851 13636 4879 q 13544 4822 13585 4822 q 13519 4828 13533 4822 q 13489 4842 13504 4835 q 13459 4856 13474 4850 q 13435 4863 13444 4863 q 13419 4852 13424 4863 q 13411 4829 13414 4842 l 13350 4829 q 13385 4899 13360 4871 q 13449 4928 13411 4928 q 13476 4922 13461 4928 q 13505 4909 13492 4917 q 13532 4896 13518 4901 q 13556 4890 13546 4890 q 13589 4928 13582 4890 l 13647 4928 z "},"Ö":{"ha":719,"x_min":14,"x_max":724,"o":"m 606 331 q 581 522 631 444 q 425 599 532 599 q 237 522 318 599 q 131 331 156 444 q 156 140 107 217 q 311 63 204 63 q 500 140 418 63 q 606 331 582 217 m 692 329 q 549 85 661 183 q 294 -14 438 -14 q 83 85 151 -14 q 44 329 14 183 q 187 574 75 475 q 442 674 299 674 q 653 574 585 674 q 692 329 722 475 m 421 779 q 393 735 415 753 q 347 718 371 718 q 308 735 322 718 q 300 779 294 753 q 327 822 306 804 q 374 840 349 840 q 412 822 397 840 q 421 779 426 804 m 626 779 q 599 735 621 753 q 553 718 576 718 q 515 735 529 718 q 506 779 500 753 q 533 822 511 804 q 579 840 556 840 q 617 822 603 840 q 626 779 632 804 z "},"×":{"ha":579,"x_min":-12,"x_max":578,"o":"m 490 47 l 422 -7 l 269 199 q 149 96 211 150 q 29 -7 88 42 l -12 47 l 226 253 q 151 358 189 304 q 74 463 113 411 l 142 517 l 294 311 q 415 415 353 361 q 535 517 478 468 l 578 463 l 335 254 l 490 47 z "},"Ø":{"ha":719,"x_min":14,"x_max":722,"o":"m 692 329 q 549 85 661 183 q 294 -14 438 -14 q 179 6 229 -14 l 149 -39 l 60 -39 l 118 43 q 82 85 99 61 q 44 329 14 183 q 187 574 75 475 q 442 674 299 674 q 560 651 510 674 l 583 683 l 672 683 l 619 611 q 653 574 638 594 q 692 329 722 475 m 511 582 q 425 599 474 599 q 237 522 318 599 q 131 331 156 444 q 156 139 107 217 q 171 117 163 126 l 511 582 m 606 331 q 581 521 631 444 q 568 539 575 531 l 231 76 q 311 63 265 63 q 500 140 418 63 q 606 331 582 217 z "},"Ù":{"ha":669,"x_min":6,"x_max":2367,"o":"m 599 282 q 271 -12 536 -12 q 68 282 6 -12 l 149 661 l 238 661 l 157 282 q 286 63 110 63 q 510 282 463 63 l 590 661 l 679 661 l 599 282 m 12814 4060 l 12747 4060 l 12660 4194 l 12744 4219 l 12814 4060 z "},"Ú":{"ha":669,"x_min":6,"x_max":2518,"o":"m 599 282 q 271 -12 536 -12 q 68 282 6 -12 l 149 661 l 238 661 l 157 282 q 286 63 110 63 q 510 282 463 63 l 590 661 l 679 661 l 599 282 m 15031 4429 l 15104 4404 l 14958 4269 l 14892 4269 l 15031 4429 z "},"Û":{"ha":669,"x_min":6,"x_max":1149,"o":"m 599 282 q 271 -12 536 -12 q 68 282 6 -12 l 149 661 l 238 661 l 157 282 q 286 63 110 63 q 510 282 463 63 l 590 661 l 679 661 l 599 282 m 1893 1668 l 1818 1668 l 1782 1767 l 1706 1668 l 1629 1668 l 1772 1828 l 1821 1828 l 1893 1668 z "},"Ü":{"ha":669,"x_min":6,"x_max":861,"o":"m 599 282 q 271 -12 536 -12 q 68 282 6 -12 l 149 661 l 238 661 l 157 282 q 286 63 110 63 q 510 282 463 63 l 590 661 l 679 661 l 599 282 m 396 779 q 368 735 390 753 q 322 718 346 718 q 283 735 297 718 q 275 779 269 753 q 302 822 281 804 q 349 840 324 840 q 387 822 372 840 q 396 779 401 804 m 601 779 q 574 735 596 753 q 528 718 551 718 q 490 735 504 718 q 481 779 475 753 q 508 822 486 804 q 554 840 531 840 q 592 822 578 840 q 601 779 607 804 z "},"Ý":{"ha":550,"x_min":71,"x_max":3028,"o":"m 258 0 l 172 0 l 233 289 l 71 661 l 172 661 l 292 364 l 538 661 l 638 661 l 319 290 l 258 0 m 14972 4429 l 15046 4404 l 14900 4269 l 14833 4269 l 14972 4429 z "},"Þ":{"ha":547,"x_min":13,"x_max":531,"o":"m 507 346 q 402 183 485 239 q 193 126 319 126 q 122 132 149 126 l 94 0 l 13 0 l 153 661 l 235 661 l 213 560 q 286 565 242 565 q 472 509 413 565 q 507 346 531 453 m 426 346 q 274 493 458 493 q 196 482 231 493 l 139 210 q 211 199 168 199 q 426 346 396 199 z "},"ß":{"ha":590,"x_min":-35,"x_max":542,"o":"m 493 151 q 419 31 476 75 q 282 -12 363 -12 q 215 -3 246 -12 q 156 22 183 6 l 199 97 q 299 64 254 64 q 373 87 343 64 q 410 143 403 110 q 401 197 417 174 q 364 244 385 221 q 328 292 343 267 q 319 350 313 317 q 342 390 324 368 q 382 433 360 411 q 422 474 404 454 q 444 511 440 494 q 364 604 464 604 q 201 390 247 604 l 107 -56 q 82 -128 99 -92 q 39 -199 65 -164 l -35 -178 q 5 -113 -8 -143 q 24 -56 18 -83 l 124 413 q 390 683 181 683 q 503 638 465 683 q 525 514 542 593 q 499 456 518 482 q 459 410 479 431 q 422 374 439 389 q 401 346 404 358 q 416 313 399 332 q 452 269 433 294 q 485 215 471 244 q 493 151 500 186 z "},"à":{"ha":599,"x_min":19,"x_max":2826,"o":"m 508 6 l 421 -11 q 400 69 404 11 q 219 -12 332 -12 q 76 40 132 -12 q 19 181 19 93 q 105 398 19 306 q 315 490 190 490 q 551 403 469 490 l 493 126 q 508 6 482 60 m 422 197 l 457 364 q 307 418 403 418 q 165 351 225 418 q 104 193 104 283 q 238 64 104 64 q 357 103 303 64 q 422 197 411 143 m 12736 3871 l 12669 3871 l 12582 4006 l 12667 4031 l 12736 3871 z "},"á":{"ha":599,"x_min":19,"x_max":3549,"o":"m 508 6 l 421 -11 q 400 69 404 11 q 219 -12 332 -12 q 76 40 132 -12 q 19 181 19 93 q 105 398 19 306 q 315 490 190 490 q 551 403 469 490 l 493 126 q 508 6 482 60 m 422 197 l 457 364 q 307 418 403 418 q 165 351 225 418 q 104 193 104 283 q 238 64 104 64 q 357 103 303 64 q 422 197 411 143 m 14983 4240 l 15057 4215 l 14911 4081 l 14844 4081 l 14983 4240 z "},"â":{"ha":599,"x_min":19,"x_max":1307,"o":"m 508 6 l 421 -11 q 400 69 404 11 q 219 -12 332 -12 q 76 40 132 -12 q 19 181 19 93 q 105 398 19 306 q 315 490 190 490 q 551 403 469 490 l 493 126 q 508 6 482 60 m 422 197 l 457 364 q 307 418 403 418 q 165 351 225 418 q 104 193 104 283 q 238 64 104 64 q 357 103 303 64 q 422 197 411 143 m 1828 1479 l 1753 1479 l 1717 1578 l 1640 1479 l 1564 1479 l 1707 1639 l 1756 1639 l 1828 1479 z "},"ã":{"ha":599,"x_min":19,"x_max":2165,"o":"m 508 6 l 421 -11 q 400 69 404 11 q 219 -12 332 -12 q 76 40 132 -12 q 19 181 19 93 q 105 398 19 306 q 315 490 190 490 q 551 403 469 490 l 493 126 q 508 6 482 60 m 422 197 l 457 364 q 307 418 403 418 q 165 351 225 418 q 104 193 104 283 q 238 64 104 64 q 357 103 303 64 q 422 197 411 143 m 13544 4739 q 13508 4662 13533 4690 q 13442 4633 13482 4633 q 13416 4640 13431 4633 q 13386 4653 13401 4646 q 13356 4667 13371 4661 q 13332 4674 13342 4674 q 13316 4663 13321 4674 q 13308 4640 13311 4653 l 13247 4640 q 13283 4710 13257 4682 q 13346 4739 13308 4739 q 13374 4733 13358 4739 q 13402 4720 13389 4728 q 13429 4707 13415 4713 q 13453 4701 13443 4701 q 13486 4739 13479 4701 l 13544 4739 z "},"ä":{"ha":599,"x_min":19,"x_max":940,"o":"m 508 6 l 421 -11 q 400 69 404 11 q 219 -12 332 -12 q 76 40 132 -12 q 19 181 19 93 q 105 398 19 306 q 315 490 190 490 q 551 403 469 490 l 493 126 q 508 6 482 60 m 422 197 l 457 364 q 307 418 403 418 q 165 351 225 418 q 104 193 104 283 q 238 64 104 64 q 357 103 303 64 q 422 197 411 143 m 338 590 q 310 547 332 564 q 264 529 288 529 q 225 547 239 529 q 217 590 211 564 q 244 633 222 615 q 290 651 265 651 q 328 633 314 651 q 338 590 343 615 m 543 590 q 515 547 538 564 q 469 529 493 529 q 431 547 446 529 q 422 590 417 564 q 450 633 428 615 q 496 651 472 651 q 534 633 519 651 q 543 590 549 615 z "},"å":{"ha":599,"x_min":19,"x_max":668,"o":"m 508 6 l 421 -11 q 400 69 404 11 q 219 -12 332 -12 q 76 40 132 -12 q 19 181 19 93 q 105 398 19 306 q 315 490 190 490 q 551 403 469 490 l 493 126 q 508 6 482 60 m 422 197 l 457 364 q 307 418 403 418 q 165 351 225 418 q 104 193 104 283 q 238 64 104 64 q 357 103 303 64 q 422 197 411 143 m 778 833 q 728 755 768 788 q 643 722 689 722 q 572 755 597 722 q 556 833 546 788 q 605 912 565 879 q 690 944 644 944 q 762 912 736 944 q 778 833 788 879 m 719 833 q 713 871 725 856 q 678 886 700 886 q 637 871 656 886 q 613 833 618 856 q 621 795 608 811 q 656 779 633 779 q 697 795 678 779 q 719 833 715 811 z "},"æ":{"ha":863,"x_min":-4,"x_max":863,"o":"m 749 25 q 547 -12 647 -12 q 358 85 411 -12 q 140 -12 288 -12 q 77 -3 106 -12 q 29 25 49 7 q 3 69 10 43 q 1 129 -4 96 q 357 313 40 310 q 342 390 365 360 q 267 419 319 419 q 94 383 222 419 l 100 463 q 288 492 204 492 q 387 473 350 492 q 438 407 424 454 q 649 492 522 492 q 813 222 863 492 l 425 222 q 454 106 415 146 q 568 65 493 65 q 758 101 649 65 l 749 25 m 342 236 q 164 210 222 235 q 96 138 106 186 q 106 83 88 101 q 158 64 125 64 q 273 101 225 64 q 335 206 321 139 l 342 236 m 742 296 q 715 383 743 347 q 628 419 686 419 q 520 387 567 419 q 449 296 474 354 l 742 296 z "},"ç":{"ha":482,"x_min":1,"x_max":481,"o":"m 392 29 q 221 -12 317 -12 q 55 58 108 -12 q 25 239 1 128 q 132 421 49 351 q 328 490 215 490 q 481 449 422 490 l 435 376 q 308 417 378 417 q 184 367 238 417 q 114 239 131 318 q 130 110 97 158 q 233 61 163 61 q 376 101 303 61 l 392 29 m 251 -125 q 208 -195 243 -169 q 121 -221 174 -221 q 80 -215 101 -221 q 40 -196 58 -208 l 68 -151 q 103 -167 85 -161 q 133 -172 122 -172 q 188 -131 178 -172 q 110 -76 194 -92 l 189 15 l 249 15 l 199 -39 q 246 -72 233 -50 q 251 -125 258 -93 z "},"è":{"ha":543,"x_min":17,"x_max":3263,"o":"m 503 342 q 429 233 503 271 q 274 201 367 201 q 107 213 189 201 q 106 196 106 204 q 146 99 106 133 q 251 65 186 65 q 438 101 326 65 l 431 25 q 231 -12 322 -12 q 76 37 135 -12 q 17 171 17 86 q 111 397 17 304 q 332 490 206 490 q 503 342 503 490 m 428 343 q 319 418 428 418 q 203 376 263 418 q 122 275 144 335 q 256 265 161 265 q 428 343 428 265 m 12713 3871 l 12646 3871 l 12558 4006 l 12643 4031 l 12713 3871 z "},"é":{"ha":543,"x_min":17,"x_max":4015,"o":"m 503 342 q 429 233 503 271 q 274 201 367 201 q 107 213 189 201 q 106 196 106 204 q 146 99 106 133 q 251 65 186 65 q 438 101 326 65 l 431 25 q 231 -12 322 -12 q 76 37 135 -12 q 17 171 17 86 q 111 397 17 304 q 332 490 206 490 q 503 342 503 490 m 428 343 q 319 418 428 418 q 203 376 263 418 q 122 275 144 335 q 256 265 161 265 q 428 343 428 265 m 14929 4240 l 15003 4215 l 14857 4081 l 14790 4081 l 14929 4240 z "},"ê":{"ha":543,"x_min":17,"x_max":1426,"o":"m 503 342 q 429 233 503 271 q 274 201 367 201 q 107 213 189 201 q 106 196 106 204 q 146 99 106 133 q 251 65 186 65 q 438 101 326 65 l 431 25 q 231 -12 322 -12 q 76 37 135 -12 q 17 171 17 86 q 111 397 17 304 q 332 490 206 490 q 503 342 503 490 m 428 343 q 319 418 428 418 q 203 376 263 418 q 122 275 144 335 q 256 265 161 265 q 428 343 428 265 m 1789 1479 l 1714 1479 l 1678 1578 l 1601 1479 l 1525 1479 l 1668 1639 l 1717 1639 l 1789 1479 z "},"ë":{"ha":543,"x_min":17,"x_max":975,"o":"m 503 342 q 429 233 503 271 q 274 201 367 201 q 107 213 189 201 q 106 196 106 204 q 146 99 106 133 q 251 65 186 65 q 438 101 326 65 l 431 25 q 231 -12 322 -12 q 76 37 135 -12 q 17 171 17 86 q 111 397 17 304 q 332 490 206 490 q 503 342 503 490 m 428 343 q 319 418 428 418 q 203 376 263 418 q 122 275 144 335 q 256 265 161 265 q 428 343 428 265 m 293 590 q 265 547 288 564 q 219 529 243 529 q 181 547 194 529 q 172 590 167 564 q 199 633 178 615 q 246 651 221 651 q 284 633 269 651 q 293 590 299 615 m 499 590 q 471 547 493 564 q 425 529 449 529 q 387 547 401 529 q 378 590 372 564 q 406 633 383 615 q 451 651 428 651 q 490 633 475 651 q 499 590 504 615 z "},"ì":{"ha":226,"x_min":8,"x_max":3540,"o":"m 96 0 l 8 0 l 108 472 l 196 472 l 96 0 m 12554 3871 l 12488 3871 l 12400 4006 l 12485 4031 l 12554 3871 z "},"í":{"ha":226,"x_min":8,"x_max":4324,"o":"m 96 0 l 8 0 l 108 472 l 196 472 l 96 0 m 14771 4240 l 14844 4215 l 14699 4081 l 14632 4081 l 14771 4240 z "},"î":{"ha":226,"x_min":8,"x_max":1396,"o":"m 96 0 l 8 0 l 108 472 l 196 472 l 96 0 m 1639 1479 l 1564 1479 l 1528 1578 l 1451 1479 l 1375 1479 l 1518 1639 l 1567 1639 l 1639 1479 z "},"ï":{"ha":226,"x_min":8,"x_max":858,"o":"m 96 0 l 8 0 l 108 472 l 196 472 l 96 0 m 142 590 q 114 547 136 564 q 68 529 92 529 q 29 547 43 529 q 21 590 15 564 q 48 633 26 615 q 94 651 69 651 q 133 633 118 651 q 142 590 147 615 m 347 590 q 319 547 342 564 q 274 529 297 529 q 235 547 250 529 q 226 590 221 564 q 254 633 232 615 q 300 651 276 651 q 338 633 324 651 q 347 590 353 615 z "},"ð":{"ha":525,"x_min":10,"x_max":499,"o":"m 460 226 q 358 46 436 114 q 183 -22 281 -22 q 53 41 96 -22 q 31 197 10 104 q 120 351 50 289 q 274 414 190 414 q 388 369 357 414 q 299 506 369 439 q 296 507 297 507 l 140 435 l 115 496 l 239 553 q 149 594 194 581 l 172 664 q 332 596 265 644 l 472 661 l 489 597 l 383 549 q 460 226 499 410 m 360 197 q 344 298 372 257 q 263 339 315 339 q 167 296 213 339 q 111 197 122 253 q 126 99 99 142 q 203 56 153 56 q 301 97 256 56 q 360 197 347 139 z "},"ñ":{"ha":588,"x_min":8,"x_max":2639,"o":"m 479 106 q 478 49 475 71 q 492 10 481 28 l 408 -21 q 391 35 396 -3 q 396 122 386 74 l 426 268 q 325 413 457 413 q 220 369 276 413 q 156 282 164 325 l 96 0 l 8 0 l 82 347 q 93 408 89 382 q 85 469 97 438 l 161 485 q 172 406 179 451 q 353 486 258 486 q 491 428 447 486 q 514 268 535 369 l 479 106 m 13542 4739 q 13505 4662 13531 4690 q 13439 4633 13479 4633 q 13413 4640 13428 4633 q 13383 4653 13399 4646 q 13353 4667 13368 4661 q 13329 4674 13339 4674 q 13313 4663 13318 4674 q 13306 4640 13308 4653 l 13244 4640 q 13280 4710 13254 4682 q 13343 4739 13306 4739 q 13371 4733 13356 4739 q 13399 4720 13386 4728 q 13426 4707 13413 4713 q 13450 4701 13440 4701 q 13483 4739 13476 4701 l 13542 4739 z "},"ò":{"ha":572,"x_min":3,"x_max":3992,"o":"m 525 239 q 417 61 503 133 q 222 -11 331 -11 q 58 61 114 -11 q 25 239 3 133 q 134 417 47 344 q 329 490 221 490 q 492 417 438 490 q 525 239 547 344 m 439 239 q 420 365 456 314 q 313 415 385 415 q 184 365 240 415 q 111 239 128 314 q 131 113 96 164 q 238 63 165 63 q 367 113 310 63 q 439 239 424 164 m 12728 3871 l 12661 3871 l 12574 4006 l 12658 4031 l 12728 3871 z "},"ó":{"ha":572,"x_min":3,"x_max":4806,"o":"m 525 239 q 417 61 503 133 q 222 -11 331 -11 q 58 61 114 -11 q 25 239 3 133 q 134 417 47 344 q 329 490 221 490 q 492 417 438 490 q 525 239 547 344 m 439 239 q 420 365 456 314 q 313 415 385 415 q 184 365 240 415 q 111 239 128 314 q 131 113 96 164 q 238 63 165 63 q 367 113 310 63 q 439 239 424 164 m 14944 4240 l 15018 4215 l 14872 4081 l 14806 4081 l 14944 4240 z "},"ô":{"ha":572,"x_min":3,"x_max":1531,"o":"m 525 239 q 417 61 503 133 q 222 -11 331 -11 q 58 61 114 -11 q 25 239 3 133 q 134 417 47 344 q 329 490 221 490 q 492 417 438 490 q 525 239 547 344 m 439 239 q 420 365 456 314 q 313 415 385 415 q 184 365 240 415 q 111 239 128 314 q 131 113 96 164 q 238 63 165 63 q 367 113 310 63 q 439 239 424 164 m 1804 1479 l 1729 1479 l 1693 1578 l 1617 1479 l 1540 1479 l 1683 1639 l 1732 1639 l 1804 1479 z "},"õ":{"ha":572,"x_min":3,"x_max":3106,"o":"m 525 239 q 417 61 503 133 q 222 -11 331 -11 q 58 61 114 -11 q 25 239 3 133 q 134 417 47 344 q 329 490 221 490 q 492 417 438 490 q 525 239 547 344 m 439 239 q 420 365 456 314 q 313 415 385 415 q 184 365 240 415 q 111 239 128 314 q 131 113 96 164 q 238 63 165 63 q 367 113 310 63 q 439 239 424 164 m 13535 4739 q 13498 4662 13524 4690 q 13432 4633 13472 4633 q 13406 4640 13421 4633 q 13376 4653 13392 4646 q 13347 4667 13361 4661 q 13322 4674 13332 4674 q 13306 4663 13311 4674 q 13299 4640 13301 4653 l 13238 4640 q 13273 4710 13247 4682 q 13336 4739 13299 4739 q 13364 4733 13349 4739 q 13392 4720 13379 4728 q 13419 4707 13406 4713 q 13443 4701 13433 4701 q 13476 4739 13469 4701 l 13535 4739 z "},"ö":{"ha":572,"x_min":3,"x_max":907,"o":"m 525 239 q 417 61 503 133 q 222 -11 331 -11 q 58 61 114 -11 q 25 239 3 133 q 134 417 47 344 q 329 490 221 490 q 492 417 438 490 q 525 239 547 344 m 439 239 q 420 365 456 314 q 313 415 385 415 q 184 365 240 415 q 111 239 128 314 q 131 113 96 164 q 238 63 165 63 q 367 113 310 63 q 439 239 424 164 m 307 590 q 279 547 301 564 q 233 529 257 529 q 194 547 208 529 q 186 590 181 564 q 213 633 192 615 q 260 651 235 651 q 298 633 283 651 q 307 590 313 615 m 513 590 q 485 547 507 564 q 439 529 463 529 q 401 547 415 529 q 392 590 386 564 q 419 633 397 615 q 465 651 442 651 q 503 633 489 651 q 513 590 518 615 z "},"÷":{"ha":579,"x_min":21,"x_max":543,"o":"m 528 218 l 21 218 l 36 293 l 543 293 l 528 218 m 311 78 q 282 31 306 50 q 232 11 258 11 q 190 31 206 11 q 181 78 175 50 q 211 125 188 106 q 261 144 235 144 q 303 125 288 144 q 311 78 318 106 m 388 435 q 358 388 382 407 q 308 368 335 368 q 267 388 282 368 q 257 435 251 407 q 286 482 263 463 q 336 501 310 501 q 378 482 363 501 q 388 435 393 463 z "},"ø":{"ha":572,"x_min":3,"x_max":547,"o":"m 525 239 q 417 61 503 133 q 222 -11 331 -11 q 140 1 176 -11 l 111 -39 l 22 -39 l 78 39 q 58 61 67 49 q 25 239 3 133 q 134 417 47 344 q 329 490 221 490 q 400 481 368 490 l 433 525 l 522 525 l 465 446 q 492 417 479 433 q 525 239 547 344 m 439 239 q 419 364 456 314 q 413 374 415 369 l 189 69 q 238 63 211 63 q 367 113 310 63 q 439 239 424 164 m 349 411 q 313 415 332 415 q 184 365 240 415 q 111 239 128 314 q 131 113 96 164 l 132 111 l 349 411 z "},"ù":{"ha":581,"x_min":43,"x_max":4447,"o":"m 492 6 l 404 -11 q 383 69 388 11 q 201 -12 282 -12 q 43 133 43 -12 q 53 214 43 169 l 86 368 q 90 408 90 388 q 82 469 90 439 l 165 486 q 178 411 178 449 q 172 358 178 385 l 143 222 q 135 160 135 183 q 228 65 135 65 q 335 105 279 65 q 403 193 392 144 l 463 472 l 550 472 l 476 126 q 474 97 474 114 q 492 6 474 56 m 12732 3871 l 12665 3871 l 12578 4006 l 12663 4031 l 12732 3871 z "},"ú":{"ha":581,"x_min":43,"x_max":5292,"o":"m 492 6 l 404 -11 q 383 69 388 11 q 201 -12 282 -12 q 43 133 43 -12 q 53 214 43 169 l 86 368 q 90 408 90 388 q 82 469 90 439 l 165 486 q 178 411 178 449 q 172 358 178 385 l 143 222 q 135 160 135 183 q 228 65 135 65 q 335 105 279 65 q 403 193 392 144 l 463 472 l 550 472 l 476 126 q 474 97 474 114 q 492 6 474 56 m 14949 4240 l 15022 4215 l 14876 4081 l 14810 4081 l 14949 4240 z "},"û":{"ha":581,"x_min":43,"x_max":1669,"o":"m 492 6 l 404 -11 q 383 69 388 11 q 201 -12 282 -12 q 43 133 43 -12 q 53 214 43 169 l 86 368 q 90 408 90 388 q 82 469 90 439 l 165 486 q 178 411 178 449 q 172 358 178 385 l 143 222 q 135 160 135 183 q 228 65 135 65 q 335 105 279 65 q 403 193 392 144 l 463 472 l 550 472 l 476 126 q 474 97 474 114 q 492 6 474 56 m 1808 1479 l 1733 1479 l 1697 1578 l 1621 1479 l 1544 1479 l 1688 1639 l 1736 1639 l 1808 1479 z "},"ü":{"ha":581,"x_min":43,"x_max":960,"o":"m 492 6 l 404 -11 q 383 69 388 11 q 201 -12 282 -12 q 43 133 43 -12 q 53 214 43 169 l 86 368 q 90 408 90 388 q 82 469 90 439 l 165 486 q 178 411 178 449 q 172 358 178 385 l 143 222 q 135 160 135 183 q 228 65 135 65 q 335 105 279 65 q 403 193 392 144 l 463 472 l 550 472 l 476 126 q 474 97 474 114 q 492 6 474 56 m 311 590 q 283 547 306 564 q 238 529 261 529 q 199 547 213 529 q 190 590 185 564 q 217 633 196 615 q 264 651 239 651 q 302 633 288 651 q 311 590 317 615 m 517 590 q 489 547 511 564 q 443 529 467 529 q 405 547 419 529 q 396 590 390 564 q 424 633 401 615 q 469 651 446 651 q 508 633 493 651 q 517 590 522 615 z "},"ý":{"ha":501,"x_min":-68,"x_max":5738,"o":"m 229 10 q -61 -210 103 -175 l -68 -137 q 150 35 61 -110 l 33 472 l 129 472 l 218 122 l 449 472 l 544 472 l 229 10 m 14908 4240 l 14982 4215 l 14836 4081 l 14769 4081 l 14908 4240 z "},"þ":{"ha":608,"x_min":-24,"x_max":572,"o":"m 550 249 q 441 60 525 132 q 249 -12 357 -12 q 106 44 156 -12 l 57 -186 l -24 -186 l 156 661 l 238 661 l 188 426 q 369 492 271 492 q 522 423 471 492 q 550 249 572 354 m 468 247 q 451 371 485 322 q 346 419 417 419 q 224 378 281 419 q 154 272 168 338 l 138 193 q 166 102 126 140 q 268 64 206 64 q 395 113 340 64 q 468 247 450 161 z "},"ÿ":{"ha":501,"x_min":-68,"x_max":974,"o":"m 229 10 q -61 -210 103 -175 l -68 -137 q 150 35 61 -110 l 33 472 l 129 472 l 218 122 l 449 472 l 544 472 l 229 10 m 272 590 q 244 547 267 564 q 199 529 222 529 q 160 547 174 529 q 151 590 146 564 q 178 633 157 615 q 225 651 200 651 q 263 633 249 651 q 272 590 278 615 m 478 590 q 450 547 472 564 q 404 529 428 529 q 366 547 381 529 q 357 590 351 564 q 385 633 363 615 q 431 651 407 651 q 469 633 454 651 q 478 590 483 615 z "},"ı":{"ha":226,"x_min":8,"x_max":196,"o":"m 96 0 l 8 0 l 108 472 l 196 472 l 96 0 z "},"Ł":{"ha":499,"x_min":8,"x_max":490,"o":"m 419 0 l 8 0 l 51 207 l 10 197 l 28 283 l 69 293 l 149 661 l 236 661 l 163 314 l 490 388 l 472 301 l 143 228 l 111 75 l 435 75 l 419 0 z "},"ł":{"ha":301,"x_min":10,"x_max":325,"o":"m 240 68 l 214 -11 q 61 243 10 0 l 79 328 l 15 311 l 32 386 l 94 403 l 158 700 l 246 700 l 188 429 l 325 468 l 310 393 l 172 354 l 153 263 q 154 111 129 156 q 240 68 175 74 z "},"Œ":{"ha":1004,"x_min":14,"x_max":1049,"o":"m 908 0 l 515 0 l 522 38 q 322 -14 428 -14 q 91 85 168 -14 q 44 331 14 183 q 195 576 75 476 q 469 675 315 675 q 647 622 575 675 l 656 661 l 1049 661 l 1032 586 l 726 586 l 685 386 l 957 386 l 940 311 l 668 311 l 618 75 l 924 75 l 908 0 m 546 144 l 624 513 q 453 599 571 599 q 251 517 347 599 q 132 331 154 436 q 171 142 110 222 q 339 61 232 61 q 546 144 457 61 z "},"œ":{"ha":957,"x_min":3,"x_max":960,"o":"m 851 101 l 844 25 q 644 -12 736 -12 q 447 90 504 -12 q 222 -11 353 -11 q 58 61 114 -11 q 25 239 3 133 q 134 417 47 344 q 329 490 221 490 q 511 383 464 490 q 746 490 618 490 q 907 222 960 490 l 522 222 q 550 107 511 149 q 665 65 589 65 q 851 101 742 65 m 439 239 q 420 365 456 314 q 313 415 385 415 q 184 365 240 415 q 111 239 128 314 q 131 113 96 164 q 238 63 165 63 q 367 113 310 63 q 439 239 424 164 m 543 296 l 836 296 q 809 385 840 351 q 721 418 778 418 q 615 384 665 418 q 543 296 564 350 z "},"Š":{"ha":507,"x_min":-24,"x_max":518,"o":"m 447 181 q 349 41 429 94 q 167 -12 269 -12 q -24 47 57 -12 l 29 126 q 189 67 96 67 q 302 97 257 67 q 357 176 347 126 q 251 303 375 260 q 96 494 68 365 q 185 623 113 572 q 357 674 258 674 q 518 629 456 674 l 465 560 q 338 594 403 594 q 235 567 278 594 q 185 501 193 540 q 293 382 169 425 q 429 301 394 347 q 447 181 464 256 m 619 1101 l 571 1101 l 499 1261 l 574 1261 l 610 1163 l 686 1261 l 763 1261 l 619 1101 z "},"š":{"ha":411,"x_min":-17,"x_max":510,"o":"m 343 135 q 270 28 329 69 q 125 -12 211 -12 q -17 33 54 -12 l 31 103 q 144 64 79 64 q 256 131 242 64 q 179 211 267 182 q 68 343 49 254 q 136 444 81 403 q 271 485 192 485 q 399 444 351 485 l 353 381 q 250 417 311 417 q 186 398 214 417 q 151 350 158 379 q 238 279 144 314 q 343 135 364 232 m 539 913 l 490 913 l 418 1072 l 493 1072 l 529 974 l 606 1072 l 682 1072 l 539 913 z "},"Ÿ":{"ha":550,"x_min":71,"x_max":1051,"o":"m 258 0 l 172 0 l 233 289 l 71 661 l 172 661 l 292 364 l 538 661 l 638 661 l 319 290 l 258 0 m 336 779 q 308 735 331 753 q 263 718 286 718 q 224 735 238 718 q 215 779 210 753 q 242 822 221 804 q 289 840 264 840 q 327 822 313 840 q 336 779 342 804 m 542 779 q 514 735 536 753 q 468 718 492 718 q 430 735 444 718 q 421 779 415 753 q 449 822 426 804 q 494 840 471 840 q 533 822 518 840 q 542 779 547 804 z "},"Ž":{"ha":626,"x_min":-24,"x_max":667,"o":"m 531 0 l -24 0 l -11 56 l 529 586 l 122 586 l 154 661 l 667 661 l 654 604 l 113 75 l 563 75 l 531 0 m 679 1101 l 631 1101 l 558 1261 l 633 1261 l 669 1163 l 746 1261 l 822 1261 l 679 1101 z "},"ž":{"ha":497,"x_min":-33,"x_max":683,"o":"m 397 0 l -33 0 l -21 53 l 365 399 l 65 399 l 97 472 l 500 472 l 488 415 l 103 74 l 425 74 l 397 0 m 575 913 l 526 913 l 454 1072 l 529 1072 l 565 974 l 642 1072 l 718 1072 l 575 913 z "},"ƒ":{"ha":561,"x_min":-111,"x_max":646,"o":"m 467 353 l 336 353 l 240 129 q -28 -96 144 -96 q -111 -61 -82 -96 l -62 0 q 1 -19 -32 -19 q 158 136 92 -19 l 251 353 l 176 353 l 207 425 l 285 425 l 293 447 q 412 614 344 556 q 563 672 479 672 q 646 638 617 672 l 597 576 q 533 596 568 596 q 375 440 442 596 l 368 425 l 497 425 l 467 353 z "},"ˆ":{"ha":303,"x_min":1406,"x_max":1669,"o":"m 1669 1479 l 1594 1479 l 1558 1578 l 1482 1479 l 1406 1479 l 1549 1639 l 1597 1639 l 1669 1479 z "},"ˇ":{"ha":428,"x_min":419,"x_max":683,"o":"m 540 913 l 492 913 l 419 1072 l 494 1072 l 531 974 l 607 1072 l 683 1072 l 540 913 z "},"˘":{"ha":475,"x_min":154,"x_max":485,"o":"m 485 682 q 404 565 454 603 q 288 526 354 526 q 188 565 221 526 q 157 682 154 603 l 232 682 q 247 620 232 647 q 301 593 263 593 q 369 620 340 593 q 411 682 397 647 l 485 682 z "},"˙":{"ha":268,"x_min":167,"x_max":299,"o":"m 293 757 q 266 713 288 731 q 221 696 244 696 q 182 713 197 696 q 172 757 167 731 q 201 800 178 782 q 247 818 224 818 q 285 800 271 818 q 293 757 299 782 z "},"˚":{"ha":369,"x_min":426,"x_max":668,"o":"m 658 833 q 609 755 649 788 q 524 722 569 722 q 452 755 478 722 q 436 833 426 788 q 485 912 446 879 q 571 944 525 944 q 642 912 617 944 q 658 833 668 879 m 600 833 q 593 871 606 856 q 558 886 581 886 q 517 871 536 886 q 493 833 499 856 q 501 795 489 811 q 536 779 514 779 q 577 795 558 779 q 600 833 596 811 z "},"˛":{"ha":354,"x_min":-18,"x_max":196,"o":"m 179 -189 q 72 -212 117 -212 q 0 -181 18 -212 q -10 -106 -18 -149 q 10 -46 -4 -79 q 44 26 25 -12 l 126 26 q 72 -86 81 -47 q 101 -135 64 -131 q 142 -127 117 -135 q 196 -108 168 -119 l 179 -189 z "},"˜":{"ha":360,"x_min":88,"x_max":386,"o":"m 386 615 q 348 538 374 567 q 282 510 322 510 q 256 516 271 510 q 225 530 240 522 q 196 544 210 538 q 172 550 182 550 q 156 540 161 550 q 149 517 150 529 l 88 517 q 122 587 96 558 q 186 615 149 615 q 213 610 199 615 q 242 597 228 604 q 269 583 256 589 q 292 578 282 578 q 326 615 318 578 l 386 615 z "},"˝":{"ha":499,"x_min":107,"x_max":508,"o":"m 340 444 l 282 444 l 419 682 l 508 682 l 340 444 m 165 444 l 107 444 l 244 682 l 332 682 l 165 444 z "},"฀":{"ha":0,"x_min":0,"x_max":0,"o":""},"ก":{"ha":543,"x_min":8,"x_max":508,"o":"m 425 65 q 360 -37 408 -14 l 292 0 q 346 97 332 24 l 403 368 q 388 458 415 425 q 303 492 360 492 q 161 421 219 492 q 240 358 224 408 q 149 258 161 317 l 94 0 l 8 0 l 64 264 q 140 356 76 322 q 58 372 111 379 q 156 514 81 458 q 315 565 225 565 q 462 512 415 565 q 489 367 508 458 l 425 65 z "},"ข":{"ha":576,"x_min":44,"x_max":606,"o":"m 197 397 q 192 428 201 415 q 164 440 182 440 q 131 428 146 440 q 111 397 115 415 q 118 367 108 379 q 146 354 128 354 q 179 367 164 354 q 197 397 194 379 m 471 131 q 407 26 457 63 q 288 -11 357 -11 q 183 26 218 -11 q 163 131 149 63 l 182 221 q 242 328 190 261 q 301 435 293 396 q 290 488 308 467 q 243 508 272 508 q 181 490 199 508 q 242 464 221 489 q 254 400 263 439 q 210 330 244 358 q 135 301 175 301 q 66 335 88 301 q 54 418 44 369 q 128 524 68 482 q 254 565 188 565 q 360 532 324 565 q 383 435 397 499 q 324 318 375 393 q 267 213 274 243 l 246 111 q 259 75 240 88 q 303 63 278 63 q 353 76 329 63 q 382 111 376 89 l 464 500 q 529 601 481 578 l 606 569 q 543 468 560 549 l 471 131 z "},"ฃ":{"ha":599,"x_min":33,"x_max":628,"o":"m 190 338 q 185 368 194 356 q 157 381 175 381 q 124 368 139 381 q 104 338 108 356 q 110 307 100 319 q 139 294 121 294 q 172 307 157 294 q 190 338 186 319 m 493 131 q 429 26 479 63 q 310 -11 379 -11 q 206 26 240 -11 q 185 131 171 63 l 199 193 q 270 310 208 238 q 342 425 332 383 q 313 499 346 478 l 250 446 l 200 501 q 164 472 185 493 q 139 433 143 450 q 168 438 160 438 q 233 408 210 438 q 247 338 257 379 q 204 267 239 296 q 126 238 169 238 q 56 278 78 238 q 43 365 33 318 q 112 499 60 439 q 228 565 164 560 l 264 518 l 317 567 q 411 419 436 539 q 349 310 401 376 q 288 204 296 243 l 268 111 q 281 75 263 88 q 325 63 300 63 q 375 76 351 63 q 404 111 399 89 l 486 500 q 551 601 503 578 l 628 569 q 565 468 582 549 l 493 131 z "},"ค":{"ha":560,"x_min":28,"x_max":526,"o":"m 329 331 q 324 361 333 349 q 296 374 314 374 q 263 361 278 374 q 244 331 249 349 q 250 301 240 313 q 278 289 260 289 q 310 301 296 289 q 329 331 325 313 m 442 65 q 376 -37 425 -14 l 308 0 q 363 97 349 24 l 422 379 q 396 463 432 429 q 310 492 363 492 q 201 449 247 492 q 142 351 154 407 q 138 301 139 336 q 131 239 136 265 l 122 200 q 133 230 122 201 q 149 274 144 258 q 213 371 175 332 q 307 421 260 421 q 367 394 344 421 q 381 331 389 368 q 340 267 374 294 q 268 240 306 240 q 211 265 233 240 q 114 0 143 139 l 28 0 l 46 89 q 53 231 60 154 q 56 353 47 308 q 158 508 76 449 q 332 565 236 565 q 469 519 419 565 q 507 376 526 467 l 442 65 z "},"ฅ":{"ha":560,"x_min":28,"x_max":539,"o":"m 322 300 q 317 331 326 318 q 289 343 307 343 q 256 331 271 343 q 238 300 242 318 q 244 270 235 282 q 271 258 253 258 q 304 270 289 258 q 322 300 319 282 m 442 65 q 376 -37 425 -14 l 308 0 q 363 97 349 24 l 422 379 q 408 490 439 464 l 310 436 l 226 490 q 144 364 164 453 q 136 290 139 338 q 125 196 133 242 l 124 183 q 131 205 124 186 q 146 244 139 224 q 204 342 168 303 q 300 392 249 392 q 359 365 338 392 q 374 301 381 339 q 333 238 365 264 q 263 211 300 211 q 204 235 228 211 q 114 0 138 111 l 28 0 l 46 89 q 55 238 61 157 q 58 360 49 319 q 122 490 74 433 q 246 569 171 546 l 326 515 l 438 569 q 513 401 539 524 l 442 65 z "},"ฆ":{"ha":629,"x_min":38,"x_max":658,"o":"m 497 0 l 418 0 q 288 108 353 85 l 285 94 q 235 19 275 50 q 150 -11 196 -11 q 78 22 104 -11 q 63 101 53 54 q 112 180 72 147 q 197 213 151 213 q 214 211 207 213 q 279 317 222 250 q 342 421 333 379 q 314 500 353 475 l 254 447 l 206 501 q 169 472 189 494 q 143 432 149 450 q 172 436 154 436 q 238 407 214 436 q 253 338 261 378 q 208 267 244 296 q 131 238 172 238 q 60 274 82 238 q 50 369 38 310 q 119 502 65 442 q 231 565 172 563 l 267 518 l 321 567 q 417 428 440 536 q 353 310 407 379 q 292 204 299 242 l 288 183 q 431 92 363 154 l 517 500 q 582 601 533 578 l 658 569 q 596 468 613 549 l 497 0 m 219 100 q 213 133 224 119 q 183 146 203 146 q 149 133 165 146 q 128 100 132 119 q 135 68 124 82 q 164 54 146 54 q 199 68 183 54 q 219 100 215 82 m 196 338 q 190 368 200 356 q 163 381 181 381 q 129 368 144 381 q 110 338 114 356 q 116 307 106 319 q 144 294 126 294 q 177 307 163 294 q 196 338 192 319 z "},"ง":{"ha":433,"x_min":22,"x_max":407,"o":"m 301 0 l 217 0 l 56 226 q 25 315 22 275 l 81 363 q 106 296 86 325 l 239 107 l 290 358 q 264 357 286 357 q 197 385 221 357 q 183 458 174 414 q 229 534 192 503 q 308 565 267 565 q 382 534 357 565 q 397 453 407 503 l 301 0 m 333 461 q 326 494 338 481 q 296 508 315 508 q 260 494 276 508 q 239 461 243 481 q 246 428 235 442 q 276 414 257 414 q 313 428 296 414 q 333 461 329 442 z "},"จ":{"ha":542,"x_min":54,"x_max":513,"o":"m 429 97 q 380 17 419 46 q 288 -11 340 -11 q 189 79 186 -11 l 190 189 q 156 183 175 183 q 92 213 115 183 q 78 282 68 242 q 122 351 86 322 q 197 381 157 381 q 256 358 233 381 q 278 300 279 335 l 272 88 q 301 63 271 63 q 342 90 336 63 l 408 403 q 381 472 418 449 q 296 492 349 492 q 138 424 176 492 l 54 424 q 304 565 103 564 q 450 531 397 565 q 493 397 513 486 l 429 97 m 219 282 q 213 313 222 300 q 185 325 203 325 q 151 313 167 325 q 133 282 136 300 q 139 251 129 264 q 167 239 149 239 q 200 251 185 239 q 219 282 215 264 z "},"ฉ":{"ha":563,"x_min":24,"x_max":533,"o":"m 474 94 q 427 19 464 50 q 346 -11 390 -11 q 281 16 306 -11 q 261 83 256 43 q 147 0 208 65 l 68 0 l 90 108 q 115 161 99 147 q 96 163 101 161 q 40 256 24 179 q 83 324 49 296 q 157 351 117 351 q 219 324 197 351 q 233 256 242 296 q 210 203 229 236 q 185 150 190 171 l 174 92 q 268 148 200 114 q 367 208 336 182 q 401 274 394 236 l 429 401 q 400 472 439 447 q 313 492 367 492 q 208 469 254 492 q 139 392 154 443 l 56 392 q 326 565 114 565 q 469 529 418 565 q 514 396 533 485 l 486 264 q 439 186 475 211 q 474 94 486 156 m 178 256 q 172 285 181 274 q 144 297 163 297 q 112 285 126 297 q 94 256 97 274 q 99 226 90 238 q 126 214 108 214 q 159 226 144 214 q 178 256 174 238 m 413 93 q 406 124 417 111 q 378 136 396 136 q 345 124 360 136 q 326 93 331 111 q 332 63 322 75 q 360 50 342 50 q 393 63 378 50 q 413 93 408 75 z "},"ช":{"ha":576,"x_min":51,"x_max":640,"o":"m 471 131 q 408 26 457 64 q 288 -11 358 -11 q 158 96 158 -11 q 182 221 158 114 q 249 336 190 258 q 303 451 303 408 q 243 508 303 508 q 181 490 197 508 q 257 421 257 488 q 219 338 257 374 q 135 301 181 301 q 51 389 51 301 q 119 517 51 464 q 254 565 182 565 q 386 465 386 565 q 333 333 386 413 q 267 213 274 247 l 244 103 q 303 63 244 63 q 354 76 331 63 q 382 111 378 90 l 426 322 q 433 369 433 356 q 401 422 433 411 q 483 554 422 492 q 578 621 535 607 l 640 579 q 489 440 550 543 q 521 378 521 424 q 513 324 521 363 l 471 131 m 197 397 q 192 428 201 415 q 164 440 182 440 q 131 428 146 440 q 111 397 115 415 q 118 367 108 379 q 146 354 128 354 q 179 367 164 354 q 197 397 194 379 z "},"ซ":{"ha":599,"x_min":40,"x_max":663,"o":"m 535 324 l 493 131 q 430 26 479 64 q 310 -11 381 -11 q 181 96 181 -11 q 199 193 181 114 q 269 310 208 238 q 342 436 342 396 q 313 499 342 481 l 250 446 l 200 501 q 163 471 183 493 q 139 433 143 449 q 168 438 160 438 q 227 415 204 438 q 250 360 250 393 q 212 274 250 311 q 126 238 174 238 q 63 267 86 238 q 40 338 40 296 q 99 487 40 414 q 228 565 157 560 l 264 518 l 317 567 q 415 458 415 543 q 349 310 415 396 q 288 204 294 240 l 267 103 q 325 63 267 63 q 376 76 353 63 q 404 111 400 90 l 449 322 q 456 369 456 356 q 424 422 456 411 q 506 554 444 492 q 600 621 557 607 l 663 579 q 511 440 572 543 q 543 378 543 424 q 535 324 543 363 m 190 338 q 185 368 194 356 q 157 381 175 381 q 124 368 139 381 q 104 338 108 356 q 111 307 101 319 q 139 294 121 294 q 172 307 157 294 q 190 338 188 319 z "},"ฌ":{"ha":785,"x_min":0,"x_max":814,"o":"m 653 0 l 576 0 q 485 108 558 68 q 482 85 483 89 q 437 15 474 40 q 360 -11 400 -11 q 292 19 317 -11 q 276 94 267 50 q 353 190 290 158 l 390 368 q 375 456 401 422 q 299 490 349 490 q 163 421 214 490 q 240 358 224 408 q 149 258 161 319 l 136 199 q 205 168 181 199 q 219 93 229 138 q 173 19 210 50 q 92 -11 136 -11 q 24 19 49 -11 q 10 93 0 50 q 40 153 17 129 l 64 264 q 140 356 76 322 q 58 372 111 379 q 153 514 81 458 q 310 565 221 565 q 449 513 403 565 q 476 367 496 460 l 440 197 q 588 100 542 163 l 672 500 q 738 601 689 578 l 814 569 q 751 468 768 549 l 653 0 m 160 93 q 153 126 164 113 q 122 140 142 140 q 86 126 103 140 q 65 93 69 113 q 72 60 61 74 q 103 46 83 46 q 139 60 122 46 q 160 93 156 74 m 429 93 q 422 126 433 113 q 392 140 411 140 q 356 126 372 140 q 335 93 339 113 q 342 60 331 74 q 372 46 353 46 q 408 60 392 46 q 429 93 425 74 z "},"ญ":{"ha":785,"x_min":19,"x_max":814,"o":"m 649 -56 q 568 -219 626 -158 q 397 -287 503 -287 q 288 -253 329 -287 q 254 -147 240 -212 q 297 -77 263 -106 q 374 -49 332 -49 q 435 -78 414 -49 q 447 -149 456 -107 q 389 -218 435 -203 q 415 -221 408 -221 q 574 -56 532 -221 l 649 -56 m 679 131 q 603 22 665 61 q 478 -11 549 -11 q 368 22 406 -11 q 339 131 325 60 l 390 368 q 375 456 401 422 q 299 490 349 490 q 163 421 214 490 q 240 358 219 410 q 149 258 161 319 l 135 193 q 163 199 146 199 q 229 169 206 199 q 243 94 253 139 q 197 19 233 50 q 115 -11 160 -11 q 44 21 69 -11 q 29 101 19 53 l 64 264 q 140 356 76 322 q 58 372 111 379 q 153 514 81 458 q 310 565 221 565 q 449 513 403 565 q 476 367 496 460 l 424 118 q 439 76 417 89 q 494 63 461 63 q 556 76 526 63 q 592 118 585 89 l 672 500 q 738 601 689 578 l 814 569 q 751 468 768 549 l 679 131 m 396 -146 q 390 -115 400 -128 q 361 -103 381 -103 q 327 -115 342 -103 q 308 -146 313 -128 q 313 -177 304 -164 q 342 -190 322 -190 q 376 -177 361 -190 q 396 -146 392 -164 m 188 93 q 181 126 192 113 q 150 140 169 140 q 114 126 131 140 q 93 93 97 113 q 100 60 89 74 q 131 46 111 46 q 167 60 150 46 q 188 93 183 74 z "},"ฎ":{"ha":590,"x_min":-39,"x_max":554,"o":"m 390 -319 l 303 -319 q 199 -203 300 -246 q 65 -325 164 -325 q -6 -296 19 -325 q -24 -222 -32 -267 q 128 -124 -1 -124 q 158 -125 147 -124 q 182 -86 171 -99 q 233 -46 201 -64 l 285 -76 q 219 -139 236 -100 q 328 -208 293 -167 l 450 368 q 432 458 461 424 q 347 492 403 492 q 208 421 263 492 q 288 358 265 410 q 231 324 246 338 q 200 264 208 301 q 188 176 193 233 q 178 94 183 118 q 132 19 168 50 q 53 -11 96 -11 q -15 19 8 -11 q -29 94 -39 50 q 17 168 -19 138 q 94 199 53 199 q 114 194 111 199 l 124 281 q 188 356 135 329 q 106 372 156 379 q 200 514 126 458 q 361 565 271 565 q 506 511 458 565 q 536 367 554 457 l 390 -319 m 139 -187 q 106 -183 126 -183 q 40 -217 49 -183 q 76 -261 31 -261 q 117 -240 103 -258 q 139 -187 132 -222 m 122 94 q 115 128 126 114 q 85 142 104 142 q 49 128 65 142 q 28 94 32 114 q 35 61 24 75 q 65 47 46 47 q 101 61 85 47 q 122 94 118 75 z "},"ฏ":{"ha":590,"x_min":-89,"x_max":554,"o":"m 72 -190 q 35 -183 60 -183 q -15 -221 -8 -183 q 11 -256 -24 -256 q 72 -190 58 -256 m 122 94 q 115 128 126 114 q 85 142 104 142 q 49 128 65 142 q 28 94 32 114 q 35 61 24 75 q 65 47 46 47 q 101 61 85 47 q 122 94 118 75 m 389 -321 l 311 -321 l 260 -226 l 171 -321 l 126 -233 q 76 -299 113 -272 q 4 -326 40 -326 q -65 -297 -40 -326 q -81 -222 -89 -267 q 58 -119 -58 -119 q 96 -124 85 -119 q 185 -43 122 -72 l 221 -101 q 151 -158 167 -115 l 192 -225 l 276 -140 l 326 -215 l 450 368 q 432 458 461 424 q 347 492 403 492 q 208 421 263 492 q 288 358 265 410 q 231 324 246 338 q 200 264 208 301 q 188 176 193 233 q 178 94 183 118 q 132 19 168 50 q 53 -11 96 -11 q -15 19 8 -11 q -29 94 -39 50 q 17 168 -19 138 q 94 199 53 199 q 114 194 111 199 l 124 281 q 188 356 135 329 q 106 372 156 379 q 200 514 126 458 q 361 565 271 565 q 506 511 458 565 q 536 367 554 457 l 389 -321 z "},"ฐ":{"ha":517,"x_min":-135,"x_max":560,"o":"m 17 -190 q -12 -183 0 -183 q -72 -219 -65 -183 q -43 -254 -79 -254 q 17 -190 4 -254 m 326 -226 q 214 -319 307 -319 l 100 -319 l 56 -236 q 15 -293 46 -269 q -49 -317 -15 -317 q -115 -289 -94 -317 q -126 -218 -135 -261 q -82 -148 -117 -175 q 0 -121 -47 -121 q 38 -128 28 -121 q 103 -57 51 -82 l 140 -82 q 82 -160 94 -101 l 131 -251 l 203 -251 q 253 -228 247 -251 l 256 -210 l 239 -210 q 181 -187 201 -210 q 168 -131 160 -164 q 205 -75 174 -99 q 274 -51 236 -51 q 331 -75 310 -51 q 347 -131 353 -99 l 326 -226 m 399 115 q 240 -11 372 -11 q 138 108 113 -11 l 147 154 q 128 151 136 151 q 67 178 88 151 q 54 244 46 206 q 98 311 63 285 q 171 338 133 338 q 237 312 213 338 q 253 246 261 286 l 225 111 q 257 61 214 61 q 313 111 301 61 l 354 311 q 236 369 361 340 q 69 393 129 393 q 163 528 96 482 q 288 565 218 565 q 363 551 314 565 q 442 538 413 538 q 493 600 475 538 l 560 582 q 419 457 515 457 q 347 474 393 457 q 272 492 300 492 q 222 481 251 492 q 181 454 192 469 q 404 393 335 428 q 442 319 453 368 l 399 115 m 188 244 q 181 273 190 261 q 156 285 172 285 q 124 273 139 285 q 107 244 110 261 q 113 216 103 228 q 139 204 122 204 q 169 216 156 204 q 188 244 183 228 m 286 -131 q 281 -110 288 -118 q 260 -101 274 -101 q 235 -110 246 -101 q 224 -131 225 -118 q 227 -152 221 -143 q 247 -161 233 -161 q 272 -152 261 -161 q 286 -131 283 -143 z "},"ฑ":{"ha":683,"x_min":33,"x_max":671,"o":"m 190 338 q 185 368 194 356 q 157 381 175 381 q 124 368 139 381 q 104 338 108 356 q 110 307 100 319 q 139 294 121 294 q 172 307 157 294 q 190 338 186 319 m 565 65 q 500 -37 549 -14 l 432 0 q 486 97 472 24 l 560 446 q 544 483 567 483 q 514 464 525 483 l 254 0 l 157 0 l 188 149 q 256 295 200 204 q 322 435 313 386 q 308 500 332 482 l 246 446 l 199 501 q 163 472 183 494 q 136 433 142 450 q 167 438 146 438 q 231 408 208 438 q 246 338 254 378 q 202 267 238 296 q 125 238 167 238 q 56 276 79 238 q 44 371 33 315 q 111 501 60 443 q 225 565 163 560 l 261 518 l 315 567 q 390 433 414 544 q 331 305 381 389 q 271 167 282 221 q 243 88 246 100 l 464 482 q 574 565 511 565 q 646 449 671 565 l 565 65 z "},"ฒ":{"ha":765,"x_min":36,"x_max":794,"o":"m 633 0 l 553 0 q 483 90 531 60 q 440 18 475 47 q 357 -11 406 -11 q 290 20 313 -11 q 276 97 267 51 q 311 157 283 129 q 371 193 339 185 l 407 364 q 393 490 428 458 l 294 429 l 231 490 q 142 354 164 460 q 142 263 138 333 q 140 158 147 193 q 125 119 136 138 q 239 226 169 189 q 187 256 203 229 q 178 315 171 282 q 217 378 185 353 q 286 404 249 404 q 344 378 322 404 q 358 315 365 351 q 241 155 343 247 q 126 0 139 63 l 36 0 q 56 89 44 39 q 65 211 72 169 q 56 353 47 308 q 123 489 72 431 q 250 567 174 547 l 311 504 l 392 567 q 494 367 532 546 l 454 182 q 519 149 481 174 q 569 106 557 124 l 653 500 q 718 601 669 578 l 794 569 q 732 468 749 549 l 633 0 m 311 315 q 305 346 315 333 q 276 358 294 358 q 244 346 258 358 q 225 315 229 333 q 231 285 221 297 q 258 272 240 272 q 292 285 276 272 q 311 315 307 297 m 424 93 q 418 125 428 113 q 389 138 408 138 q 355 125 369 138 q 336 93 340 113 q 341 62 332 74 q 369 50 350 50 q 404 62 389 50 q 424 93 419 74 z "},"ณ":{"ha":800,"x_min":19,"x_max":829,"o":"m 713 94 q 669 20 703 51 q 589 -11 635 -11 q 524 15 549 -11 q 500 79 499 40 q 400 0 457 54 l 313 0 l 390 368 q 375 456 401 422 q 299 490 349 490 q 163 421 214 490 q 240 358 215 417 q 149 258 161 319 l 135 193 q 163 199 146 199 q 229 169 206 199 q 243 94 253 139 q 197 19 233 50 q 115 -11 160 -11 q 44 21 69 -11 q 29 101 19 53 l 64 264 q 140 356 76 322 q 58 372 111 379 q 153 514 81 458 q 310 565 221 565 q 449 513 403 565 q 476 368 496 461 l 417 88 q 506 156 443 113 q 610 226 593 214 q 643 292 635 251 l 688 500 q 753 601 704 578 l 829 569 q 767 468 783 549 l 724 263 q 678 186 711 208 q 713 94 725 156 m 656 96 q 649 129 660 115 q 618 143 638 143 q 582 129 599 143 q 561 96 565 115 q 568 63 557 76 q 599 49 579 49 q 635 63 618 49 q 656 96 651 76 m 188 93 q 181 126 192 113 q 150 140 169 140 q 114 126 131 140 q 93 93 97 113 q 100 60 89 74 q 131 46 111 46 q 167 60 150 46 q 188 93 183 74 z "},"ด":{"ha":563,"x_min":35,"x_max":528,"o":"m 322 335 q 316 365 325 353 q 289 376 307 376 q 256 365 271 376 q 239 335 242 353 q 244 305 235 317 q 271 293 253 293 q 303 305 289 293 q 322 335 318 317 m 444 65 q 379 -37 428 -14 l 311 0 q 365 97 351 24 l 422 372 q 402 458 435 425 q 315 492 369 492 q 206 452 257 492 q 142 357 154 413 q 144 258 135 322 q 146 163 153 194 q 138 136 144 153 q 251 246 192 201 q 197 276 214 249 q 189 335 181 300 q 229 398 196 371 q 300 425 263 425 q 358 398 338 425 q 371 335 378 371 q 279 196 357 272 q 157 71 174 92 q 122 0 129 35 l 35 0 q 56 94 46 51 q 64 210 71 169 q 54 284 58 246 q 56 351 50 322 q 155 506 76 446 q 328 565 233 565 q 474 515 424 565 q 508 367 528 461 l 444 65 z "},"ต":{"ha":563,"x_min":31,"x_max":546,"o":"m 317 314 q 310 344 319 332 q 283 356 301 356 q 251 344 265 356 q 233 314 236 332 q 238 284 229 296 q 265 272 247 272 q 298 284 283 272 q 317 314 313 296 m 444 65 q 379 -37 428 -14 l 311 0 q 365 97 351 24 l 421 364 q 400 492 440 453 l 300 429 l 229 492 q 143 360 164 463 q 141 261 135 326 q 142 164 147 196 q 124 118 136 142 q 175 172 136 138 q 247 225 214 207 q 194 254 210 228 q 185 313 178 281 q 224 376 193 350 q 293 403 256 403 q 351 376 331 403 q 364 313 372 350 q 275 186 351 253 q 153 71 172 97 q 118 0 124 31 l 31 0 q 56 107 44 53 q 61 210 67 163 q 58 360 47 310 q 124 492 74 436 q 249 567 174 547 l 315 507 l 401 567 q 508 367 546 544 l 444 65 z "},"ถ":{"ha":543,"x_min":19,"x_max":508,"o":"m 188 93 q 181 126 192 113 q 150 140 169 140 q 114 126 131 140 q 93 93 97 113 q 100 60 89 74 q 131 46 111 46 q 167 60 150 46 q 188 93 183 74 m 425 65 q 360 -37 408 -14 l 292 0 q 346 97 332 24 l 403 368 q 388 458 415 425 q 303 492 360 492 q 161 421 219 492 q 240 358 224 408 q 149 258 161 317 l 135 193 q 163 199 146 199 q 229 169 206 199 q 243 94 253 139 q 197 19 233 50 q 115 -11 160 -11 q 44 21 69 -11 q 29 101 19 53 l 64 264 q 140 356 76 322 q 58 372 111 379 q 156 514 81 458 q 315 565 225 565 q 462 512 415 565 q 489 367 508 458 l 425 65 z "},"ท":{"ha":608,"x_min":40,"x_max":596,"o":"m 490 65 q 425 -37 474 -14 l 357 0 q 411 97 397 24 l 485 449 q 474 492 494 492 q 444 471 456 492 l 179 0 l 82 0 l 157 357 q 133 354 143 354 q 65 385 89 354 q 50 461 40 417 q 97 535 60 504 q 178 565 133 565 q 249 533 225 565 q 264 453 274 501 l 219 246 q 172 99 210 199 q 239 235 200 160 l 369 482 q 492 565 414 567 q 571 447 596 564 l 490 65 m 203 460 q 196 493 207 479 q 165 507 185 507 q 129 493 146 507 q 108 460 113 479 q 115 426 104 440 q 146 413 126 413 q 182 426 165 413 q 203 460 199 440 z "},"ธ":{"ha":497,"x_min":7,"x_max":532,"o":"m 381 118 q 179 -11 353 -11 q 35 118 7 -11 l 54 211 q 119 313 71 289 l 196 281 q 133 179 150 260 l 119 113 q 196 63 108 63 q 293 113 282 63 l 332 296 q 235 352 339 328 q 56 392 132 376 q 126 521 83 481 q 263 565 176 565 q 343 552 293 565 q 415 539 393 539 q 468 601 446 539 l 532 583 q 472 486 497 507 q 394 465 446 465 q 324 479 369 465 q 250 493 278 493 q 160 447 175 493 q 360 392 289 418 q 419 301 432 365 l 381 118 z "},"น":{"ha":601,"x_min":40,"x_max":631,"o":"m 514 93 q 467 19 504 49 q 388 -11 431 -11 q 324 15 347 -11 q 303 79 300 40 q 232 46 253 57 q 169 0 193 25 l 82 0 l 157 357 q 133 354 143 354 q 65 385 89 354 q 50 461 40 417 q 97 535 60 504 q 178 565 133 565 q 249 533 225 565 q 264 453 274 501 l 189 100 q 299 149 214 117 q 407 207 375 178 q 440 274 431 228 l 489 500 q 554 601 506 578 l 631 569 q 568 468 585 549 l 525 263 q 479 186 513 207 q 514 93 526 156 m 203 460 q 196 493 207 479 q 165 507 185 507 q 129 493 146 507 q 108 460 113 479 q 115 426 104 440 q 146 413 126 413 q 182 426 165 413 q 203 460 199 440 m 456 93 q 449 126 460 113 q 418 140 438 140 q 382 126 399 140 q 361 93 365 113 q 368 60 357 74 q 399 46 379 46 q 435 60 418 46 q 456 93 451 74 z "},"บ":{"ha":618,"x_min":40,"x_max":647,"o":"m 203 460 q 196 493 207 479 q 165 507 185 507 q 129 493 146 507 q 108 460 113 479 q 115 426 104 440 q 146 413 126 413 q 182 426 165 413 q 203 460 199 440 m 513 125 q 282 -11 483 -11 q 108 125 79 -11 l 157 357 q 133 354 143 354 q 65 385 89 354 q 50 461 40 417 q 97 535 60 504 q 178 565 133 565 q 249 533 225 565 q 264 453 274 501 l 193 124 q 222 79 188 96 q 297 63 256 63 q 378 79 338 63 q 425 124 419 96 l 506 500 q 571 601 522 578 l 647 569 q 585 468 601 549 l 513 125 z "},"ป":{"ha":618,"x_min":40,"x_max":690,"o":"m 513 125 q 282 -11 483 -11 q 108 125 79 -11 l 157 357 q 133 354 143 354 q 65 385 89 354 q 50 461 40 417 q 97 535 60 504 q 178 565 133 565 q 249 533 225 565 q 264 453 274 501 l 193 124 q 222 79 188 96 q 297 63 256 63 q 378 79 338 63 q 425 124 419 96 l 549 704 q 614 806 565 782 l 690 774 q 628 672 644 753 l 513 125 m 203 460 q 196 493 207 479 q 165 507 185 507 q 129 493 146 507 q 108 460 113 479 q 115 426 104 440 q 146 413 126 413 q 182 426 165 413 q 203 460 199 440 z "},"ผ":{"ha":575,"x_min":-6,"x_max":604,"o":"m 443 0 l 357 0 l 265 222 l 79 0 l -6 0 l 90 453 q 140 533 100 501 q 225 565 179 565 q 293 534 269 565 q 308 460 317 503 q 262 385 299 415 q 181 354 225 354 q 156 356 161 354 l 106 118 l 251 289 l 307 289 l 381 117 l 463 500 q 528 601 479 578 l 604 569 q 542 468 558 549 l 443 0 m 250 460 q 243 493 254 479 q 213 507 232 507 q 176 493 193 507 q 156 460 160 479 q 163 426 151 440 q 193 413 174 413 q 229 426 213 413 q 250 460 246 440 z "},"ฝ":{"ha":575,"x_min":-6,"x_max":647,"o":"m 250 460 q 243 493 254 479 q 213 507 232 507 q 176 493 193 507 q 156 460 160 479 q 163 426 151 440 q 193 413 174 413 q 229 426 213 413 q 250 460 246 440 m 443 0 l 357 0 l 265 222 l 79 0 l -6 0 l 90 453 q 140 533 100 501 q 225 565 179 565 q 293 534 269 565 q 308 460 317 503 q 262 385 299 415 q 181 354 225 354 q 156 356 161 354 l 106 118 l 251 289 l 307 289 l 381 117 l 506 704 q 571 806 522 782 l 647 774 q 585 672 601 753 l 443 0 z "},"พ":{"ha":669,"x_min":40,"x_max":699,"o":"m 538 0 l 440 0 l 400 431 l 175 0 l 82 0 l 157 357 q 133 354 143 354 q 65 385 89 354 q 50 461 40 417 q 97 535 60 504 q 178 565 133 565 q 249 533 225 565 q 264 453 274 501 l 219 246 q 172 99 213 210 q 235 235 229 225 l 396 531 l 449 531 l 482 235 q 489 99 483 226 q 503 246 496 210 l 557 500 q 622 601 574 578 l 699 569 q 636 468 653 549 l 538 0 m 203 460 q 196 493 207 479 q 165 507 185 507 q 129 493 146 507 q 108 460 113 479 q 115 426 104 440 q 146 413 126 413 q 182 426 165 413 q 203 460 199 440 z "},"ฟ":{"ha":669,"x_min":40,"x_max":742,"o":"m 538 0 l 440 0 l 400 431 l 175 0 l 82 0 l 157 357 q 133 354 143 354 q 65 385 89 354 q 50 461 40 417 q 97 535 60 504 q 178 565 133 565 q 249 533 225 565 q 264 453 274 501 l 219 246 q 172 99 213 210 q 235 235 229 225 l 396 531 l 449 531 l 482 235 q 489 99 483 226 q 503 246 496 210 l 600 704 q 665 806 617 782 l 742 774 q 679 672 696 753 l 538 0 m 203 460 q 196 493 207 479 q 165 507 185 507 q 129 493 146 507 q 108 460 113 479 q 115 426 104 440 q 146 413 126 413 q 182 426 165 413 q 203 460 199 440 z "},"ภ":{"ha":590,"x_min":-39,"x_max":554,"o":"m 122 94 q 115 128 126 114 q 85 142 104 142 q 49 128 65 142 q 28 94 32 114 q 35 61 24 75 q 65 47 46 47 q 101 61 85 47 q 122 94 118 75 m 472 65 q 407 -37 456 -14 l 339 0 q 393 97 379 24 l 450 368 q 432 458 461 424 q 347 492 403 492 q 208 421 263 492 q 288 358 274 407 q 231 324 246 338 q 200 264 208 301 q 188 176 193 233 q 178 94 183 118 q 132 19 168 50 q 53 -11 96 -11 q -15 19 8 -11 q -29 94 -39 50 q 17 168 -19 138 q 94 199 53 199 q 114 194 111 199 l 124 281 q 188 356 135 329 q 106 372 156 379 q 200 514 126 458 q 361 565 271 565 q 506 511 458 565 q 536 367 554 457 l 472 65 z "},"ม":{"ha":579,"x_min":-12,"x_max":608,"o":"m 218 460 q 211 493 222 479 q 181 507 200 507 q 144 493 161 507 q 124 460 128 479 q 131 426 119 440 q 161 413 142 413 q 197 426 181 413 q 218 460 214 440 m 156 101 q 149 135 160 121 q 118 149 138 149 q 82 135 99 149 q 61 101 65 121 q 68 68 57 82 q 99 54 79 54 q 135 68 118 54 q 156 101 151 82 m 447 0 l 361 0 q 219 101 296 72 l 218 94 q 168 19 208 50 q 85 -11 128 -11 q 13 22 39 -11 q -3 101 -12 56 q 46 180 6 147 q 132 213 86 213 l 142 213 l 172 357 q 149 354 158 354 q 80 385 104 354 q 65 461 56 417 q 112 535 75 504 q 193 565 149 565 q 265 533 240 565 q 279 453 289 501 l 222 189 q 379 90 325 151 l 467 500 q 532 601 483 578 l 608 569 q 546 468 563 549 l 447 0 z "},"ย":{"ha":536,"x_min":-7,"x_max":565,"o":"m 264 471 q 258 503 268 490 q 228 515 247 515 q 194 503 208 515 q 175 471 179 490 q 181 439 171 451 q 210 426 190 426 q 244 439 229 426 q 264 471 260 451 m 433 140 q 196 -11 401 -11 q 24 140 -7 -11 l 38 204 q 114 299 51 271 q 78 425 60 342 q 133 526 90 486 q 235 565 175 565 q 300 540 276 565 q 315 472 324 514 q 275 407 307 435 q 200 379 243 379 q 163 386 178 379 q 201 333 163 333 l 300 333 l 285 265 l 186 265 q 146 246 164 265 q 122 201 128 226 l 110 138 q 211 63 93 63 q 347 138 331 63 l 424 500 q 489 601 440 578 l 565 569 q 503 468 519 549 l 433 140 z "},"ร":{"ha":457,"x_min":53,"x_max":490,"o":"m 335 93 q 288 19 325 49 q 206 -11 250 -11 q 136 19 161 -11 q 121 94 111 50 q 168 169 131 139 q 250 200 206 200 q 271 199 267 200 l 296 318 q 213 362 301 340 q 53 396 125 383 q 119 519 72 472 q 238 565 167 565 q 315 552 267 565 q 385 539 363 539 q 426 601 415 539 l 490 583 q 372 467 456 467 q 303 479 347 467 q 236 492 260 492 q 157 444 175 492 q 326 397 258 422 q 381 311 393 372 l 335 93 m 275 94 q 268 128 279 114 q 238 142 257 142 q 201 128 218 142 q 181 94 185 114 q 188 61 176 75 q 218 47 199 47 q 254 61 238 47 q 275 94 271 75 z "},"ฤ":{"ha":543,"x_min":19,"x_max":508,"o":"m 379 -149 q 314 -251 363 -228 l 246 -214 q 300 -117 286 -190 l 403 368 q 388 458 415 425 q 303 492 360 492 q 161 421 219 492 q 240 358 224 408 q 149 258 161 317 l 135 193 q 163 199 146 199 q 229 169 206 199 q 243 94 253 139 q 197 19 233 50 q 115 -11 160 -11 q 44 21 69 -11 q 29 101 19 53 l 64 264 q 140 356 76 322 q 58 372 111 379 q 156 514 81 458 q 315 565 225 565 q 462 512 415 565 q 489 367 508 458 l 379 -149 m 188 93 q 181 126 192 113 q 150 140 169 140 q 114 126 131 140 q 93 93 97 113 q 100 60 89 74 q 131 46 111 46 q 167 60 150 46 q 188 93 183 74 z "},"ล":{"ha":554,"x_min":28,"x_max":510,"o":"m 506 397 l 442 93 q 388 -28 421 -10 l 321 3 q 351 106 351 40 q 322 234 351 167 q 256 325 292 301 q 176 279 214 321 q 132 201 144 244 l 164 201 q 227 176 201 201 q 253 114 253 150 q 210 25 253 60 q 118 -10 168 -10 q 53 13 78 -10 q 28 74 28 36 q 118 321 28 232 q 274 392 189 392 q 375 278 344 347 q 400 186 388 232 q 403 306 396 267 l 422 407 q 424 414 422 410 q 424 419 424 418 q 388 472 424 453 q 303 492 353 492 q 201 465 246 492 q 138 392 156 438 l 54 392 q 149 519 76 472 q 321 565 221 565 q 450 533 397 565 q 510 431 510 496 q 506 397 510 417 m 189 96 q 182 129 193 115 q 151 143 171 143 q 115 129 132 143 q 94 96 99 115 q 101 63 90 76 q 132 49 113 49 q 168 63 151 49 q 189 96 185 76 z "},"ฦ":{"ha":590,"x_min":-39,"x_max":554,"o":"m 122 94 q 115 128 126 114 q 85 142 104 142 q 49 128 65 142 q 28 94 32 114 q 35 61 24 75 q 65 47 46 47 q 101 61 85 47 q 122 94 118 75 m 426 -149 q 361 -251 410 -228 l 293 -214 q 347 -117 333 -190 l 450 368 q 432 458 461 424 q 347 492 403 492 q 208 421 263 492 q 288 358 274 407 q 231 324 246 338 q 200 264 208 301 q 188 176 193 233 q 178 94 183 118 q 132 19 168 50 q 53 -11 96 -11 q -15 19 8 -11 q -29 94 -39 50 q 17 168 -19 138 q 94 199 53 199 q 114 194 111 199 l 124 281 q 188 356 135 329 q 106 371 154 372 q 200 514 126 458 q 361 565 271 565 q 506 511 458 565 q 536 367 554 457 l 426 -149 z "},"ว":{"ha":526,"x_min":49,"x_max":497,"o":"m 415 101 q 367 22 406 53 q 281 -10 328 -10 q 212 21 236 -10 q 197 94 188 51 q 244 169 207 139 q 325 200 281 200 q 350 199 340 200 l 393 403 q 285 492 413 492 q 188 459 232 492 q 132 372 144 426 l 49 372 q 140 515 72 464 q 300 565 207 565 q 439 529 392 565 q 478 397 497 486 l 415 101 m 350 96 q 343 129 354 115 q 313 143 332 143 q 276 129 293 143 q 256 96 260 115 q 263 63 251 76 q 293 49 274 49 q 329 63 313 49 q 350 96 346 76 z "},"ศ":{"ha":560,"x_min":28,"x_max":593,"o":"m 442 65 q 376 -37 425 -14 l 308 0 q 363 97 347 24 l 422 379 q 425 400 425 392 q 386 469 425 443 q 310 492 353 492 q 203 450 250 492 q 142 351 156 408 q 138 301 139 336 q 131 239 136 265 l 122 203 l 149 274 q 307 421 222 421 q 360 400 339 421 q 382 349 382 379 q 345 272 382 304 q 268 240 308 240 q 211 265 235 240 q 114 0 143 139 l 28 0 l 46 89 q 56 179 56 136 q 53 235 56 200 q 50 286 50 271 q 132 485 50 404 q 332 565 214 565 q 428 546 386 565 q 531 621 483 603 l 593 579 q 486 501 538 556 q 511 418 511 467 q 507 376 511 396 l 442 65 m 331 340 q 296 374 331 374 q 259 357 275 374 q 243 321 243 340 q 278 289 243 289 q 315 305 299 289 q 331 340 331 321 z "},"ษ":{"ha":640,"x_min":40,"x_max":669,"o":"m 203 460 q 196 493 207 479 q 165 507 185 507 q 129 493 146 507 q 108 460 113 479 q 115 426 104 440 q 146 413 126 413 q 182 426 165 413 q 203 460 199 440 m 396 325 q 391 356 400 343 q 364 368 382 368 q 331 356 346 368 q 313 325 317 343 q 318 294 308 307 q 346 282 328 282 q 378 294 364 282 q 396 325 392 307 m 658 329 q 561 249 622 285 l 535 125 q 293 -11 506 -11 q 108 125 79 -11 l 157 357 q 133 354 143 354 q 65 385 89 354 q 50 461 40 417 q 97 535 60 504 q 178 565 133 565 q 249 533 225 565 q 264 453 274 501 l 194 129 q 217 82 189 101 q 307 63 246 63 q 406 82 369 63 q 449 129 443 101 l 467 213 q 407 206 433 206 q 263 321 238 206 q 302 387 271 360 q 376 414 333 414 q 436 388 417 414 q 447 326 456 363 q 404 261 439 282 q 481 275 443 264 l 528 500 q 593 601 544 578 l 669 569 q 607 468 624 549 l 576 324 q 622 375 603 344 l 658 329 z "},"ส":{"ha":554,"x_min":28,"x_max":593,"o":"m 506 397 l 442 93 q 388 -28 421 -10 l 321 3 q 351 106 351 40 q 322 234 351 167 q 256 325 292 301 q 176 279 214 321 q 132 201 144 244 l 164 201 q 227 176 201 201 q 253 114 253 150 q 210 25 253 60 q 118 -10 168 -10 q 53 13 78 -10 q 28 74 28 36 q 118 321 28 232 q 274 392 189 392 q 375 278 344 347 q 400 186 388 232 q 403 306 396 267 l 422 407 q 424 419 424 414 q 388 472 424 453 q 303 492 353 492 q 201 465 246 492 q 138 392 156 438 l 54 392 q 149 519 76 472 q 321 565 221 565 q 426 544 379 565 q 531 621 486 607 l 593 579 q 486 501 535 556 q 510 431 510 471 q 506 397 510 417 m 189 96 q 182 129 193 115 q 151 143 171 143 q 115 129 132 143 q 94 96 99 115 q 101 63 90 76 q 132 49 113 49 q 168 63 151 49 q 189 96 185 76 z "},"ห":{"ha":608,"x_min":40,"x_max":604,"o":"m 490 65 q 425 -37 474 -14 l 357 0 q 411 97 397 24 l 456 308 q 447 346 463 346 q 408 311 436 346 l 163 0 l 82 0 l 157 357 q 133 354 143 354 q 65 385 89 354 q 50 461 40 417 q 97 535 60 504 q 178 565 133 565 q 249 533 225 565 q 264 453 274 501 l 219 246 q 172 99 213 210 q 236 208 199 158 l 342 340 q 396 388 375 382 q 383 460 375 422 q 430 535 393 504 q 511 565 467 565 q 580 535 556 565 q 594 460 604 504 q 539 379 585 414 q 540 304 549 344 l 490 65 m 203 460 q 196 493 207 479 q 165 507 185 507 q 129 493 146 507 q 108 460 113 479 q 115 426 104 440 q 146 413 126 413 q 182 426 165 413 q 203 460 199 440 m 536 460 q 529 493 540 479 q 499 507 518 507 q 463 493 479 507 q 442 460 446 479 q 449 426 438 440 q 479 413 460 413 q 515 426 499 413 q 536 460 532 440 z "},"ฬ":{"ha":650,"x_min":40,"x_max":729,"o":"m 518 0 l 431 0 l 351 247 l 171 0 l 82 0 l 157 357 q 133 354 143 354 q 65 385 89 354 q 50 461 40 417 q 97 535 60 504 q 178 565 133 565 q 249 533 225 565 q 264 453 274 501 l 217 231 q 171 94 207 188 q 215 161 190 128 l 333 307 l 394 307 l 451 161 q 468 94 463 128 q 481 231 471 188 l 507 357 q 483 354 493 354 q 415 385 439 354 q 400 461 390 417 q 447 535 410 504 q 528 565 483 565 q 572 554 553 565 q 667 621 617 600 l 729 579 q 613 503 649 544 q 614 453 619 481 l 518 0 m 553 460 q 546 493 557 479 q 515 507 535 507 q 479 493 496 507 q 458 460 463 479 q 465 426 454 440 q 496 413 476 413 q 532 426 515 413 q 553 460 549 440 m 203 460 q 196 493 207 479 q 165 507 185 507 q 129 493 146 507 q 108 460 113 479 q 115 426 104 440 q 146 413 126 413 q 182 426 165 413 q 203 460 199 440 z "},"อ":{"ha":547,"x_min":28,"x_max":518,"o":"m 442 125 q 353 18 426 53 q 211 -11 294 -11 q 82 18 128 -11 q 43 125 28 53 l 72 265 q 118 349 83 315 q 204 383 153 383 q 273 353 249 383 q 288 279 297 324 q 242 206 279 236 q 160 175 204 175 q 140 178 147 175 l 131 135 q 228 63 115 63 q 357 136 342 63 l 414 403 q 386 472 424 449 q 301 492 354 492 q 143 424 169 492 l 60 424 q 310 565 108 564 q 456 531 403 565 q 499 397 518 486 l 442 125 m 229 279 q 222 313 233 299 q 192 326 211 326 q 156 313 172 326 q 135 279 139 299 q 142 246 131 260 q 172 232 153 232 q 208 246 192 232 q 229 279 225 260 z "},"ฮ":{"ha":535,"x_min":15,"x_max":578,"o":"m 429 125 q 340 18 414 53 q 199 -11 282 -11 q 69 18 115 -11 q 31 125 15 53 l 54 239 q 100 323 65 289 q 186 357 135 357 q 255 327 231 357 q 269 253 279 297 q 224 179 261 210 q 142 149 186 149 q 122 151 129 149 l 118 135 q 215 63 103 63 q 344 136 329 63 l 410 440 q 243 390 353 390 q 82 464 67 390 q 308 567 104 567 q 413 546 369 567 q 515 621 460 596 l 578 579 q 471 501 504 547 q 486 393 497 461 l 429 125 m 381 493 q 283 504 338 504 q 164 469 172 504 q 263 447 160 447 q 381 493 346 447 m 211 253 q 204 286 215 272 q 174 300 193 300 q 138 286 154 300 q 117 253 121 272 q 124 219 113 233 q 154 206 135 206 q 190 219 174 206 q 211 253 207 233 z "},"ฯ":{"ha":528,"x_min":57,"x_max":511,"o":"m 222 458 q 215 492 226 478 q 185 506 204 506 q 149 492 165 506 q 128 458 132 478 q 134 425 124 439 q 164 411 144 411 q 201 425 183 411 q 222 458 218 439 m 408 65 q 343 -37 392 -14 l 275 0 q 329 97 315 24 l 400 438 q 397 490 411 488 q 311 385 378 425 q 176 346 244 346 q 93 374 122 346 q 69 458 57 404 q 115 534 78 503 q 197 565 153 565 q 266 534 242 565 q 282 458 290 503 q 274 438 281 451 q 354 554 328 472 l 417 554 q 490 454 511 554 l 408 65 z "},"ะ":{"ha":472,"x_min":-3,"x_max":475,"o":"m 475 551 q 221 331 421 331 q 101 365 138 331 q 75 451 64 399 q 117 519 83 492 q 190 547 150 547 q 255 519 233 547 q 268 451 276 490 q 235 396 260 414 q 397 551 365 401 l 475 551 m 213 451 q 206 482 215 469 q 178 494 196 494 q 145 482 160 494 q 128 451 131 469 q 133 422 124 433 q 160 410 142 410 q 193 422 178 410 q 213 451 208 433 m 408 236 q 154 15 354 15 q 34 49 71 15 q 7 136 -3 83 q 49 204 15 176 q 124 232 83 232 q 188 203 167 232 q 200 136 208 175 q 168 81 193 99 q 331 236 299 86 l 408 236 m 144 136 q 139 167 149 154 q 111 179 129 179 q 78 167 93 179 q 60 136 64 154 q 66 106 57 118 q 93 94 75 94 q 126 106 111 94 q 144 136 142 118 z "},"ั":{"ha":0,"x_min":-258,"x_max":197,"o":"m 197 893 q -100 663 113 663 q -221 697 -183 663 q -247 783 -258 731 q -204 851 -237 824 q -131 879 -171 879 q -67 851 -87 879 q -54 783 -46 822 q -86 728 -61 746 q 115 893 58 733 l 197 893 m -110 783 q -115 814 -106 801 q -143 826 -125 826 q -176 814 -161 826 q -194 783 -190 801 q -188 753 -197 765 q -161 742 -179 742 q -128 753 -143 742 q -110 783 -112 765 z "},"า":{"ha":476,"x_min":51,"x_max":447,"o":"m 358 65 q 293 -37 342 -14 l 225 0 q 279 97 265 24 l 343 404 q 331 467 351 443 q 264 492 310 492 q 182 461 218 492 q 135 383 146 431 l 51 383 q 135 516 74 467 q 279 565 196 565 q 402 526 357 565 q 431 406 447 486 l 358 65 z "},"ำ":{"ha":476,"x_min":-158,"x_max":447,"o":"m 358 65 q 293 -37 342 -14 l 225 0 q 279 97 265 24 l 343 404 q 331 467 351 443 q 264 492 310 492 q 182 461 218 492 q 135 383 146 431 l 51 383 q 135 516 74 467 q 279 565 196 565 q 402 526 357 565 q 431 406 447 486 l 358 65 m 85 763 q 34 680 75 714 q -56 646 -7 646 q -132 680 -106 646 q -149 763 -158 714 q -96 846 -137 811 q -6 881 -54 881 q 69 847 42 881 q 85 763 96 813 m 24 763 q 17 803 29 786 q -18 819 4 819 q -62 803 -42 819 q -87 763 -82 786 q -78 723 -92 739 q -42 707 -65 707 q 1 723 -18 707 q 24 763 19 739 z "},"ิ":{"ha":0,"x_min":-433,"x_max":13,"o":"m 3 625 q -299 681 -156 681 q -433 672 -364 681 q -190 858 -376 858 q -35 794 -83 858 q 3 625 13 729 m -67 707 q -103 772 -68 742 q -192 803 -139 803 q -282 783 -242 803 q -339 729 -322 763 q -264 735 -314 735 q -67 707 -161 735 z "},"ี":{"ha":0,"x_min":-433,"x_max":58,"o":"m 3 625 q -299 681 -156 681 q -433 672 -364 681 q -190 858 -376 858 q -43 804 -92 858 l -24 900 l 58 900 l 4 644 q 3 625 4 635 m -67 707 q -103 772 -68 742 q -192 803 -139 803 q -282 783 -242 803 q -339 729 -322 763 q -264 735 -314 735 q -67 707 -161 735 z "},"ึ":{"ha":0,"x_min":-433,"x_max":69,"o":"m -67 707 q -103 772 -68 742 q -192 803 -139 803 q -282 783 -242 803 q -339 729 -322 763 q -264 735 -314 735 q -67 707 -161 735 m 19 831 q 13 859 22 847 q -10 871 4 871 q -40 859 -25 871 q -58 831 -56 847 q -52 803 -62 814 q -26 792 -42 792 q 2 803 -11 792 q 19 831 15 814 m 63 831 q 35 781 56 803 q -11 751 15 758 q 3 625 10 697 q -299 681 -156 681 q -433 672 -364 681 q -190 858 -376 858 q -97 842 -136 858 q -60 893 -86 872 q -1 914 -33 914 q 51 890 32 914 q 63 831 69 865 z "},"ื":{"ha":0,"x_min":-433,"x_max":58,"o":"m 3 625 q -299 681 -156 681 q -433 672 -364 681 q -190 858 -376 858 q -153 856 -169 858 l -143 900 l -81 900 l -93 842 q -43 804 -65 829 l -24 900 l 58 900 l 4 644 l 3 625 m -67 707 q -103 772 -68 742 q -192 803 -139 803 q -282 783 -242 803 q -339 729 -322 763 q -264 735 -314 735 q -67 707 -161 735 z "},"ุ":{"ha":0,"x_min":-340,"x_max":-153,"o":"m -208 -135 q -214 -108 -206 -119 q -237 -97 -222 -97 q -267 -108 -253 -97 q -285 -135 -282 -119 q -278 -162 -287 -150 q -254 -174 -269 -174 q -225 -162 -239 -174 q -208 -135 -211 -150 m -189 -274 q -254 -376 -206 -353 l -315 -342 q -265 -268 -281 -318 l -254 -219 l -267 -221 q -321 -197 -301 -221 q -333 -139 -340 -172 q -296 -79 -325 -104 q -231 -54 -267 -54 q -174 -76 -196 -54 q -161 -137 -153 -99 l -189 -274 z "},"ู":{"ha":0,"x_min":-507,"x_max":-118,"o":"m -185 -253 q -239 -322 -194 -299 q -331 -343 -276 -343 q -408 -324 -378 -343 q -435 -262 -443 -301 l -425 -221 l -433 -221 q -487 -197 -468 -221 q -500 -139 -507 -172 q -462 -79 -492 -104 q -397 -54 -433 -54 q -341 -76 -362 -54 q -328 -137 -319 -99 l -354 -262 q -317 -283 -358 -283 q -268 -262 -272 -283 l -244 -151 q -179 -49 -228 -72 l -118 -83 q -165 -157 -153 -107 l -185 -253 m -375 -135 q -381 -108 -372 -119 q -404 -97 -389 -97 q -434 -108 -419 -97 q -451 -135 -449 -119 q -445 -162 -454 -150 q -421 -174 -436 -174 q -392 -162 -406 -174 q -375 -135 -378 -150 z "},"ฺ":{"ha":0,"x_min":-236,"x_max":-131,"o":"m -135 -106 q -156 -140 -139 -125 q -193 -154 -174 -154 q -224 -140 -212 -154 q -232 -106 -236 -125 q -210 -72 -228 -86 q -172 -57 -192 -57 q -142 -72 -153 -57 q -135 -106 -131 -86 z "},"฿":{"ha":540,"x_min":36,"x_max":510,"o":"m 449 210 q 240 35 417 61 l 217 -78 l 140 -78 l 163 29 q 36 43 114 29 l 157 614 q 290 633 242 632 l 310 725 l 386 725 l 367 629 q 482 475 510 606 q 390 350 467 399 q 449 210 467 299 m 368 208 q 238 310 390 310 l 175 310 l 132 107 q 183 103 154 103 q 299 126 249 103 q 368 208 357 154 m 400 474 q 282 560 418 560 q 226 553 274 560 l 192 386 l 268 386 q 356 411 321 386 q 400 474 392 436 z "},"เ":{"ha":289,"x_min":17,"x_max":253,"o":"m 242 94 q 194 19 232 50 q 114 -11 157 -11 q 42 21 67 -11 q 26 101 17 53 l 111 500 q 176 601 128 578 l 253 569 q 190 468 207 549 l 133 197 q 158 200 140 200 q 226 169 201 200 q 242 94 251 139 m 183 94 q 176 128 188 114 q 146 142 165 142 q 110 128 126 142 q 89 94 93 114 q 96 61 85 75 q 126 47 107 47 q 163 61 146 47 q 183 94 179 75 z "},"แ":{"ha":549,"x_min":17,"x_max":513,"o":"m 242 94 q 194 19 232 50 q 114 -11 157 -11 q 42 21 67 -11 q 26 101 17 53 l 111 500 q 176 601 128 578 l 253 569 q 190 468 207 549 l 133 197 q 158 200 140 200 q 226 169 201 200 q 242 94 251 139 m 501 94 q 454 19 492 50 q 374 -11 417 -11 q 301 21 326 -11 q 286 101 276 53 l 371 500 q 436 601 388 578 l 513 569 q 450 468 467 549 l 393 197 q 418 200 400 200 q 486 169 461 200 q 501 94 511 139 m 183 94 q 176 128 188 114 q 146 142 165 142 q 110 128 126 142 q 89 94 93 114 q 96 61 85 75 q 126 47 107 47 q 163 61 146 47 q 183 94 179 75 m 443 94 q 436 128 447 114 q 406 142 425 142 q 369 128 386 142 q 349 94 353 114 q 356 61 344 75 q 386 47 367 47 q 422 61 406 47 q 443 94 439 75 z "},"โ":{"ha":350,"x_min":53,"x_max":485,"o":"m 303 94 q 256 19 293 50 q 175 -11 218 -11 q 103 21 128 -11 q 88 101 78 53 l 204 653 q 151 729 208 700 q 53 753 106 753 q 228 911 93 911 q 304 888 264 911 q 363 865 344 865 q 424 919 397 865 l 485 903 q 358 796 435 796 q 288 819 332 796 q 213 842 244 842 q 142 807 164 842 q 289 646 314 760 l 194 197 q 219 200 201 200 q 288 169 263 200 q 303 94 313 139 m 244 94 q 238 128 249 114 q 207 142 226 142 q 171 128 188 142 q 150 94 154 114 q 157 61 146 75 q 188 47 168 47 q 224 61 207 47 q 244 94 240 75 z "},"ใ":{"ha":374,"x_min":44,"x_max":400,"o":"m 326 94 q 279 19 317 50 q 199 -11 242 -11 q 126 21 151 -11 q 111 101 101 53 l 222 625 q 265 709 229 657 q 306 788 300 761 q 294 836 313 818 q 246 854 276 854 q 174 838 199 854 q 226 811 208 838 q 233 756 240 788 q 193 691 225 718 q 122 664 161 664 q 63 693 82 664 q 53 761 44 722 q 128 878 68 836 q 257 915 182 915 q 357 883 318 915 q 388 790 400 847 q 347 701 382 758 q 306 614 313 643 l 218 197 q 243 200 225 200 q 311 169 286 200 q 326 94 336 139 m 268 94 q 261 128 272 114 q 231 142 250 142 q 194 128 211 142 q 174 94 178 114 q 181 61 169 75 q 211 47 192 47 q 247 61 231 47 q 268 94 264 75 m 185 754 q 179 785 189 772 q 151 797 169 797 q 118 785 133 797 q 99 754 103 772 q 104 724 94 736 q 132 711 114 711 q 165 724 150 711 q 185 754 181 736 z "},"ไ":{"ha":350,"x_min":72,"x_max":336,"o":"m 303 94 q 256 19 293 50 q 175 -11 218 -11 q 103 21 128 -11 q 88 101 78 53 l 233 788 l 124 665 l 72 682 q 85 925 94 813 l 160 925 q 143 760 153 815 l 274 914 q 319 888 301 910 q 329 835 336 865 l 194 197 q 219 200 201 200 q 288 169 263 200 q 303 94 313 139 m 244 94 q 238 128 249 114 q 207 142 226 142 q 171 128 188 142 q 150 94 154 114 q 157 61 146 75 q 188 47 168 47 q 224 61 207 47 q 244 94 240 75 z "},"ๅ":{"ha":290,"x_min":-133,"x_max":261,"o":"m 126 -149 q 61 -251 110 -228 l -7 -214 q 47 -117 33 -190 l 157 404 q 144 467 165 443 q 78 492 124 492 q -3 461 32 492 q -50 383 -39 431 l -133 383 q -51 516 -111 467 q 93 565 10 565 q 216 526 171 565 q 244 406 261 486 l 126 -149 z "},"ๆ":{"ha":607,"x_min":107,"x_max":567,"o":"m 439 -136 q 374 -239 422 -215 l 306 -201 q 360 -104 346 -178 l 467 401 q 432 493 479 458 l 357 443 l 286 494 q 244 451 260 479 l 254 451 q 323 420 299 451 q 338 344 347 389 q 290 269 328 300 q 208 238 253 238 q 130 281 153 238 q 119 381 107 324 q 189 503 133 450 q 315 574 244 557 l 371 521 l 442 574 q 536 512 506 557 q 553 403 567 467 l 439 -136 m 279 344 q 272 381 283 365 q 239 396 260 396 q 199 381 218 396 q 176 344 181 365 q 184 308 172 324 q 217 293 196 293 q 256 308 238 293 q 279 344 275 324 z "},"็":{"ha":0,"x_min":-365,"x_max":61,"o":"m 4 724 q -26 673 0 694 q -82 651 -51 651 q -225 710 -150 651 q -270 683 -244 704 q -303 644 -296 661 q -351 763 -365 693 q -290 847 -340 817 q -187 875 -247 875 l -93 875 q -11 936 -25 875 l -4 968 l 61 968 l 54 938 q -1 850 42 881 q -103 819 -44 819 l -204 819 q -248 805 -226 819 q -274 767 -269 790 q -274 731 -279 744 q -203 765 -246 763 q -135 729 -176 744 q -103 776 -129 757 q -51 796 -78 796 q -5 774 -21 796 q 4 724 11 753 m -36 724 q -40 745 -33 736 q -60 754 -47 754 q -83 745 -72 754 q -97 724 -94 736 q -92 702 -100 711 q -72 693 -85 693 q -49 702 -60 693 q -36 724 -39 711 z "},"่":{"ha":0,"x_min":-15,"x_max":101,"o":"m 67 940 l -15 940 l 18 1099 l 101 1099 l 67 940 z "},"้":{"ha":0,"x_min":-161,"x_max":215,"o":"m 215 1160 q 84 977 163 1028 q -122 926 6 926 l -161 926 l -151 972 q -75 1013 -94 976 q -128 1094 -142 1031 q -92 1150 -121 1128 q -31 1172 -64 1172 q 22 1149 6 1172 q 31 1090 39 1126 q -53 975 19 1036 q 70 1040 17 989 q 143 1160 124 1090 l 215 1160 m -12 1092 q -18 1117 -10 1107 q -42 1128 -26 1128 q -69 1117 -57 1128 q -85 1092 -82 1107 q -81 1066 -89 1076 q -57 1056 -72 1056 q -29 1066 -42 1056 q -12 1092 -17 1076 z "},"๊":{"ha":0,"x_min":-172,"x_max":267,"o":"m 267 1151 q 10 933 214 933 l 19 974 q 90 1057 79 1000 q 61 1108 97 1097 l 8 1064 l -25 1111 q -74 1081 -50 1106 q -22 1058 -40 1081 q -11 1003 -4 1036 q -45 950 -18 972 q -104 928 -72 928 q -155 949 -137 928 q -164 1008 -172 971 q -145 1058 -158 1033 q -111 1106 -132 1083 q -62 1142 -90 1128 q -1 1161 -35 1157 l 24 1125 l 63 1161 q 126 1132 104 1160 q 140 1061 149 1104 q 108 992 132 1022 q 208 1151 182 1032 l 267 1151 m -54 1003 q -59 1028 -51 1018 q -82 1039 -67 1039 q -110 1028 -97 1039 q -125 1003 -122 1018 q -119 978 -128 988 q -96 968 -111 968 q -69 978 -81 968 q -54 1003 -57 988 z "},"๋":{"ha":0,"x_min":-64,"x_max":161,"o":"m 150 1001 l 78 1001 l 64 940 l -11 940 l 1 1001 l -64 1001 l -53 1058 l 13 1058 l 25 1117 l 101 1117 l 89 1058 l 161 1058 l 150 1001 z "},"์":{"ha":0,"x_min":-110,"x_max":171,"o":"m 171 1160 q 119 1082 156 1108 q 32 1044 92 1060 q 63 971 74 1022 q 26 912 56 936 q -37 888 -3 888 q -91 913 -72 888 q -103 972 -110 938 q 15 1090 -83 1060 q 76 1113 61 1104 q 114 1160 107 1129 l 171 1160 m 15 971 q 11 997 18 986 q -10 1007 4 1007 q -38 997 -25 1007 q -54 971 -51 986 q -49 946 -57 956 q -25 936 -40 936 q 1 946 -10 936 q 15 971 13 956 z "},"ํ":{"ha":0,"x_min":-158,"x_max":96,"o":"m 85 763 q 34 680 75 714 q -56 646 -7 646 q -132 680 -106 646 q -149 763 -158 714 q -96 846 -137 811 q -6 881 -54 881 q 69 847 42 881 q 85 763 96 813 m 24 763 q 17 803 29 786 q -18 819 4 819 q -62 803 -42 819 q -87 763 -82 786 q -78 723 -92 739 q -42 707 -65 707 q 1 723 -18 707 q 24 763 19 739 z "},"๎":{"ha":0,"x_min":-221,"x_max":79,"o":"m -65 644 q -137 632 -96 632 q -198 655 -175 632 q -212 714 -221 678 q -179 772 -206 747 q -119 801 -153 796 q -124 844 -129 822 q -74 914 -114 890 q 7 933 -37 933 q 79 919 46 933 l 47 868 q -4 878 22 878 q -62 844 -56 878 q 0 800 -71 807 l -33 747 q -76 757 -58 757 q -154 713 -146 757 q -108 685 -161 685 q -54 697 -87 685 l -65 644 z "},"๏":{"ha":625,"x_min":43,"x_max":554,"o":"m 388 226 q 376 289 396 263 q 318 315 356 315 q 249 289 281 315 q 210 226 218 263 q 222 163 201 189 q 281 138 243 138 q 349 163 318 138 q 388 226 379 189 m 436 226 q 375 128 424 169 q 269 88 326 88 q 181 128 213 88 q 161 226 149 169 q 222 324 174 283 q 328 364 271 364 q 417 324 385 364 q 436 226 449 283 m 485 226 q 459 358 501 304 q 339 413 417 413 q 196 358 263 413 q 113 226 129 304 q 139 94 96 149 q 258 39 182 39 q 401 94 335 39 q 485 226 468 150 m 533 226 q 429 60 513 129 q 249 -8 346 -8 q 97 60 151 -8 q 64 226 43 129 q 168 392 85 324 q 349 461 251 461 q 499 391 443 461 q 533 226 554 321 z "},"๐":{"ha":633,"x_min":32,"x_max":563,"o":"m 451 203 q 427 304 464 267 q 328 342 390 342 q 212 304 265 342 q 146 203 158 267 q 169 101 132 139 q 268 64 206 64 q 384 101 331 64 q 451 203 438 139 m 543 203 q 429 44 522 107 q 253 -12 346 -12 q 97 44 158 -12 q 53 203 32 107 q 165 361 72 299 q 343 418 249 418 q 497 361 436 418 q 543 203 563 299 z "},"๑":{"ha":633,"x_min":26,"x_max":563,"o":"m 540 165 q 425 -28 517 54 l 322 -28 q 458 165 436 63 q 439 292 475 244 q 324 340 403 340 q 199 298 256 340 q 128 193 142 256 q 139 99 117 138 q 213 61 161 61 q 256 68 233 61 q 185 101 207 68 q 172 169 164 131 q 220 242 182 213 q 300 272 258 272 q 375 238 351 272 q 388 151 399 203 q 315 35 372 81 q 183 -10 257 -10 q 65 49 103 -10 q 44 190 26 108 q 153 353 65 289 q 342 417 242 417 q 508 343 453 417 q 540 165 563 269 m 326 169 q 320 203 331 189 q 290 217 310 217 q 253 203 271 217 q 232 169 236 189 q 239 136 228 150 q 269 122 250 122 q 306 136 289 122 q 326 169 322 150 z "},"๒":{"ha":633,"x_min":-7,"x_max":596,"o":"m 543 97 q 431 0 524 0 l 71 0 q 11 90 -7 0 l 94 483 q 86 507 99 501 q 63 510 85 507 l 76 581 q 163 563 138 581 q 179 482 192 540 l 101 117 q 132 72 93 72 l 418 72 q 461 106 454 72 l 500 293 q 481 343 511 343 q 419 263 436 343 l 364 263 q 315 346 365 346 q 278 328 294 346 q 254 288 261 310 l 265 288 q 327 260 306 288 q 340 194 349 233 q 299 127 332 154 q 226 100 267 100 q 144 225 118 100 q 208 360 161 307 q 332 419 260 419 q 408 365 400 419 q 503 419 444 419 q 575 382 554 419 q 586 296 596 344 l 543 97 m 288 193 q 282 223 292 211 q 254 235 272 235 q 223 223 236 235 q 206 193 210 211 q 210 164 201 175 q 238 153 219 153 q 269 164 256 153 q 288 193 283 175 z "},"๓":{"ha":633,"x_min":-1,"x_max":586,"o":"m 517 0 l 436 0 l 492 264 q 453 343 508 343 q 400 317 425 343 q 368 260 375 290 l 314 0 l 232 0 l 286 260 q 215 342 304 342 q 129 282 165 342 q 90 182 103 239 q 142 194 115 194 q 210 166 185 194 q 225 93 235 138 q 182 24 215 51 q 97 -10 146 -8 q 11 54 31 -11 q 13 179 -1 106 q 88 340 32 274 q 235 418 150 418 q 346 356 317 418 q 471 418 399 419 q 560 374 535 418 q 572 265 586 331 l 517 0 m 165 89 q 159 122 169 108 q 129 135 149 135 q 94 122 110 135 q 75 89 79 108 q 81 57 71 69 q 110 44 90 44 q 145 57 129 44 q 165 89 161 69 z "},"๔":{"ha":633,"x_min":-11,"x_max":732,"o":"m 494 -12 q 372 25 424 25 q 269 8 338 25 q 167 -10 200 -10 q 31 50 75 -10 q 6 192 -11 106 q 351 421 54 421 q 524 439 469 421 q 653 581 611 468 l 732 581 q 574 379 669 429 q 354 344 506 344 q 196 325 247 344 q 93 197 113 292 q 109 102 81 143 q 179 61 138 61 q 288 76 188 61 q 189 210 167 110 q 235 285 199 256 q 314 314 272 314 q 379 283 358 314 q 392 211 400 251 q 332 129 381 163 q 389 111 353 118 q 463 97 426 106 q 549 53 499 88 l 494 -12 m 331 213 q 325 242 335 231 q 297 254 315 254 q 265 242 279 254 q 247 213 251 231 q 253 183 243 194 q 281 171 263 171 q 313 183 299 171 q 331 213 326 194 z "},"๕":{"ha":633,"x_min":-11,"x_max":732,"o":"m 494 -12 q 372 25 424 25 q 269 8 338 25 q 167 -10 200 -10 q 31 50 75 -10 q 6 192 -11 106 q 301 419 50 401 q 289 486 281 446 q 331 553 297 526 q 403 581 364 581 q 465 553 443 581 q 478 486 486 526 q 440 422 469 450 q 524 439 488 426 q 653 581 611 469 l 732 581 q 574 379 669 429 q 354 344 506 344 q 196 325 247 344 q 93 197 113 292 q 109 102 81 143 q 179 61 138 61 q 288 76 188 61 q 189 210 167 110 q 235 285 199 256 q 314 314 272 314 q 379 283 358 314 q 392 211 400 251 q 332 129 381 163 q 389 111 353 118 q 465 96 431 104 q 549 53 499 88 l 494 -12 m 331 213 q 325 242 335 231 q 297 254 315 254 q 265 242 279 254 q 247 213 251 231 q 253 183 243 194 q 281 171 263 171 q 313 183 299 171 q 331 213 326 194 m 425 485 q 419 515 428 503 q 392 526 410 526 q 359 515 374 526 q 342 485 344 503 q 347 455 338 467 q 374 443 356 443 q 406 455 392 443 q 425 485 421 467 z "},"๖":{"ha":633,"x_min":43,"x_max":599,"o":"m 576 213 q 454 40 553 101 q 263 -12 369 -12 q 129 7 172 -12 q 61 125 43 44 q 106 201 71 171 q 186 232 140 232 q 256 201 232 232 q 271 128 281 171 q 240 67 263 89 q 271 65 249 65 q 408 99 349 65 q 493 210 476 136 q 461 310 507 275 q 356 340 422 340 q 121 253 204 340 l 92 253 q 113 424 113 367 q 76 581 113 515 l 171 581 q 186 381 203 490 q 368 418 253 418 q 532 369 474 418 q 576 213 599 314 m 213 128 q 206 160 217 147 q 176 174 196 174 q 142 160 157 174 q 122 128 126 147 q 128 96 118 108 q 157 83 138 83 q 192 96 176 83 q 213 128 208 108 z "},"๗":{"ha":633,"x_min":-17,"x_max":701,"o":"m 614 321 q 513 82 578 156 q 290 -4 435 -4 q 403 261 379 150 q 404 313 408 288 q 375 346 397 346 q 329 314 350 346 q 306 260 311 288 l 294 204 l 211 204 l 222 257 q 178 346 240 346 q 117 299 144 346 q 85 210 94 261 l 81 194 q 128 206 108 206 q 196 174 171 206 q 211 97 221 143 q 166 24 203 53 q 83 -6 129 -6 q -3 64 15 -6 q 0 196 -17 117 q 60 340 17 281 q 190 418 114 418 q 285 364 265 418 q 385 418 328 418 q 476 364 453 418 q 482 249 496 319 q 429 99 465 176 q 531 304 496 138 q 617 581 576 521 l 701 581 q 636 432 656 529 q 614 321 617 335 m 151 100 q 144 134 156 119 q 113 149 132 149 q 76 134 93 149 q 56 100 60 119 q 63 67 51 81 q 93 53 74 53 q 130 67 113 53 q 151 100 147 81 z "},"๘":{"ha":633,"x_min":-15,"x_max":656,"o":"m 553 108 q 501 25 543 61 q 410 -11 458 -11 q 218 94 310 -11 q 142 45 185 83 q 86 -22 99 7 q 14 208 -15 60 q 126 382 42 336 q 340 418 193 418 q 493 438 447 418 q 572 547 556 465 l 575 560 l 656 560 q 650 529 654 549 q 517 368 625 407 q 294 344 451 344 q 93 206 122 344 q 108 97 75 122 q 178 153 131 129 q 260 178 225 178 q 322 117 282 136 q 375 194 333 163 q 460 226 417 226 q 537 192 510 226 q 553 108 564 157 m 485 108 q 478 143 489 128 q 446 158 467 158 q 407 143 425 158 q 385 108 389 128 q 392 73 381 88 q 424 58 403 58 q 463 73 444 58 q 485 108 481 88 z "},"๙":{"ha":633,"x_min":-3,"x_max":665,"o":"m 488 -14 q 351 242 403 65 q 343 278 347 260 q 325 310 339 297 q 239 342 289 342 q 149 299 189 342 q 97 206 108 256 q 101 117 88 157 q 215 190 139 190 q 278 161 256 190 q 292 90 301 132 q 248 20 283 50 q 172 -10 213 -10 q 39 56 83 -10 q 15 204 -3 117 q 106 356 35 294 q 263 418 178 418 q 381 372 340 418 q 449 417 406 417 q 497 397 468 417 q 544 376 525 376 q 588 456 571 376 q 597 576 603 525 l 665 576 q 651 442 665 507 q 542 301 622 301 q 495 322 524 301 q 454 343 467 343 q 424 317 429 343 q 465 164 414 268 q 556 39 517 60 l 488 -14 m 238 89 q 231 122 242 108 q 201 135 221 135 q 167 122 182 135 q 147 89 151 108 q 153 57 143 69 q 182 44 163 44 q 217 57 201 44 q 238 89 233 69 z "},"๚":{"ha":729,"x_min":57,"x_max":721,"o":"m 222 458 q 215 492 226 478 q 185 506 204 506 q 149 492 165 506 q 128 458 132 478 q 134 425 124 439 q 164 411 144 411 q 201 425 183 411 q 222 458 218 439 m 618 65 q 553 -37 601 -14 l 485 0 q 539 97 525 24 l 610 438 q 607 490 621 488 q 471 361 579 399 l 408 65 q 343 -37 392 -14 l 275 0 q 329 97 315 24 l 400 438 q 397 490 411 488 q 311 385 378 425 q 176 346 244 346 q 90 375 122 346 q 69 458 57 404 q 115 534 78 503 q 197 565 153 565 q 266 534 242 565 q 282 458 290 503 q 274 438 281 451 q 354 554 328 472 l 417 554 q 490 454 511 554 l 488 439 q 564 554 539 475 l 626 554 q 700 454 721 554 l 618 65 z "},"๛":{"ha":968,"x_min":78,"x_max":921,"o":"m 294 444 l 296 453 l 300 453 q 303 449 304 453 q 299 444 303 444 l 294 444 m 292 435 l 293 443 l 297 443 q 306 449 304 443 q 300 454 307 454 l 293 454 l 289 435 l 292 435 m 335 444 l 336 453 l 340 453 q 343 449 344 453 q 339 444 343 444 l 335 444 m 286 435 l 286 438 l 276 438 l 281 454 l 278 454 l 274 435 l 286 435 m 250 442 q 243 436 249 436 q 240 444 238 436 q 247 453 242 453 q 251 447 251 453 l 254 447 q 247 454 253 454 q 238 444 239 454 q 243 435 235 435 q 253 442 251 435 l 250 442 m 328 449 q 324 454 329 454 q 315 449 317 454 q 325 440 319 444 q 319 436 324 436 q 317 442 315 436 l 314 442 q 319 435 313 435 q 328 440 326 435 q 318 449 325 444 q 324 453 319 453 q 325 449 325 450 l 328 449 m 269 435 l 274 454 l 271 454 l 269 446 l 260 446 l 261 454 l 258 454 l 254 435 l 257 435 l 260 444 l 269 444 l 267 435 l 269 435 m 361 435 l 357 446 l 365 454 l 361 454 l 353 444 l 354 454 l 351 454 l 347 435 l 350 435 l 351 442 l 356 444 l 357 435 l 361 435 m 332 435 l 333 443 l 338 443 q 346 449 344 443 q 340 454 347 454 l 333 454 l 329 435 l 332 435 m 282 217 q 329 256 321 217 q 299 294 338 294 q 251 256 260 294 q 282 217 243 217 m 921 249 q 860 233 889 233 q 788 268 814 233 q 732 192 764 201 q 714 238 719 192 q 699 306 707 296 q 635 178 672 178 q 621 228 626 178 q 607 299 617 283 q 525 163 569 163 q 514 217 517 163 q 501 299 508 286 q 239 33 446 33 q 115 93 153 33 q 99 254 78 153 q 176 415 121 358 q 310 472 232 472 q 400 434 372 472 q 414 329 428 396 q 369 229 401 269 q 274 179 329 179 q 226 202 243 179 q 215 256 208 225 q 247 310 221 288 q 306 332 274 332 q 360 304 342 332 l 360 307 l 371 340 q 304 429 396 429 q 206 381 247 429 q 147 247 165 332 q 160 125 132 171 q 249 79 189 79 q 387 139 331 79 q 467 308 443 199 q 476 374 475 351 q 549 226 550 358 q 578 304 569 267 q 581 371 583 331 q 657 250 636 354 q 675 301 671 285 q 678 353 678 314 q 743 236 735 336 q 767 285 760 254 q 771 322 771 301 q 822 283 778 321 q 914 249 863 249 l 921 249 z "},"‌":{"ha":0,"x_min":-24,"x_max":25,"o":"m 25 -347 l -24 -347 l -24 399 l 25 399 l 25 -347 z "},"‍":{"ha":0,"x_min":-75,"x_max":76,"o":"m 25 -347 l -24 -347 l -24 275 l -51 247 l -75 271 l -24 322 l -75 376 l -50 399 l 0 347 l 51 399 l 76 376 l 25 322 l 76 271 l 51 247 l 25 275 l 25 -347 z "},"‎":{"ha":0,"x_min":-24,"x_max":231,"o":"m 25 -347 l -24 -347 l -24 350 l 160 350 l 136 375 l 158 397 l 231 325 l 158 253 l 136 276 l 160 301 l 25 301 l 25 -347 z "},"‏":{"ha":0,"x_min":-229,"x_max":25,"o":"m 25 -347 l -24 -347 l -24 301 l -158 301 l -135 276 l -157 253 l -229 325 l -157 397 q -147 386 -154 393 q -135 375 -140 379 l -158 350 l 25 350 l 25 -347 z "},"–":{"ha":465,"x_min":-1,"x_max":453,"o":"m 438 218 l -1 218 l 13 293 l 453 293 l 438 218 z "},"—":{"ha":963,"x_min":-1,"x_max":950,"o":"m 935 218 l -1 218 l 13 293 l 950 293 l 935 218 z "},"‘":{"ha":351,"x_min":144,"x_max":318,"o":"m 276 518 q 248 474 271 492 q 199 456 225 456 q 158 474 172 456 q 149 518 144 492 q 218 652 168 601 q 303 715 268 703 l 318 692 q 213 581 238 646 q 219 581 215 581 q 226 582 224 582 q 267 563 253 582 q 276 518 282 544 z "},"’":{"ha":351,"x_min":154,"x_max":328,"o":"m 324 633 q 255 499 306 550 q 169 436 204 449 l 154 460 q 260 571 235 506 q 253 570 257 571 q 247 569 250 569 q 206 588 221 569 q 196 633 190 607 q 224 678 201 660 q 274 696 247 696 q 314 678 300 696 q 324 633 328 660 z "},"‚":{"ha":351,"x_min":32,"x_max":206,"o":"m 201 58 q 133 -76 183 -25 q 47 -139 82 -126 l 32 -115 q 138 -4 113 -69 q 131 -5 135 -4 q 125 -6 128 -6 q 83 13 99 -6 q 74 58 68 32 q 102 103 79 85 q 151 121 125 121 q 192 103 178 121 q 201 58 206 85 z "},"“":{"ha":533,"x_min":144,"x_max":500,"o":"m 276 518 q 248 474 271 492 q 199 456 225 456 q 158 474 172 456 q 149 518 144 492 q 218 652 168 601 q 303 715 268 703 l 318 692 q 213 581 238 646 q 219 581 215 581 q 226 582 224 582 q 267 563 253 582 q 276 518 282 544 m 458 518 q 430 474 453 492 q 381 456 407 456 q 340 474 354 456 q 331 518 326 492 q 400 652 350 601 q 485 715 450 703 l 500 692 q 394 581 419 646 q 401 581 397 581 q 408 582 406 582 q 449 563 435 582 q 458 518 464 544 z "},"”":{"ha":533,"x_min":154,"x_max":510,"o":"m 324 633 q 255 499 306 550 q 169 436 204 449 l 154 460 q 260 571 235 506 q 253 570 257 571 q 247 569 250 569 q 206 588 221 569 q 196 633 190 607 q 224 678 201 660 q 274 696 247 696 q 314 678 300 696 q 324 633 328 660 m 506 633 q 437 499 488 550 q 351 436 386 449 l 336 460 q 442 571 417 506 q 435 570 439 571 q 429 569 432 569 q 388 588 403 569 q 378 633 372 607 q 406 678 383 660 q 456 696 429 696 q 496 678 482 696 q 506 633 510 660 z "},"„":{"ha":533,"x_min":32,"x_max":388,"o":"m 201 58 q 133 -76 183 -25 q 47 -139 82 -126 l 32 -115 q 138 -4 113 -69 q 131 -5 135 -4 q 125 -6 128 -6 q 83 13 99 -6 q 74 58 68 32 q 102 103 79 85 q 151 121 125 121 q 192 103 178 121 q 201 58 206 85 m 383 58 q 315 -76 365 -25 q 229 -139 264 -126 l 214 -115 q 319 -4 294 -69 q 313 -5 317 -4 q 307 -6 310 -6 q 265 13 281 -6 q 256 58 250 32 q 284 103 261 85 q 333 121 307 121 q 374 103 360 121 q 383 58 388 85 z "},"†":{"ha":528,"x_min":75,"x_max":508,"o":"m 226 -46 l 157 -46 l 251 394 l 75 389 l 89 456 l 263 450 l 307 660 l 376 660 l 332 450 l 508 456 l 494 389 l 321 394 l 226 -46 z "},"‡":{"ha":528,"x_min":25,"x_max":508,"o":"m 226 -46 l 157 -46 l 200 156 l 25 151 l 39 217 l 213 211 l 251 394 l 75 389 l 89 456 l 263 450 l 307 660 l 376 660 l 332 450 l 508 456 l 494 389 l 321 394 l 282 211 l 458 217 l 444 151 l 269 156 l 226 -46 z "},"•":{"ha":314,"x_min":40,"x_max":274,"o":"m 274 278 q 240 195 274 229 q 157 161 206 161 q 74 195 108 161 q 40 278 40 229 q 74 360 40 326 q 157 394 107 394 q 240 360 206 394 q 274 278 274 325 z "},"…":{"ha":700,"x_min":-1,"x_max":603,"o":"m 136 54 q 107 7 131 26 q 56 -12 83 -12 q 13 7 28 -12 q 3 54 -1 26 q 32 101 8 82 q 83 121 56 121 q 126 101 111 121 q 136 54 142 82 m 367 54 q 338 7 361 26 q 286 -12 314 -12 q 243 7 258 -12 q 233 54 228 26 q 263 101 239 82 q 314 121 286 121 q 357 101 342 121 q 367 54 372 82 m 597 54 q 568 7 592 26 q 517 -12 544 -12 q 474 7 489 -12 q 464 54 458 26 q 493 101 469 82 q 544 121 517 121 q 588 101 572 121 q 597 54 603 82 z "},"‰":{"ha":1350,"x_min":49,"x_max":1318,"o":"m 238 -12 l 153 -12 l 719 661 l 804 661 l 238 -12 m 421 469 q 213 267 378 267 q 92 469 49 267 q 300 674 136 674 q 421 469 465 674 m 339 469 q 283 600 367 600 q 175 469 203 600 q 229 342 149 342 q 339 469 313 342 m 881 193 q 671 -11 838 -11 q 549 193 506 -11 q 757 396 592 396 q 881 193 924 396 m 797 193 q 742 324 825 324 q 632 193 660 324 q 686 64 604 64 q 797 193 769 64 m 1275 193 q 1065 -11 1232 -11 q 943 193 900 -11 q 1151 396 986 396 q 1275 193 1318 396 m 1192 193 q 1136 324 1219 324 q 1026 193 1054 324 q 1081 64 999 64 q 1192 193 1164 64 z "},"′":{"ha":182,"x_min":72,"x_max":233,"o":"m 110 515 l 72 515 l 157 661 l 233 661 l 110 515 z "},"″":{"ha":306,"x_min":72,"x_max":357,"o":"m 110 515 l 72 515 l 157 661 l 233 661 l 110 515 m 233 515 l 196 515 l 281 661 l 357 661 l 233 515 z "},"‹":{"ha":325,"x_min":33,"x_max":313,"o":"m 235 65 l 151 65 l 33 249 l 228 438 l 313 438 l 117 249 l 235 65 z "},"›":{"ha":325,"x_min":-6,"x_max":275,"o":"m 76 65 l -6 65 l 192 250 l 74 438 l 157 438 l 275 249 l 76 65 z "},"⁄":{"ha":204,"x_min":-136,"x_max":363,"o":"m -53 0 l -136 0 l 281 663 l 363 663 l -53 0 z "},"€":{"ha":719,"x_min":21,"x_max":746,"o":"m 624 35 q 509 0 571 13 q 389 -12 447 -12 q 293 3 339 -12 q 210 47 247 18 q 145 114 172 75 q 106 199 118 153 l 21 199 l 36 274 l 101 274 q 124 375 108 325 l 58 375 l 74 449 l 158 449 q 335 613 229 553 q 557 672 440 672 q 746 631 651 672 l 703 553 q 544 596 635 596 q 372 558 447 596 q 247 449 296 519 l 589 449 l 574 375 l 208 375 q 188 274 192 325 l 551 274 l 536 199 l 197 199 q 276 103 219 140 q 421 65 332 65 q 513 74 467 65 q 604 103 558 83 l 624 35 z "},"ℓ":{"ha":353,"x_min":11,"x_max":367,"o":"m 247 61 q 176 11 213 29 q 110 -7 139 -7 q 60 19 76 -7 q 54 104 43 46 l 86 254 l 33 222 l 11 278 l 103 328 l 139 499 q 191 594 153 563 q 272 625 229 625 q 342 594 317 625 q 354 508 367 563 q 328 440 347 472 q 283 382 308 408 q 230 335 258 356 q 175 297 201 314 l 135 110 q 133 81 132 97 q 153 65 133 65 q 186 78 165 65 q 238 118 207 90 l 247 61 m 275 500 q 276 538 279 522 q 254 553 274 553 q 231 540 238 553 q 218 499 224 526 l 194 389 q 242 437 215 404 q 275 500 268 469 z "},"™":{"ha":844,"x_min":118,"x_max":897,"o":"m 319 250 l 257 250 l 257 601 l 118 601 l 118 660 l 458 660 l 458 601 l 319 601 l 319 250 m 897 250 l 833 250 l 817 543 l 701 250 l 654 250 l 543 543 l 522 250 l 461 250 l 486 660 l 554 660 l 679 338 l 804 660 l 871 660 l 897 250 z "},"Ω":{"ha":661,"x_min":-17,"x_max":643,"o":"m 557 0 l 317 0 l 354 182 q 531 374 501 242 q 507 505 547 453 q 389 557 467 557 q 248 505 311 557 q 168 374 185 453 q 261 182 139 242 l 224 0 l -17 0 l 0 75 l 163 75 l 174 129 q 93 224 124 157 q 79 369 63 292 q 194 564 106 496 q 404 632 282 632 q 584 563 525 632 q 617 369 643 494 q 541 219 599 285 q 419 129 483 154 l 408 75 l 572 75 l 557 0 z "},"℮":{"ha":485,"x_min":-10,"x_max":447,"o":"m 353 328 q 279 465 367 465 q 146 328 192 465 l 353 328 m 399 168 q 178 -10 321 -10 q 50 281 -10 -10 q 144 473 78 410 q 294 536 211 536 q 417 464 386 536 q 422 257 447 392 l 128 257 q 128 109 111 156 q 193 63 144 63 q 262 91 229 63 q 319 168 294 119 l 399 168 z "},"∂":{"ha":485,"x_min":1,"x_max":510,"o":"m 458 390 q 347 139 431 256 q 119 -7 243 -7 q 33 34 64 -7 q 17 150 1 75 q 153 344 43 272 q 365 407 250 407 l 378 407 q 349 550 401 550 q 242 450 297 550 l 175 492 q 364 632 268 632 q 458 390 510 632 m 358 329 l 349 329 q 188 271 256 329 q 111 150 126 221 q 154 79 97 79 q 282 174 218 79 q 358 329 328 240 z "},"∆":{"ha":667,"x_min":-57,"x_max":601,"o":"m 497 65 l 378 501 l 72 65 l 497 65 m 601 0 l -57 0 l 411 656 l 601 0 z "},"∏":{"ha":685,"x_min":-8,"x_max":689,"o":"m 526 -104 l 439 -104 l 585 586 l 225 586 l 79 -104 l -8 -104 l 153 661 l 689 661 l 526 -104 z "},"∑":{"ha":579,"x_min":-47,"x_max":622,"o":"m 481 -104 l -47 -104 l -31 -22 l 293 296 l 96 581 l 114 661 l 622 661 l 606 586 l 186 586 l 381 325 l 371 276 l 56 -29 l 496 -29 l 481 -104 z "},"−":{"ha":579,"x_min":72,"x_max":490,"o":"m 475 218 l 72 218 l 88 293 l 490 293 l 475 218 z "},"√":{"ha":538,"x_min":36,"x_max":607,"o":"m 208 -14 l 143 -14 l 111 307 l 36 307 l 51 374 l 188 374 l 207 107 l 522 656 l 607 656 l 208 -14 z "},"∞":{"ha":878,"x_min":53,"x_max":829,"o":"m 390 306 q 264 393 326 393 q 185 367 215 393 q 146 307 154 342 q 226 213 126 213 q 390 306 303 213 m 814 294 q 747 186 800 231 q 604 142 693 142 q 426 251 506 142 q 210 142 319 142 q 92 187 131 142 q 69 310 53 232 q 135 418 83 374 q 276 463 188 463 q 456 354 369 463 q 671 463 563 463 q 790 417 751 463 q 814 294 829 372 m 736 297 q 654 392 756 392 q 492 299 574 392 q 618 211 558 211 q 698 237 667 211 q 736 297 729 263 z "},"∫":{"ha":344,"x_min":-164,"x_max":436,"o":"m 74 -1 q -89 -136 24 -136 q -164 -126 -118 -136 l -133 -53 q -94 -58 -111 -58 q -4 6 -28 -58 l 201 538 q 369 671 251 672 q 436 663 403 671 l 407 592 q 361 599 383 599 q 278 532 303 599 l 74 -1 z "},"≈":{"ha":579,"x_min":-4,"x_max":544,"o":"m 539 365 q 483 265 526 301 q 385 228 440 228 q 281 271 351 228 q 188 314 211 314 q 117 228 139 314 l 40 228 l 46 254 q 104 351 60 315 q 203 388 149 388 q 309 347 240 388 q 404 306 378 306 q 469 388 447 306 l 544 388 l 539 365 m 493 156 q 438 55 481 92 q 339 18 394 18 q 235 61 306 18 q 140 104 164 104 q 71 18 92 104 l -4 18 l 0 44 q 58 142 14 106 q 157 178 103 178 q 263 137 194 178 q 358 96 332 96 q 424 178 401 96 l 499 178 l 493 156 z "},"≠":{"ha":579,"x_min":29,"x_max":535,"o":"m 482 135 l 232 135 q 183 67 208 103 q 136 0 158 32 l 46 0 l 140 135 l 29 135 l 44 208 l 192 208 q 230 258 214 236 q 268 310 246 279 l 67 310 l 82 383 l 319 383 l 433 538 l 526 538 l 414 383 l 535 383 l 519 310 l 360 310 q 324 260 342 283 q 285 208 306 238 l 497 208 l 482 135 z "},"≤":{"ha":579,"x_min":-12,"x_max":553,"o":"m 478 21 l -12 21 l 1 93 l 493 93 l 478 21 m 461 122 l 67 294 l 83 378 l 553 550 l 533 464 l 171 335 l 479 207 l 461 122 z "},"≥":{"ha":579,"x_min":-12,"x_max":515,"o":"m 478 21 l -12 21 l 1 93 l 493 93 l 478 21 m 499 294 l 29 122 l 47 207 l 411 335 l 101 464 l 121 550 l 515 378 l 499 294 z "},"◊":{"ha":563,"x_min":42,"x_max":526,"o":"m 526 306 l 258 0 l 182 0 l 42 306 l 311 613 l 388 613 l 526 306 m 443 306 l 336 543 l 125 306 l 235 68 l 443 306 z "},"◌":{"ha":564,"x_min":69,"x_max":576,"o":"m 349 511 q 341 492 349 500 q 322 485 333 485 q 303 492 311 485 q 296 511 296 500 q 303 530 296 522 q 322 538 311 538 q 341 530 333 538 q 349 511 349 522 m 349 57 q 341 38 349 46 q 322 31 333 31 q 303 38 311 31 q 296 57 296 46 q 303 76 296 68 q 322 83 311 83 q 341 76 333 83 q 349 57 349 68 m 121 285 q 113 267 121 274 q 94 260 106 260 q 76 267 83 260 q 69 285 69 274 q 76 303 69 296 q 94 311 83 311 q 113 303 106 311 q 121 285 121 296 m 576 285 q 569 267 576 274 q 550 260 561 260 q 532 267 539 260 q 525 285 525 274 q 532 303 525 296 q 550 311 539 311 q 569 303 561 311 q 576 285 576 296 m 139 369 q 131 351 139 358 q 113 344 124 344 q 94 351 101 344 q 88 369 88 358 q 94 388 88 381 q 113 396 101 396 q 131 388 124 396 q 139 369 139 381 m 188 446 q 180 428 188 435 q 161 421 172 421 q 143 428 150 421 q 136 446 136 435 q 143 465 136 457 q 161 472 150 472 q 180 465 172 472 q 188 446 188 457 m 261 494 q 253 476 261 483 q 235 469 246 469 q 217 476 224 469 q 210 494 210 483 q 217 513 210 506 q 235 521 224 521 q 253 513 246 521 q 261 494 261 506 m 557 369 q 550 351 557 358 q 532 344 543 344 q 513 351 521 344 q 506 369 506 358 q 513 388 506 381 q 532 396 521 396 q 550 388 543 396 q 557 369 557 381 m 508 446 q 501 428 508 435 q 483 421 494 421 q 465 428 472 421 q 457 446 457 435 q 465 465 457 457 q 483 472 472 472 q 501 465 494 472 q 508 446 508 457 m 435 494 q 428 476 435 483 q 410 469 421 469 q 391 476 399 469 q 383 494 383 483 q 391 513 383 506 q 410 521 399 521 q 428 513 421 521 q 435 494 435 506 m 139 199 q 131 180 139 188 q 113 172 124 172 q 94 180 101 172 q 88 199 88 188 q 94 217 88 210 q 113 224 101 224 q 131 217 124 224 q 139 199 139 210 m 188 122 q 180 103 188 111 q 161 96 172 96 q 143 103 150 96 q 136 122 136 111 q 143 140 136 133 q 161 147 150 147 q 180 140 172 147 q 188 122 188 133 m 261 74 q 253 55 261 63 q 235 47 246 47 q 217 55 224 47 q 210 74 210 63 q 217 92 210 85 q 235 99 224 99 q 253 92 246 99 q 261 74 261 85 m 551 179 q 533 172 544 172 q 515 180 522 172 q 507 199 507 188 q 515 217 507 210 q 533 224 522 224 q 551 217 544 224 q 558 199 558 210 q 551 179 558 188 m 503 103 q 485 96 496 96 q 466 103 474 96 q 458 122 458 111 q 466 140 458 133 q 485 147 474 147 q 503 140 496 147 q 510 122 510 133 q 503 103 510 111 m 429 54 q 411 47 422 47 q 392 55 400 47 q 385 74 385 63 q 392 92 385 85 q 411 99 400 99 q 429 92 422 99 q 436 74 436 85 q 429 54 436 63 z "},"":{"ha":517,"x_min":46,"x_max":560,"o":"m 399 115 q 240 -11 372 -11 q 138 108 113 -11 l 147 154 q 128 151 136 151 q 67 178 88 151 q 54 244 46 206 q 98 311 63 285 q 171 338 133 338 q 237 312 213 338 q 253 246 261 286 l 225 111 q 257 61 214 61 q 313 111 301 61 l 354 311 q 236 369 361 340 q 69 393 129 393 q 163 528 96 482 q 288 565 218 565 q 363 551 314 565 q 442 538 413 538 q 493 600 475 538 l 560 582 q 419 457 515 457 q 347 474 393 457 q 272 492 300 492 q 222 481 251 492 q 181 454 192 469 q 404 393 335 428 q 442 319 453 368 l 399 115 m 188 244 q 181 273 190 261 q 156 285 172 285 q 124 273 139 285 q 107 244 110 261 q 113 216 103 228 q 139 204 122 204 q 169 216 156 204 q 188 244 183 228 z "},"":{"ha":0,"x_min":-565,"x_max":-118,"o":"m -128 625 q -431 681 -287 681 q -565 672 -496 681 q -322 858 -508 858 q -167 794 -215 858 q -128 625 -118 729 m -199 707 q -235 772 -200 742 q -324 803 -271 803 q -414 783 -374 803 q -471 729 -454 763 q -396 735 -446 735 q -199 707 -293 735 z "},"":{"ha":0,"x_min":-565,"x_max":-72,"o":"m -128 625 q -431 681 -287 681 q -565 672 -496 681 q -322 858 -508 858 q -175 804 -224 858 l -156 900 l -72 900 l -126 644 q -128 625 -126 635 m -199 707 q -235 772 -200 742 q -324 803 -271 803 q -414 783 -374 803 q -471 729 -454 763 q -396 735 -446 735 q -199 707 -293 735 z "},"":{"ha":0,"x_min":-565,"x_max":-61,"o":"m -199 707 q -235 772 -200 742 q -324 803 -271 803 q -414 783 -374 803 q -471 729 -454 763 q -396 735 -446 735 q -199 707 -293 735 m -111 831 q -117 859 -108 847 q -142 871 -126 871 q -172 859 -157 871 q -190 831 -187 847 q -184 803 -194 814 q -158 792 -174 792 q -129 803 -143 792 q -111 831 -115 814 m -68 831 q -95 781 -75 803 q -143 751 -115 758 q -128 625 -121 697 q -431 681 -287 681 q -565 672 -496 681 q -322 858 -508 858 q -229 842 -268 858 q -192 893 -218 872 q -133 914 -165 914 q -80 890 -99 914 q -68 831 -61 865 z "},"":{"ha":0,"x_min":-565,"x_max":-72,"o":"m -128 625 q -431 681 -287 681 q -565 672 -496 681 q -322 858 -508 858 q -285 856 -301 858 l -275 900 l -212 900 l -225 842 q -175 804 -197 829 l -156 900 l -72 900 l -126 644 l -128 625 m -199 707 q -235 772 -200 742 q -324 803 -271 803 q -414 783 -374 803 q -471 729 -454 763 q -396 735 -446 735 q -199 707 -293 735 z "},"":{"ha":0,"x_min":-247,"x_max":-119,"o":"m -161 644 l -247 644 l -206 840 l -119 840 l -161 644 z "},"":{"ha":0,"x_min":-383,"x_max":11,"o":"m 11 872 q -41 758 -7 804 q -120 682 -75 711 q -222 640 -165 653 q -342 626 -278 626 l -383 626 l -372 679 q -322 698 -343 681 q -293 732 -301 715 q -337 763 -322 739 q -344 819 -351 788 q -307 879 -337 856 q -242 903 -276 903 q -184 878 -201 903 q -175 814 -167 853 q -210 742 -182 779 q -261 685 -237 706 q -140 751 -192 699 q -69 872 -87 803 l 11 872 m -228 817 q -231 842 -224 832 q -254 851 -239 851 q -280 842 -268 851 q -296 817 -292 832 q -291 793 -299 803 q -269 783 -283 783 q -242 793 -254 783 q -228 817 -231 803 z "},"":{"ha":0,"x_min":-465,"x_max":11,"o":"m 11 874 q -267 636 -44 636 l -257 681 q -181 771 -193 710 q -211 826 -171 815 l -268 779 l -306 831 q -333 817 -318 828 q -357 797 -349 807 q -301 773 -321 797 q -289 713 -282 749 q -327 654 -297 678 q -390 631 -357 631 q -445 653 -425 631 q -457 718 -465 676 q -437 774 -450 746 q -403 824 -425 801 q -351 864 -382 847 q -279 885 -321 881 l -253 844 l -210 885 q -138 853 -161 883 q -125 775 -115 822 q -158 700 -133 732 q -93 765 -122 719 q -51 874 -64 811 l 11 874 m -336 713 q -342 740 -333 728 q -367 751 -351 751 q -396 740 -382 751 q -412 713 -410 728 q -407 686 -417 697 q -382 675 -397 675 q -353 686 -367 675 q -336 713 -340 697 z "},"":{"ha":0,"x_min":-347,"x_max":-100,"o":"m -111 714 l -190 714 l -206 644 l -283 644 l -268 714 l -347 714 l -336 771 l -257 771 l -242 838 l -164 838 l -179 771 l -100 771 l -111 714 z "},"":{"ha":0,"x_min":-321,"x_max":-14,"o":"m -14 926 q -69 842 -32 868 q -164 801 -107 817 q -135 769 -144 790 q -132 721 -126 747 q -172 657 -140 683 q -242 631 -204 631 q -300 657 -279 631 q -312 722 -321 683 q -182 851 -292 822 q -100 890 -121 867 q -76 926 -79 914 l -14 926 m -182 721 q -188 748 -179 736 q -212 760 -197 760 q -242 748 -228 760 q -260 721 -257 736 q -254 694 -264 706 q -229 682 -244 682 q -200 694 -214 682 q -182 721 -186 706 z "},"":{"ha":0,"x_min":-81,"x_max":46,"o":"m 4 644 l -81 644 l -39 840 l 46 840 l 4 644 z "},"":{"ha":0,"x_min":-274,"x_max":140,"o":"m 140 885 q 75 761 111 811 q -6 681 39 711 q -105 639 -50 651 q -228 626 -160 626 l -274 626 l -261 682 q -210 701 -233 683 q -178 738 -187 719 q -226 768 -211 743 q -233 829 -240 793 q -192 892 -225 867 q -124 917 -160 917 q -64 890 -82 917 q -54 824 -46 864 q -91 746 -64 783 q -143 688 -118 708 q -17 755 -71 700 q 57 885 38 810 l 140 885 m -108 826 q -114 852 -106 842 q -137 863 -122 863 q -165 852 -153 863 q -179 826 -176 842 q -175 801 -182 811 q -153 790 -168 790 q -124 801 -137 790 q -108 826 -111 811 z "},"":{"ha":0,"x_min":-382,"x_max":94,"o":"m 94 874 q -183 636 38 636 l -174 681 q -97 771 -110 710 q -128 826 -87 815 l -185 779 l -222 831 q -250 817 -235 828 q -274 797 -265 807 q -218 773 -237 797 q -206 713 -199 749 q -244 654 -214 678 q -307 631 -274 631 q -362 653 -342 631 q -374 718 -382 676 q -354 774 -367 746 q -320 824 -342 801 q -268 864 -299 847 q -196 885 -237 881 l -169 844 l -126 885 q -55 853 -78 883 q -42 775 -32 822 q -75 700 -50 732 q -10 765 -39 719 q 31 874 18 811 l 94 874 m -253 713 q -259 740 -250 728 q -283 751 -268 751 q -312 740 -299 751 q -329 713 -326 728 q -324 686 -333 697 q -299 675 -314 675 q -270 686 -283 675 q -253 713 -257 697 z "},"":{"ha":0,"x_min":-140,"x_max":106,"o":"m 94 714 l 15 714 l 0 644 l -76 644 l -61 714 l -140 714 l -129 771 l -50 771 l -35 838 l 42 838 l 26 771 l 106 771 l 94 714 z "},"":{"ha":0,"x_min":-185,"x_max":121,"o":"m 121 926 q 65 842 103 868 q -28 801 28 817 q 0 769 -8 790 q 3 721 8 747 q -36 657 -4 683 q -106 631 -68 631 q -164 657 -143 631 q -176 722 -185 683 q -46 851 -156 822 q 35 890 14 867 q 58 926 56 914 l 121 926 m -46 721 q -52 748 -43 736 q -76 760 -61 760 q -106 748 -92 760 q -124 721 -121 736 q -118 694 -128 706 q -93 682 -108 682 q -64 694 -78 682 q -46 721 -50 706 z "},"":{"ha":785,"x_min":19,"x_max":814,"o":"m 679 131 q 603 22 665 61 q 478 -11 549 -11 q 368 22 406 -11 q 339 131 325 60 l 390 368 q 375 456 401 422 q 299 490 349 490 q 163 421 214 490 q 240 358 219 410 q 149 258 161 319 l 135 193 q 163 199 146 199 q 229 169 206 199 q 243 94 253 139 q 197 19 233 50 q 115 -11 160 -11 q 44 21 69 -11 q 29 101 19 53 l 64 264 q 140 356 76 322 q 58 372 111 379 q 153 514 81 458 q 310 565 221 565 q 449 513 403 565 q 476 367 496 460 l 424 118 q 439 76 417 89 q 494 63 461 63 q 556 76 526 63 q 592 118 585 89 l 672 500 q 738 601 689 578 l 814 569 q 751 468 768 549 l 679 131 m 188 93 q 181 126 192 113 q 150 140 169 140 q 114 126 131 140 q 93 93 97 113 q 100 60 89 74 q 131 46 111 46 q 167 60 150 46 q 188 93 183 74 z "},"":{"ha":0,"x_min":-403,"x_max":53,"o":"m 53 893 q -244 663 -31 663 q -365 697 -328 663 q -392 783 -403 731 q -349 851 -382 824 q -275 879 -315 879 q -211 851 -232 879 q -199 783 -190 822 q -231 728 -206 746 q -28 893 -85 733 l 53 893 m -254 783 q -260 814 -250 801 q -287 826 -269 826 q -320 814 -306 826 q -339 783 -335 801 q -333 753 -342 765 q -306 742 -324 742 q -272 753 -287 742 q -254 783 -257 765 z "},"":{"ha":0,"x_min":-361,"x_max":-106,"o":"m -117 763 q -168 680 -126 714 q -258 646 -210 646 q -335 680 -308 646 q -351 763 -361 714 q -299 846 -340 811 q -208 881 -257 881 q -133 847 -160 881 q -117 763 -106 813 m -178 763 q -185 803 -172 786 q -221 819 -197 819 q -265 803 -244 819 q -290 763 -285 786 q -281 723 -294 739 q -244 707 -268 707 q -201 723 -221 707 q -178 763 -182 739 z "},"":{"ha":0,"x_min":-472,"x_max":-44,"o":"m -101 724 q -133 673 -107 694 q -189 651 -158 651 q -332 710 -257 651 q -377 683 -351 704 q -410 644 -403 661 q -458 763 -472 693 q -397 847 -447 817 q -294 875 -354 875 l -200 875 q -118 936 -132 875 l -111 968 l -44 968 l -51 938 q -108 850 -64 881 q -210 819 -151 819 l -311 819 q -355 805 -333 819 q -381 767 -376 790 q -381 731 -386 744 q -310 765 -353 763 q -242 729 -283 744 q -210 776 -236 757 q -158 796 -185 796 q -111 774 -128 796 q -101 724 -94 753 m -143 724 q -147 745 -140 736 q -167 754 -154 754 q -190 745 -179 754 q -204 724 -201 736 q -199 702 -207 711 q -179 693 -192 693 q -156 702 -167 693 q -143 724 -146 711 z "},"":{"ha":0,"x_min":-147,"x_max":-29,"o":"m -64 940 l -147 940 l -112 1099 l -29 1099 l -64 940 z "},"":{"ha":0,"x_min":-293,"x_max":83,"o":"m 83 1160 q -47 977 31 1028 q -254 926 -125 926 l -293 926 l -283 972 q -207 1013 -226 976 q -260 1094 -274 1031 q -224 1150 -253 1128 q -162 1172 -196 1172 q -108 1149 -125 1172 q -100 1090 -92 1126 q -185 975 -111 1036 q -60 1040 -114 989 q 11 1160 -7 1090 l 83 1160 m -144 1092 q -150 1117 -142 1107 q -174 1128 -158 1128 q -201 1117 -189 1128 q -217 1092 -214 1107 q -212 1066 -221 1076 q -189 1056 -204 1056 q -161 1066 -174 1056 q -144 1092 -149 1076 z "},"":{"ha":0,"x_min":-343,"x_max":96,"o":"m 96 1151 q -161 933 44 933 l -151 974 q -81 1057 -92 1000 q -110 1108 -72 1097 l -162 1064 l -196 1111 q -244 1081 -221 1106 q -193 1058 -211 1081 q -182 1003 -175 1036 q -216 950 -189 972 q -275 928 -243 928 q -326 949 -308 928 q -335 1008 -343 971 q -316 1058 -329 1033 q -282 1106 -303 1083 q -233 1142 -261 1128 q -172 1161 -206 1157 l -147 1125 l -108 1161 q -43 1132 -65 1160 q -29 1061 -21 1104 q -61 992 -37 1022 q 39 1151 13 1032 l 96 1151 m -225 1003 q -230 1028 -222 1018 q -253 1039 -237 1039 q -281 1028 -268 1039 q -296 1003 -293 1018 q -290 978 -299 988 q -267 968 -282 968 q -240 978 -251 968 q -225 1003 -228 988 z "},"":{"ha":0,"x_min":-196,"x_max":29,"o":"m 18 1001 l -53 1001 l -67 940 l -143 940 l -129 1001 l -196 1001 l -185 1058 l -118 1058 l -106 1117 l -29 1117 l -42 1058 l 29 1058 l 18 1001 z "},"":{"ha":0,"x_min":-242,"x_max":39,"o":"m 39 1160 q -11 1082 24 1108 q -99 1044 -39 1060 q -68 971 -57 1022 q -105 912 -75 936 q -169 888 -135 888 q -223 913 -204 888 q -235 972 -242 938 q -115 1090 -215 1060 q -54 1113 -69 1104 q -17 1160 -24 1129 l 39 1160 m -115 971 q -119 997 -112 986 q -142 1007 -126 1007 q -170 997 -157 1007 q -186 971 -183 986 q -181 946 -189 956 q -157 936 -172 936 q -130 946 -142 936 q -115 971 -118 956 z "},"":{"ha":0,"x_min":-401,"x_max":-214,"o":"m -269 -426 q -275 -400 -267 -411 q -299 -389 -283 -389 q -328 -400 -314 -389 q -346 -426 -343 -411 q -340 -453 -349 -442 q -315 -465 -331 -465 q -286 -453 -300 -465 q -269 -426 -272 -442 m -250 -565 q -315 -668 -267 -644 l -376 -633 q -326 -560 -342 -610 l -315 -511 l -328 -512 q -382 -488 -362 -512 q -394 -431 -401 -464 q -357 -371 -386 -396 q -292 -346 -328 -346 q -235 -368 -257 -346 q -222 -429 -214 -390 l -250 -565 z "},"":{"ha":0,"x_min":-568,"x_max":-179,"o":"m -246 -544 q -300 -614 -256 -590 q -392 -635 -337 -635 q -469 -615 -439 -635 q -496 -554 -504 -593 l -486 -512 l -494 -512 q -549 -488 -529 -512 q -561 -431 -568 -464 q -524 -371 -553 -396 q -458 -346 -494 -346 q -402 -368 -424 -346 q -389 -429 -381 -390 l -415 -554 q -378 -575 -419 -575 q -329 -554 -333 -575 l -306 -443 q -240 -340 -289 -364 l -179 -375 q -226 -449 -214 -399 l -246 -544 m -436 -426 q -442 -400 -433 -411 q -465 -389 -450 -389 q -495 -400 -481 -389 q -512 -426 -510 -411 q -506 -453 -515 -442 q -482 -465 -497 -465 q -453 -453 -467 -465 q -436 -426 -439 -442 z "},"":{"ha":0,"x_min":-308,"x_max":-203,"o":"m -207 -397 q -229 -431 -211 -417 q -267 -446 -247 -446 q -297 -431 -286 -446 q -304 -397 -308 -417 q -283 -363 -300 -378 q -246 -349 -265 -349 q -215 -363 -226 -349 q -207 -397 -203 -378 z "},"":{"ha":590,"x_min":-89,"x_max":554,"o":"m 72 -190 q 35 -183 60 -183 q -15 -221 -8 -183 q 11 -256 -24 -256 q 72 -190 58 -256 m 122 94 q 115 128 126 114 q 85 142 104 142 q 49 128 65 142 q 28 94 32 114 q 35 61 24 75 q 65 47 46 47 q 101 61 85 47 q 122 94 118 75 m 389 -321 l 311 -321 l 260 -226 l 171 -321 l 126 -233 q 76 -299 113 -272 q 4 -326 40 -326 q -65 -297 -40 -326 q -81 -222 -89 -267 q 58 -119 -58 -119 q 96 -124 85 -119 q 185 -43 122 -72 l 221 -101 q 151 -158 167 -115 l 192 -225 l 276 -140 l 326 -215 l 450 368 q 432 458 461 424 q 347 492 403 492 q 208 421 263 492 q 288 358 265 410 q 231 324 246 338 q 200 264 208 301 q 188 176 193 233 q 178 94 183 118 q 132 19 168 50 q 53 -11 96 -11 q -15 19 8 -11 q -29 94 -39 50 q 17 168 -19 138 q 94 199 53 199 q 114 194 111 199 l 124 281 q 188 356 135 329 q 106 372 156 379 q 200 514 126 458 q 361 565 271 565 q 506 511 458 565 q 536 367 554 457 l 389 -321 z "},"":{"ha":660,"x_min":40,"x_max":729,"o":"m 518 0 l 431 0 l 351 247 l 171 0 l 82 0 l 157 357 q 133 354 143 354 q 65 385 89 354 q 50 461 40 417 q 97 535 60 504 q 178 565 133 565 q 249 533 225 565 q 264 453 274 501 l 217 231 q 171 94 207 188 q 215 161 190 128 l 333 307 l 394 307 l 451 161 q 468 94 463 128 q 481 231 471 188 l 507 357 q 483 354 493 354 q 415 385 439 354 q 400 461 390 417 q 447 535 410 504 q 528 565 483 565 q 572 554 553 565 q 667 621 617 600 l 729 579 q 613 503 649 544 q 614 453 619 481 l 518 0 m 553 460 q 546 493 557 479 q 515 507 535 507 q 479 493 496 507 q 458 460 463 479 q 465 426 454 440 q 496 413 476 413 q 532 426 515 413 q 553 460 549 440 m 203 460 q 196 493 207 479 q 165 507 185 507 q 129 493 146 507 q 108 460 113 479 q 115 426 104 440 q 146 413 126 413 q 182 426 165 413 q 203 460 199 440 z "},"ﬁ":{"ha":563,"x_min":-193,"x_max":557,"o":"m 436 0 l 349 0 l 433 400 l 214 400 l 135 29 q -101 -208 83 -208 q -193 -178 -160 -208 l -154 -112 q -83 -133 -111 -133 q 47 29 13 -133 l 126 400 l 47 400 l 63 472 l 143 472 q 240 647 167 585 q 408 710 313 710 q 557 635 508 710 l 497 572 q 390 635 457 635 q 294 593 340 635 q 229 472 244 547 l 536 472 l 436 0 z "},"ﬂ":{"ha":632,"x_min":-193,"x_max":579,"o":"m 579 68 l 553 -11 q 400 243 347 -1 l 475 600 q 390 635 442 635 q 294 593 340 635 q 229 472 244 547 l 393 472 l 378 400 l 214 400 l 135 29 q -101 -208 83 -208 q -193 -178 -160 -208 l -154 -112 q -83 -133 -111 -133 q 47 29 13 -133 l 126 400 l 47 400 l 63 472 l 143 472 q 240 647 167 585 q 408 710 313 710 q 568 621 519 710 l 492 263 q 493 111 468 156 q 579 68 514 74 z "},"Ạ":{"ha":626,"x_min":-62,"x_max":567,"o":"m 567 0 l 471 0 l 429 221 l 164 221 l 32 0 l -62 0 l 357 671 l 432 671 l 567 0 m 413 296 l 374 571 l 213 296 l 413 296 m 10661 -133 q 10632 -181 10656 -161 q 10582 -200 10608 -200 q 10541 -181 10556 -200 q 10532 -133 10526 -161 q 10560 -86 10538 -106 q 10610 -67 10583 -67 q 10651 -86 10636 -67 q 10661 -133 10667 -106 z "},"ạ":{"ha":599,"x_min":19,"x_max":753,"o":"m 508 6 l 421 -11 q 400 69 404 11 q 219 -12 332 -12 q 76 40 132 -12 q 19 181 19 93 q 105 398 19 306 q 315 490 190 490 q 551 403 469 490 l 493 126 q 508 6 482 60 m 422 197 l 457 364 q 307 418 403 418 q 165 351 225 418 q 104 193 104 283 q 238 64 104 64 q 357 103 303 64 q 422 197 411 143 m 10669 -133 q 10640 -181 10664 -161 q 10590 -200 10617 -200 q 10549 -181 10564 -200 q 10540 -133 10535 -161 q 10569 -86 10546 -106 q 10618 -67 10592 -67 q 10660 -86 10644 -67 q 10669 -133 10675 -106 z "},"Ả":{"ha":626,"x_min":-62,"x_max":567,"o":"m 567 0 l 471 0 l 429 221 l 164 221 l 32 0 l -62 0 l 357 671 l 432 671 l 567 0 m 413 296 l 374 571 l 213 296 l 413 296 m 13033 4200 q 13012 4158 13028 4176 q 12978 4122 12996 4139 q 12946 4090 12961 4106 q 12926 4056 12931 4074 l 12864 4056 q 12885 4096 12868 4078 q 12920 4130 12901 4114 q 12954 4161 12939 4146 q 12974 4193 12969 4176 q 12970 4224 12979 4217 q 12943 4232 12961 4232 q 12898 4217 12919 4232 q 12869 4193 12876 4201 l 12840 4224 q 12886 4266 12856 4246 q 12961 4286 12917 4286 q 13022 4265 13001 4286 q 13033 4200 13043 4244 z "},"ả":{"ha":599,"x_min":19,"x_max":1044,"o":"m 508 6 l 421 -11 q 400 69 404 11 q 219 -12 332 -12 q 76 40 132 -12 q 19 181 19 93 q 105 398 19 306 q 315 490 190 490 q 551 403 469 490 l 493 126 q 508 6 482 60 m 422 197 l 457 364 q 307 418 403 418 q 165 351 225 418 q 104 193 104 283 q 238 64 104 64 q 357 103 303 64 q 422 197 411 143 m 13008 4011 q 12987 3969 13003 3988 q 12953 3933 12971 3950 q 12921 3901 12936 3917 q 12901 3867 12906 3885 l 12839 3867 q 12860 3907 12843 3889 q 12895 3941 12876 3925 q 12929 3972 12914 3957 q 12949 4004 12944 3988 q 12945 4035 12954 4028 q 12918 4043 12936 4043 q 12873 4028 12894 4043 q 12844 4004 12851 4013 l 12815 4035 q 12861 4077 12831 4057 q 12936 4097 12892 4097 q 12997 4076 12976 4097 q 13008 4011 13018 4056 z "},"Ấ":{"ha":626,"x_min":-62,"x_max":6497,"o":"m 567 0 l 471 0 l 429 221 l 164 221 l 32 0 l -62 0 l 357 671 l 432 671 l 567 0 m 413 296 l 374 571 l 213 296 l 413 296 m 1871 1668 l 1796 1668 l 1760 1767 l 1683 1668 l 1607 1668 l 1750 1828 l 1799 1828 l 1871 1668 m 15222 4546 l 15296 4521 l 15150 4386 l 15083 4386 l 15222 4546 z "},"ấ":{"ha":599,"x_min":19,"x_max":7221,"o":"m 508 6 l 421 -11 q 400 69 404 11 q 219 -12 332 -12 q 76 40 132 -12 q 19 181 19 93 q 105 398 19 306 q 315 490 190 490 q 551 403 469 490 l 493 126 q 508 6 482 60 m 422 197 l 457 364 q 307 418 403 418 q 165 351 225 418 q 104 193 104 283 q 238 64 104 64 q 357 103 303 64 q 422 197 411 143 m 1828 1479 l 1753 1479 l 1717 1578 l 1640 1479 l 1564 1479 l 1707 1639 l 1756 1639 l 1828 1479 m 15186 4368 l 15260 4343 l 15114 4208 l 15047 4208 l 15186 4368 z "},"Ầ":{"ha":626,"x_min":-62,"x_max":5142,"o":"m 567 0 l 471 0 l 429 221 l 164 221 l 32 0 l -62 0 l 357 671 l 432 671 l 567 0 m 413 296 l 374 571 l 213 296 l 413 296 m 1871 1668 l 1796 1668 l 1760 1767 l 1683 1668 l 1607 1668 l 1750 1828 l 1799 1828 l 1871 1668 m 12971 4176 l 12904 4176 l 12817 4311 l 12901 4336 l 12971 4176 z "},"ầ":{"ha":599,"x_min":19,"x_max":5769,"o":"m 508 6 l 421 -11 q 400 69 404 11 q 219 -12 332 -12 q 76 40 132 -12 q 19 181 19 93 q 105 398 19 306 q 315 490 190 490 q 551 403 469 490 l 493 126 q 508 6 482 60 m 422 197 l 457 364 q 307 418 403 418 q 165 351 225 418 q 104 193 104 283 q 238 64 104 64 q 357 103 303 64 q 422 197 411 143 m 1828 1479 l 1753 1479 l 1717 1578 l 1640 1479 l 1564 1479 l 1707 1639 l 1756 1639 l 1828 1479 m 12904 3999 l 12838 3999 l 12750 4133 l 12835 4158 l 12904 3999 z "},"Ẩ":{"ha":626,"x_min":-62,"x_max":2592,"o":"m 567 0 l 471 0 l 429 221 l 164 221 l 32 0 l -62 0 l 357 671 l 432 671 l 567 0 m 413 296 l 374 571 l 213 296 l 413 296 m 1872 1668 l 1797 1668 l 1761 1767 l 1685 1668 l 1608 1668 l 1751 1828 l 1800 1828 l 1872 1668 m 13224 4322 q 13202 4280 13218 4299 q 13169 4244 13186 4261 q 13136 4212 13151 4228 q 13117 4178 13121 4196 l 13054 4178 q 13075 4218 13058 4200 q 13110 4252 13092 4236 q 13144 4283 13129 4268 q 13164 4315 13160 4299 q 13160 4347 13169 4339 q 13133 4354 13151 4354 q 13088 4339 13110 4354 q 13060 4315 13067 4324 l 13031 4346 q 13076 4388 13046 4368 q 13151 4408 13107 4408 q 13213 4388 13192 4408 q 13224 4322 13233 4367 z "},"ẩ":{"ha":599,"x_min":19,"x_max":2750,"o":"m 508 6 l 421 -11 q 400 69 404 11 q 219 -12 332 -12 q 76 40 132 -12 q 19 181 19 93 q 105 398 19 306 q 315 490 190 490 q 551 403 469 490 l 493 126 q 508 6 482 60 m 422 197 l 457 364 q 307 418 403 418 q 165 351 225 418 q 104 193 104 283 q 238 64 104 64 q 357 103 303 64 q 422 197 411 143 m 1828 1479 l 1753 1479 l 1717 1578 l 1640 1479 l 1564 1479 l 1707 1639 l 1756 1639 l 1828 1479 m 13169 4142 q 13148 4099 13164 4118 q 13115 4064 13132 4081 q 13082 4031 13097 4047 q 13063 3997 13067 4015 l 13000 3997 q 13021 4038 13004 4019 q 13056 4072 13038 4056 q 13090 4103 13075 4088 q 13110 4135 13106 4118 q 13106 4166 13115 4158 q 13079 4174 13097 4174 q 13034 4158 13056 4174 q 13006 4135 13013 4143 l 12976 4165 q 13022 4208 12992 4188 q 13097 4228 13053 4228 q 13158 4207 13138 4228 q 13169 4142 13179 4186 z "},"Ẫ":{"ha":626,"x_min":-62,"x_max":3682,"o":"m 567 0 l 471 0 l 429 221 l 164 221 l 32 0 l -62 0 l 357 671 l 432 671 l 567 0 m 413 296 l 374 571 l 213 296 l 413 296 m 1871 1668 l 1796 1668 l 1760 1767 l 1683 1668 l 1607 1668 l 1750 1828 l 1799 1828 l 1871 1668 m 13644 5144 q 13608 5067 13633 5096 q 13542 5039 13582 5039 q 13516 5045 13531 5039 q 13486 5059 13501 5051 q 13456 5073 13471 5067 q 13432 5079 13442 5079 q 13416 5069 13421 5079 q 13408 5046 13411 5058 l 13347 5046 q 13383 5116 13357 5088 q 13446 5144 13408 5144 q 13474 5139 13458 5144 q 13502 5126 13489 5133 q 13529 5113 13515 5118 q 13553 5107 13543 5107 q 13586 5144 13579 5107 l 13644 5144 z "},"ẫ":{"ha":599,"x_min":19,"x_max":4214,"o":"m 508 6 l 421 -11 q 400 69 404 11 q 219 -12 332 -12 q 76 40 132 -12 q 19 181 19 93 q 105 398 19 306 q 315 490 190 490 q 551 403 469 490 l 493 126 q 508 6 482 60 m 422 197 l 457 364 q 307 418 403 418 q 165 351 225 418 q 104 193 104 283 q 238 64 104 64 q 357 103 303 64 q 422 197 411 143 m 1828 1479 l 1753 1479 l 1717 1578 l 1640 1479 l 1564 1479 l 1707 1639 l 1756 1639 l 1828 1479 m 13600 4939 q 13563 4862 13589 4890 q 13497 4833 13538 4833 q 13472 4840 13486 4833 q 13442 4853 13457 4846 q 13412 4867 13426 4861 q 13388 4874 13397 4874 q 13372 4863 13376 4874 q 13364 4840 13367 4853 l 13303 4840 q 13338 4910 13313 4882 q 13401 4939 13364 4939 q 13429 4933 13414 4939 q 13458 4920 13444 4928 q 13485 4907 13471 4913 q 13508 4901 13499 4901 q 13542 4939 13535 4901 l 13600 4939 z "},"Ậ":{"ha":626,"x_min":-62,"x_max":3311,"o":"m 567 0 l 471 0 l 429 221 l 164 221 l 32 0 l -62 0 l 357 671 l 432 671 l 567 0 m 413 296 l 374 571 l 213 296 l 413 296 m 10661 -133 q 10632 -181 10656 -161 q 10582 -200 10608 -200 q 10541 -181 10556 -200 q 10532 -133 10526 -161 q 10560 -86 10538 -106 q 10610 -67 10583 -67 q 10651 -86 10636 -67 q 10661 -133 10667 -106 m 1871 1668 l 1796 1668 l 1760 1767 l 1683 1668 l 1607 1668 l 1750 1828 l 1799 1828 l 1871 1668 z "},"ậ":{"ha":599,"x_min":19,"x_max":3469,"o":"m 508 6 l 421 -11 q 400 69 404 11 q 219 -12 332 -12 q 76 40 132 -12 q 19 181 19 93 q 105 398 19 306 q 315 490 190 490 q 551 403 469 490 l 493 126 q 508 6 482 60 m 422 197 l 457 364 q 307 418 403 418 q 165 351 225 418 q 104 193 104 283 q 238 64 104 64 q 357 103 303 64 q 422 197 411 143 m 10669 -133 q 10640 -181 10664 -161 q 10590 -200 10617 -200 q 10549 -181 10564 -200 q 10540 -133 10535 -161 q 10569 -86 10546 -106 q 10618 -67 10592 -67 q 10660 -86 10644 -67 q 10669 -133 10675 -106 m 1828 1479 l 1753 1479 l 1717 1578 l 1640 1479 l 1564 1479 l 1707 1639 l 1756 1639 l 1828 1479 z "},"Ắ":{"ha":626,"x_min":-62,"x_max":7860,"o":"m 567 0 l 471 0 l 429 221 l 164 221 l 32 0 l -62 0 l 357 671 l 432 671 l 567 0 m 413 296 l 374 571 l 213 296 l 413 296 m 600 871 q 519 753 569 792 q 403 715 469 715 q 303 753 336 715 q 272 871 269 792 l 347 871 q 363 809 347 836 q 417 782 378 782 q 484 809 456 782 q 526 871 513 836 l 600 871 m 15101 4604 l 15175 4579 l 15029 4444 l 14963 4444 l 15101 4604 z "},"ắ":{"ha":599,"x_min":19,"x_max":8472,"o":"m 508 6 l 421 -11 q 400 69 404 11 q 219 -12 332 -12 q 76 40 132 -12 q 19 181 19 93 q 105 398 19 306 q 315 490 190 490 q 551 403 469 490 l 493 126 q 508 6 482 60 m 422 197 l 457 364 q 307 418 403 418 q 165 351 225 418 q 104 193 104 283 q 238 64 104 64 q 357 103 303 64 q 422 197 411 143 m 574 682 q 493 565 543 603 q 376 526 443 526 q 276 565 310 526 q 246 682 243 603 l 321 682 q 336 620 321 647 q 390 593 351 593 q 458 620 429 593 q 500 682 486 647 l 574 682 m 15075 4415 l 15149 4390 l 15003 4256 l 14936 4256 l 15075 4415 z "},"Ằ":{"ha":626,"x_min":-62,"x_max":6268,"o":"m 567 0 l 471 0 l 429 221 l 164 221 l 32 0 l -62 0 l 357 671 l 432 671 l 567 0 m 413 296 l 374 571 l 213 296 l 413 296 m 600 871 q 519 753 569 792 q 403 715 469 715 q 303 753 336 715 q 272 871 269 792 l 347 871 q 363 809 347 836 q 417 782 378 782 q 484 809 456 782 q 526 871 513 836 l 600 871 m 12775 4219 l 12708 4219 l 12621 4354 l 12706 4379 l 12775 4219 z "},"ằ":{"ha":599,"x_min":19,"x_max":6742,"o":"m 508 6 l 421 -11 q 400 69 404 11 q 219 -12 332 -12 q 76 40 132 -12 q 19 181 19 93 q 105 398 19 306 q 315 490 190 490 q 551 403 469 490 l 493 126 q 508 6 482 60 m 422 197 l 457 364 q 307 418 403 418 q 165 351 225 418 q 104 193 104 283 q 238 64 104 64 q 357 103 303 64 q 422 197 411 143 m 574 682 q 493 565 543 603 q 376 526 443 526 q 276 565 310 526 q 246 682 243 603 l 321 682 q 336 620 321 647 q 390 593 351 593 q 458 620 429 593 q 500 682 486 647 l 574 682 m 12750 4033 l 12683 4033 l 12596 4168 l 12681 4193 l 12750 4033 z "},"Ẳ":{"ha":626,"x_min":-62,"x_max":2960,"o":"m 567 0 l 471 0 l 429 221 l 164 221 l 32 0 l -62 0 l 357 671 l 432 671 l 567 0 m 413 296 l 374 571 l 213 296 l 413 296 m 600 871 q 519 753 569 792 q 403 715 469 715 q 303 753 336 715 q 272 871 269 792 l 347 871 q 363 809 347 836 q 417 782 378 782 q 484 809 456 782 q 526 871 513 836 l 600 871 m 13064 4369 q 13042 4327 13058 4346 q 13009 4292 13026 4308 q 12976 4259 12992 4275 q 12957 4225 12961 4243 l 12894 4225 q 12915 4265 12899 4247 q 12951 4299 12932 4283 q 12985 4331 12969 4315 q 13004 4363 13000 4346 q 13001 4394 13010 4386 q 12974 4401 12992 4401 q 12928 4386 12950 4401 q 12900 4363 12907 4371 l 12871 4393 q 12917 4435 12886 4415 q 12992 4456 12947 4456 q 13053 4435 13032 4456 q 13064 4369 13074 4414 z "},"ẳ":{"ha":599,"x_min":19,"x_max":3488,"o":"m 508 6 l 421 -11 q 400 69 404 11 q 219 -12 332 -12 q 76 40 132 -12 q 19 181 19 93 q 105 398 19 306 q 315 490 190 490 q 551 403 469 490 l 493 126 q 508 6 482 60 m 422 197 l 457 364 q 307 418 403 418 q 165 351 225 418 q 104 193 104 283 q 238 64 104 64 q 357 103 303 64 q 422 197 411 143 m 574 682 q 493 565 543 603 q 376 526 443 526 q 276 565 310 526 q 246 682 243 603 l 321 682 q 336 620 321 647 q 390 593 351 593 q 458 620 429 593 q 500 682 486 647 l 574 682 m 13042 4172 q 13020 4130 13036 4149 q 12987 4094 13004 4111 q 12954 4062 12969 4078 q 12935 4028 12939 4046 l 12872 4028 q 12893 4068 12876 4050 q 12928 4102 12910 4086 q 12963 4133 12947 4118 q 12982 4165 12978 4149 q 12978 4197 12988 4189 q 12951 4204 12969 4204 q 12906 4189 12928 4204 q 12878 4165 12885 4174 l 12849 4196 q 12894 4238 12864 4218 q 12969 4258 12925 4258 q 13031 4238 13010 4258 q 13042 4172 13051 4217 z "},"Ẵ":{"ha":626,"x_min":-62,"x_max":4792,"o":"m 567 0 l 471 0 l 429 221 l 164 221 l 32 0 l -62 0 l 357 671 l 432 671 l 567 0 m 413 296 l 374 571 l 213 296 l 413 296 m 600 871 q 519 753 569 792 q 403 715 469 715 q 303 753 336 715 q 272 871 269 792 l 347 871 q 363 809 347 836 q 417 782 378 782 q 484 809 456 782 q 526 871 513 836 l 600 871 m 13646 5144 q 13609 5067 13635 5096 q 13543 5039 13583 5039 q 13517 5045 13532 5039 q 13488 5059 13503 5051 q 13458 5073 13472 5067 q 13433 5079 13443 5079 q 13417 5069 13422 5079 q 13410 5046 13413 5058 l 13349 5046 q 13384 5116 13358 5088 q 13447 5144 13410 5144 q 13475 5139 13460 5144 q 13503 5126 13490 5133 q 13531 5113 13517 5118 q 13554 5107 13544 5107 q 13588 5144 13581 5107 l 13646 5144 z "},"ẵ":{"ha":599,"x_min":19,"x_max":5339,"o":"m 508 6 l 421 -11 q 400 69 404 11 q 219 -12 332 -12 q 76 40 132 -12 q 19 181 19 93 q 105 398 19 306 q 315 490 190 490 q 551 403 469 490 l 493 126 q 508 6 482 60 m 422 197 l 457 364 q 307 418 403 418 q 165 351 225 418 q 104 193 104 283 q 238 64 104 64 q 357 103 303 64 q 422 197 411 143 m 574 682 q 493 565 543 603 q 376 526 443 526 q 276 565 310 526 q 246 682 243 603 l 321 682 q 336 620 321 647 q 390 593 351 593 q 458 620 429 593 q 500 682 486 647 l 574 682 m 13615 4933 q 13578 4856 13604 4885 q 13513 4828 13553 4828 q 13487 4834 13501 4828 q 13457 4848 13472 4840 q 13427 4862 13442 4856 q 13403 4868 13413 4868 q 13387 4858 13392 4868 q 13379 4835 13382 4847 l 13318 4835 q 13353 4905 13328 4876 q 13417 4933 13379 4933 q 13444 4928 13429 4933 q 13473 4915 13460 4922 q 13500 4901 13486 4907 q 13524 4896 13514 4896 q 13557 4933 13550 4896 l 13615 4933 z "},"Ặ":{"ha":626,"x_min":-62,"x_max":2115,"o":"m 567 0 l 471 0 l 429 221 l 164 221 l 32 0 l -62 0 l 357 671 l 432 671 l 567 0 m 413 296 l 374 571 l 213 296 l 413 296 m 10661 -133 q 10632 -181 10656 -161 q 10582 -200 10608 -200 q 10541 -181 10556 -200 q 10532 -133 10526 -161 q 10560 -86 10538 -106 q 10610 -67 10583 -67 q 10651 -86 10636 -67 q 10661 -133 10667 -106 m 599 871 q 518 753 568 792 q 401 715 468 715 q 301 753 335 715 q 271 871 268 792 l 346 871 q 361 809 346 836 q 415 782 376 782 q 483 809 454 782 q 525 871 511 836 l 599 871 z "},"ặ":{"ha":599,"x_min":19,"x_max":2574,"o":"m 508 6 l 421 -11 q 400 69 404 11 q 219 -12 332 -12 q 76 40 132 -12 q 19 181 19 93 q 105 398 19 306 q 315 490 190 490 q 551 403 469 490 l 493 126 q 508 6 482 60 m 422 197 l 457 364 q 307 418 403 418 q 165 351 225 418 q 104 193 104 283 q 238 64 104 64 q 357 103 303 64 q 422 197 411 143 m 10668 -133 q 10639 -181 10663 -161 q 10589 -200 10615 -200 q 10548 -181 10563 -200 q 10539 -133 10533 -161 q 10567 -86 10544 -106 q 10617 -67 10590 -67 q 10658 -86 10643 -67 q 10668 -133 10674 -106 m 565 682 q 485 565 535 603 q 368 526 435 526 q 268 565 301 526 q 238 682 235 603 l 313 682 q 328 620 313 647 q 382 593 343 593 q 449 620 421 593 q 492 682 478 647 l 565 682 z "},"Ẹ":{"ha":497,"x_min":8,"x_max":2961,"o":"m 401 0 l 8 0 l 149 661 l 542 661 l 525 586 l 219 586 l 178 386 l 450 386 l 433 311 l 161 311 l 111 75 l 417 75 l 401 0 m 10597 -133 q 10568 -181 10592 -161 q 10518 -200 10544 -200 q 10477 -181 10492 -200 q 10468 -133 10463 -161 q 10497 -86 10474 -106 q 10546 -67 10519 -67 q 10588 -86 10572 -67 q 10597 -133 10603 -106 z "},"ẹ":{"ha":543,"x_min":17,"x_max":3371,"o":"m 503 342 q 429 233 503 271 q 274 201 367 201 q 107 213 189 201 q 106 196 106 204 q 146 99 106 133 q 251 65 186 65 q 438 101 326 65 l 431 25 q 231 -12 322 -12 q 76 37 135 -12 q 17 171 17 86 q 111 397 17 304 q 332 490 206 490 q 503 342 503 490 m 428 343 q 319 418 428 418 q 203 376 263 418 q 122 275 144 335 q 256 265 161 265 q 428 343 428 265 m 10619 -133 q 10590 -181 10614 -161 q 10540 -200 10567 -200 q 10499 -181 10514 -200 q 10490 -133 10485 -161 q 10519 -86 10496 -106 q 10568 -67 10542 -67 q 10610 -86 10594 -67 q 10619 -133 10625 -106 z "},"Ẻ":{"ha":497,"x_min":8,"x_max":3946,"o":"m 401 0 l 8 0 l 149 661 l 542 661 l 525 586 l 219 586 l 178 386 l 450 386 l 433 311 l 161 311 l 111 75 l 417 75 l 401 0 m 12972 4200 q 12951 4158 12967 4176 q 12917 4122 12935 4139 q 12885 4090 12900 4106 q 12865 4056 12869 4074 l 12803 4056 q 12824 4096 12807 4078 q 12859 4130 12840 4114 q 12893 4161 12878 4146 q 12913 4193 12908 4176 q 12909 4224 12918 4217 q 12882 4232 12900 4232 q 12837 4217 12858 4232 q 12808 4193 12815 4201 l 12779 4224 q 12825 4266 12794 4246 q 12900 4286 12856 4286 q 12961 4265 12940 4286 q 12972 4200 12982 4244 z "},"ẻ":{"ha":543,"x_min":17,"x_max":4389,"o":"m 503 342 q 429 233 503 271 q 274 201 367 201 q 107 213 189 201 q 106 196 106 204 q 146 99 106 133 q 251 65 186 65 q 438 101 326 65 l 431 25 q 231 -12 322 -12 q 76 37 135 -12 q 17 171 17 86 q 111 397 17 304 q 332 490 206 490 q 503 342 503 490 m 428 343 q 319 418 428 418 q 203 376 263 418 q 122 275 144 335 q 256 265 161 265 q 428 343 428 265 m 12957 4011 q 12935 3969 12951 3988 q 12902 3933 12919 3950 q 12869 3901 12885 3917 q 12850 3867 12854 3885 l 12788 3867 q 12808 3907 12792 3889 q 12844 3941 12825 3925 q 12878 3972 12863 3957 q 12897 4004 12893 3988 q 12894 4035 12903 4028 q 12867 4043 12885 4043 q 12822 4028 12843 4043 q 12793 4004 12800 4013 l 12764 4035 q 12810 4077 12779 4057 q 12885 4097 12840 4097 q 12946 4076 12925 4097 q 12957 4011 12967 4056 z "},"Ẽ":{"ha":497,"x_min":8,"x_max":5807,"o":"m 401 0 l 8 0 l 149 661 l 542 661 l 525 586 l 219 586 l 178 386 l 450 386 l 433 311 l 161 311 l 111 75 l 417 75 l 401 0 m 13536 4928 q 13499 4851 13525 4879 q 13433 4822 13474 4822 q 13408 4828 13422 4822 q 13378 4842 13393 4835 q 13348 4856 13363 4850 q 13324 4863 13333 4863 q 13308 4852 13313 4863 q 13300 4829 13303 4842 l 13239 4829 q 13274 4899 13249 4871 q 13338 4928 13300 4928 q 13365 4922 13350 4928 q 13394 4909 13381 4917 q 13421 4896 13407 4901 q 13444 4890 13435 4890 q 13478 4928 13471 4890 l 13536 4928 z "},"ẽ":{"ha":543,"x_min":17,"x_max":6258,"o":"m 503 342 q 429 233 503 271 q 274 201 367 201 q 107 213 189 201 q 106 196 106 204 q 146 99 106 133 q 251 65 186 65 q 438 101 326 65 l 431 25 q 231 -12 322 -12 q 76 37 135 -12 q 17 171 17 86 q 111 397 17 304 q 332 490 206 490 q 503 342 503 490 m 428 343 q 319 418 428 418 q 203 376 263 418 q 122 275 144 335 q 256 265 161 265 q 428 343 428 265 m 13519 4739 q 13483 4662 13508 4690 q 13417 4633 13457 4633 q 13391 4640 13406 4633 q 13361 4653 13376 4646 q 13331 4667 13346 4661 q 13307 4674 13317 4674 q 13291 4663 13296 4674 q 13283 4640 13286 4653 l 13222 4640 q 13258 4710 13232 4682 q 13321 4739 13283 4739 q 13349 4733 13333 4739 q 13377 4720 13364 4728 q 13404 4707 13390 4713 q 13428 4701 13418 4701 q 13461 4739 13454 4701 l 13519 4739 z "},"Ế":{"ha":497,"x_min":8,"x_max":9171,"o":"m 401 0 l 8 0 l 149 661 l 542 661 l 525 586 l 219 586 l 178 386 l 450 386 l 433 311 l 161 311 l 111 75 l 417 75 l 401 0 m 1807 1668 l 1732 1668 l 1696 1767 l 1619 1668 l 1543 1668 l 1686 1828 l 1735 1828 l 1807 1668 m 15161 4567 l 15235 4542 l 15089 4407 l 15022 4407 l 15161 4567 z "},"ế":{"ha":543,"x_min":17,"x_max":9853,"o":"m 503 342 q 429 233 503 271 q 274 201 367 201 q 107 213 189 201 q 106 196 106 204 q 146 99 106 133 q 251 65 186 65 q 438 101 326 65 l 431 25 q 231 -12 322 -12 q 76 37 135 -12 q 17 171 17 86 q 111 397 17 304 q 332 490 206 490 q 503 342 503 490 m 428 343 q 319 418 428 418 q 203 376 263 418 q 122 275 144 335 q 256 265 161 265 q 428 343 428 265 m 1789 1479 l 1714 1479 l 1678 1578 l 1601 1479 l 1525 1479 l 1668 1639 l 1717 1639 l 1789 1479 m 15144 4382 l 15218 4357 l 15072 4222 l 15006 4222 l 15144 4382 z "},"Ề":{"ha":497,"x_min":8,"x_max":7350,"o":"m 401 0 l 8 0 l 149 661 l 542 661 l 525 586 l 219 586 l 178 386 l 450 386 l 433 311 l 161 311 l 111 75 l 417 75 l 401 0 m 1807 1668 l 1732 1668 l 1696 1767 l 1619 1668 l 1543 1668 l 1686 1828 l 1735 1828 l 1807 1668 m 12885 4219 l 12818 4219 l 12731 4354 l 12815 4379 l 12885 4219 z "},"ề":{"ha":543,"x_min":17,"x_max":7956,"o":"m 503 342 q 429 233 503 271 q 274 201 367 201 q 107 213 189 201 q 106 196 106 204 q 146 99 106 133 q 251 65 186 65 q 438 101 326 65 l 431 25 q 231 -12 322 -12 q 76 37 135 -12 q 17 171 17 86 q 111 397 17 304 q 332 490 206 490 q 503 342 503 490 m 428 343 q 319 418 428 418 q 203 376 263 418 q 122 275 144 335 q 256 265 161 265 q 428 343 428 265 m 1789 1479 l 1714 1479 l 1678 1578 l 1601 1479 l 1525 1479 l 1668 1639 l 1717 1639 l 1789 1479 m 12882 3997 l 12815 3997 l 12728 4132 l 12813 4157 l 12882 3997 z "},"Ể":{"ha":497,"x_min":8,"x_max":5021,"o":"m 401 0 l 8 0 l 149 661 l 542 661 l 525 586 l 219 586 l 178 386 l 450 386 l 433 311 l 161 311 l 111 75 l 417 75 l 401 0 m 1807 1668 l 1732 1668 l 1696 1767 l 1619 1668 l 1543 1668 l 1686 1828 l 1735 1828 l 1807 1668 m 13146 4321 q 13124 4278 13140 4297 q 13091 4243 13108 4260 q 13058 4210 13074 4226 q 13039 4176 13043 4194 l 12976 4176 q 12997 4217 12981 4199 q 13033 4251 13014 4235 q 13067 4282 13051 4267 q 13086 4314 13082 4297 q 13083 4345 13092 4338 q 13056 4353 13074 4353 q 13010 4338 13032 4353 q 12982 4314 12989 4322 l 12953 4344 q 12999 4387 12968 4367 q 13074 4407 13029 4407 q 13135 4386 13114 4407 q 13146 4321 13156 4365 z "},"ể":{"ha":543,"x_min":17,"x_max":5656,"o":"m 503 342 q 429 233 503 271 q 274 201 367 201 q 107 213 189 201 q 106 196 106 204 q 146 99 106 133 q 251 65 186 65 q 438 101 326 65 l 431 25 q 231 -12 322 -12 q 76 37 135 -12 q 17 171 17 86 q 111 397 17 304 q 332 490 206 490 q 503 342 503 490 m 428 343 q 319 418 428 418 q 203 376 263 418 q 122 275 144 335 q 256 265 161 265 q 428 343 428 265 m 1789 1479 l 1714 1479 l 1678 1578 l 1601 1479 l 1525 1479 l 1668 1639 l 1717 1639 l 1789 1479 m 13149 4125 q 13127 4083 13143 4101 q 13094 4047 13111 4064 q 13061 4015 13076 4031 q 13042 3981 13046 3999 l 12979 3981 q 13000 4021 12983 4003 q 13035 4055 13017 4039 q 13069 4086 13054 4071 q 13089 4118 13085 4101 q 13085 4149 13094 4142 q 13058 4157 13076 4157 q 13013 4142 13035 4157 q 12985 4118 12992 4126 l 12956 4149 q 13001 4191 12971 4171 q 13076 4211 13032 4211 q 13138 4190 13117 4211 q 13149 4125 13158 4169 z "},"Ễ":{"ha":497,"x_min":8,"x_max":6772,"o":"m 401 0 l 8 0 l 149 661 l 542 661 l 525 586 l 219 586 l 178 386 l 450 386 l 433 311 l 161 311 l 111 75 l 417 75 l 401 0 m 1807 1668 l 1732 1668 l 1696 1767 l 1619 1668 l 1543 1668 l 1686 1828 l 1735 1828 l 1807 1668 m 13582 5143 q 13545 5066 13571 5094 q 13479 5038 13519 5038 q 13453 5044 13468 5038 q 13424 5058 13439 5050 q 13394 5072 13408 5065 q 13369 5078 13379 5078 q 13353 5067 13358 5078 q 13346 5044 13349 5057 l 13285 5044 q 13320 5115 13294 5086 q 13383 5143 13346 5143 q 13411 5138 13396 5143 q 13440 5124 13426 5132 q 13467 5111 13453 5117 q 13490 5106 13481 5106 q 13524 5143 13517 5106 l 13582 5143 z "},"ễ":{"ha":543,"x_min":17,"x_max":7263,"o":"m 503 342 q 429 233 503 271 q 274 201 367 201 q 107 213 189 201 q 106 196 106 204 q 146 99 106 133 q 251 65 186 65 q 438 101 326 65 l 431 25 q 231 -12 322 -12 q 76 37 135 -12 q 17 171 17 86 q 111 397 17 304 q 332 490 206 490 q 503 342 503 490 m 428 343 q 319 418 428 418 q 203 376 263 418 q 122 275 144 335 q 256 265 161 265 q 428 343 428 265 m 1789 1479 l 1714 1479 l 1678 1578 l 1601 1479 l 1525 1479 l 1668 1639 l 1717 1639 l 1789 1479 m 13558 4929 q 13522 4852 13547 4881 q 13456 4824 13496 4824 q 13430 4830 13444 4824 q 13400 4844 13415 4836 q 13370 4858 13385 4851 q 13346 4864 13356 4864 q 13330 4853 13335 4864 q 13322 4831 13325 4843 l 13261 4831 q 13297 4901 13271 4872 q 13360 4929 13322 4929 q 13388 4924 13372 4929 q 13416 4910 13403 4918 q 13443 4897 13429 4903 q 13467 4892 13457 4892 q 13500 4929 13493 4892 l 13558 4929 z "},"Ệ":{"ha":497,"x_min":8,"x_max":4635,"o":"m 401 0 l 8 0 l 149 661 l 542 661 l 525 586 l 219 586 l 178 386 l 450 386 l 433 311 l 161 311 l 111 75 l 417 75 l 401 0 m 10597 -133 q 10568 -181 10592 -161 q 10518 -200 10544 -200 q 10477 -181 10492 -200 q 10468 -133 10463 -161 q 10497 -86 10474 -106 q 10546 -67 10519 -67 q 10588 -86 10572 -67 q 10597 -133 10603 -106 m 1807 1668 l 1732 1668 l 1696 1767 l 1619 1668 l 1543 1668 l 1686 1828 l 1735 1828 l 1807 1668 z "},"ệ":{"ha":543,"x_min":17,"x_max":4754,"o":"m 503 342 q 429 233 503 271 q 274 201 367 201 q 107 213 189 201 q 106 196 106 204 q 146 99 106 133 q 251 65 186 65 q 438 101 326 65 l 431 25 q 231 -12 322 -12 q 76 37 135 -12 q 17 171 17 86 q 111 397 17 304 q 332 490 206 490 q 503 342 503 490 m 428 343 q 319 418 428 418 q 203 376 263 418 q 122 275 144 335 q 256 265 161 265 q 428 343 428 265 m 10619 -133 q 10590 -181 10614 -161 q 10540 -200 10567 -200 q 10499 -181 10514 -200 q 10490 -133 10485 -161 q 10519 -86 10496 -106 q 10568 -67 10542 -67 q 10610 -86 10594 -67 q 10619 -133 10625 -106 m 1789 1479 l 1714 1479 l 1678 1578 l 1601 1479 l 1525 1479 l 1668 1639 l 1717 1639 l 1789 1479 z "},"Ỉ":{"ha":226,"x_min":8,"x_max":5972,"o":"m 96 0 l 8 0 l 149 661 l 236 661 l 96 0 m 12831 4200 q 12809 4158 12825 4176 q 12776 4122 12793 4139 q 12743 4090 12758 4106 q 12724 4056 12728 4074 l 12661 4056 q 12682 4096 12665 4078 q 12717 4130 12699 4114 q 12751 4161 12736 4146 q 12771 4193 12767 4176 q 12767 4224 12776 4217 q 12740 4232 12758 4232 q 12695 4217 12717 4232 q 12667 4193 12674 4201 l 12638 4224 q 12683 4266 12653 4246 q 12758 4286 12714 4286 q 12819 4265 12799 4286 q 12831 4200 12840 4244 z "},"ỉ":{"ha":226,"x_min":8,"x_max":6251,"o":"m 12793 4011 q 12772 3969 12788 3988 q 12738 3933 12756 3950 q 12706 3901 12721 3917 q 12686 3867 12690 3885 l 12624 3867 q 12644 3907 12628 3889 q 12680 3941 12661 3925 q 12714 3972 12699 3957 q 12733 4004 12729 3988 q 12730 4035 12739 4028 q 12703 4043 12721 4043 q 12658 4028 12679 4043 q 12629 4004 12636 4013 l 12600 4035 q 12646 4077 12615 4057 q 12721 4097 12676 4097 q 12782 4076 12761 4097 q 12793 4011 12803 4056 m 96 0 l 8 0 l 108 472 l 196 472 l 96 0 z "},"Ị":{"ha":226,"x_min":8,"x_max":4421,"o":"m 96 0 l 8 0 l 149 661 l 236 661 l 96 0 m 10463 -133 q 10433 -181 10457 -161 q 10383 -200 10410 -200 q 10342 -181 10357 -200 q 10333 -133 10328 -161 q 10362 -86 10339 -106 q 10411 -67 10385 -67 q 10453 -86 10438 -67 q 10463 -133 10468 -106 z "},"ị":{"ha":226,"x_min":8,"x_max":4674,"o":"m 96 0 l 8 0 l 108 472 l 196 472 l 96 0 m 246 611 q 217 564 240 583 q 165 544 193 544 q 122 564 138 544 q 113 611 107 583 q 142 658 118 639 q 193 678 165 678 q 236 658 221 678 q 246 611 251 639 m 10463 -133 q 10433 -181 10457 -161 q 10383 -200 10410 -200 q 10342 -181 10357 -200 q 10333 -133 10328 -161 q 10362 -86 10339 -106 q 10411 -67 10385 -67 q 10453 -86 10438 -67 q 10463 -133 10468 -106 z "},"Ọ":{"ha":719,"x_min":14,"x_max":5172,"o":"m 606 331 q 581 522 631 444 q 425 599 532 599 q 237 522 318 599 q 131 331 156 444 q 156 140 107 217 q 311 63 204 63 q 500 140 418 63 q 606 331 582 217 m 692 329 q 549 85 661 183 q 294 -14 438 -14 q 83 85 151 -14 q 44 329 14 183 q 187 574 75 475 q 442 674 299 674 q 653 574 585 674 q 692 329 722 475 m 10708 -133 q 10679 -181 10703 -161 q 10629 -200 10656 -200 q 10588 -181 10603 -200 q 10579 -133 10574 -161 q 10608 -86 10585 -106 q 10657 -67 10631 -67 q 10699 -86 10683 -67 q 10708 -133 10714 -106 z "},"ọ":{"ha":572,"x_min":3,"x_max":5597,"o":"m 525 239 q 417 61 503 133 q 222 -11 331 -11 q 58 61 114 -11 q 25 239 3 133 q 134 417 47 344 q 329 490 221 490 q 492 417 438 490 q 525 239 547 344 m 439 239 q 420 365 456 314 q 313 415 385 415 q 184 365 240 415 q 111 239 128 314 q 131 113 96 164 q 238 63 165 63 q 367 113 310 63 q 439 239 424 164 m 10635 -133 q 10606 -181 10629 -161 q 10556 -200 10582 -200 q 10515 -181 10529 -200 q 10506 -133 10500 -161 q 10534 -86 10511 -106 q 10583 -67 10557 -67 q 10625 -86 10610 -67 q 10635 -133 10640 -106 z "},"Ỏ":{"ha":719,"x_min":14,"x_max":6808,"o":"m 606 331 q 581 522 631 444 q 425 599 532 599 q 237 522 318 599 q 131 331 156 444 q 156 140 107 217 q 311 63 204 63 q 500 140 418 63 q 606 331 582 217 m 692 329 q 549 85 661 183 q 294 -14 438 -14 q 83 85 151 -14 q 44 329 14 183 q 187 574 75 475 q 442 674 299 674 q 653 574 585 674 q 692 329 722 475 m 13071 4200 q 13049 4158 13065 4176 q 13016 4122 13033 4139 q 12983 4090 12999 4106 q 12964 4056 12968 4074 l 12901 4056 q 12922 4096 12906 4078 q 12958 4130 12939 4114 q 12992 4161 12976 4146 q 13011 4193 13007 4176 q 13008 4224 13017 4217 q 12981 4232 12999 4232 q 12935 4217 12957 4232 q 12907 4193 12914 4201 l 12878 4224 q 12924 4266 12893 4246 q 12999 4286 12954 4286 q 13060 4265 13039 4286 q 13071 4200 13081 4244 z "},"ỏ":{"ha":572,"x_min":3,"x_max":7253,"o":"m 525 239 q 417 61 503 133 q 222 -11 331 -11 q 58 61 114 -11 q 25 239 3 133 q 134 417 47 344 q 329 490 221 490 q 492 417 438 490 q 525 239 547 344 m 439 239 q 420 365 456 314 q 313 415 385 415 q 184 365 240 415 q 111 239 128 314 q 131 113 96 164 q 238 63 165 63 q 367 113 310 63 q 439 239 424 164 m 12958 4011 q 12937 3969 12953 3988 q 12903 3933 12921 3950 q 12871 3901 12886 3917 q 12851 3867 12856 3885 l 12789 3867 q 12810 3907 12793 3889 q 12845 3941 12826 3925 q 12879 3972 12864 3957 q 12899 4004 12894 3988 q 12895 4035 12904 4028 q 12868 4043 12886 4043 q 12823 4028 12844 4043 q 12794 4004 12801 4013 l 12765 4035 q 12811 4077 12781 4057 q 12886 4097 12842 4097 q 12947 4076 12926 4097 q 12958 4011 12968 4056 z "},"Ố":{"ha":719,"x_min":14,"x_max":10700,"o":"m 606 331 q 581 522 631 444 q 425 599 532 599 q 237 522 318 599 q 131 331 156 444 q 156 140 107 217 q 311 63 204 63 q 500 140 418 63 q 606 331 582 217 m 692 329 q 549 85 661 183 q 294 -14 438 -14 q 83 85 151 -14 q 44 329 14 183 q 187 574 75 475 q 442 674 299 674 q 653 574 585 674 q 692 329 722 475 m 1918 1668 l 1843 1668 l 1807 1767 l 1731 1668 l 1654 1668 l 1797 1828 l 1846 1828 l 1918 1668 m 15310 4526 l 15383 4501 l 15238 4367 l 15171 4367 l 15310 4526 z "},"ố":{"ha":600,"x_min":17,"x_max":11424,"o":"m 539 239 q 431 61 517 133 q 236 -11 344 -11 q 72 61 128 -11 q 39 239 17 133 q 148 417 61 344 q 343 490 235 490 q 506 417 451 490 q 539 239 561 344 m 453 239 q 434 365 469 314 q 326 415 399 415 q 198 365 254 415 q 125 239 142 314 q 144 113 110 164 q 251 63 179 63 q 381 113 324 63 q 453 239 438 164 m 1818 1479 l 1743 1479 l 1707 1578 l 1631 1479 l 1554 1479 l 1697 1639 l 1746 1639 l 1818 1479 m 15186 4360 l 15260 4335 l 15114 4200 l 15047 4200 l 15186 4360 z "},"Ồ":{"ha":719,"x_min":14,"x_max":8714,"o":"m 606 331 q 581 522 631 444 q 425 599 532 599 q 237 522 318 599 q 131 331 156 444 q 156 140 107 217 q 311 63 204 63 q 500 140 418 63 q 606 331 582 217 m 692 329 q 549 85 661 183 q 294 -14 438 -14 q 83 85 151 -14 q 44 329 14 183 q 187 574 75 475 q 442 674 299 674 q 653 574 585 674 q 692 329 722 475 m 1918 1668 l 1843 1668 l 1807 1767 l 1731 1668 l 1654 1668 l 1797 1828 l 1846 1828 l 1918 1668 m 13035 4157 l 12968 4157 l 12881 4292 l 12965 4317 l 13035 4157 z "},"ồ":{"ha":600,"x_min":31,"x_max":9361,"o":"m 539 239 q 431 61 517 133 q 236 -11 344 -11 q 72 61 128 -11 q 39 239 17 133 q 148 417 61 344 q 343 490 235 490 q 506 417 451 490 q 539 239 561 344 m 453 239 q 434 365 469 314 q 326 415 399 415 q 198 365 254 415 q 125 239 142 314 q 144 113 110 164 q 251 63 179 63 q 381 113 324 63 q 453 239 438 164 m 1818 1479 l 1743 1479 l 1707 1578 l 1631 1479 l 1554 1479 l 1697 1639 l 1746 1639 l 1818 1479 m 12924 3990 l 12857 3990 l 12769 4125 l 12854 4150 l 12924 3990 z "},"Ổ":{"ha":719,"x_min":14,"x_max":8011,"o":"m 606 331 q 581 522 631 444 q 425 599 532 599 q 237 522 318 599 q 131 331 156 444 q 156 140 107 217 q 311 63 204 63 q 500 140 418 63 q 606 331 582 217 m 692 329 q 549 85 661 183 q 294 -14 438 -14 q 83 85 151 -14 q 44 329 14 183 q 187 574 75 475 q 442 674 299 674 q 653 574 585 674 q 692 329 722 475 m 1919 1668 l 1844 1668 l 1808 1767 l 1732 1668 l 1656 1668 l 1799 1828 l 1847 1828 l 1919 1668 m 13272 4322 q 13251 4280 13267 4299 q 13217 4244 13235 4261 q 13185 4212 13200 4228 q 13165 4178 13169 4196 l 13103 4178 q 13124 4218 13107 4200 q 13159 4252 13140 4236 q 13193 4283 13178 4268 q 13213 4315 13208 4299 q 13209 4347 13218 4339 q 13182 4354 13200 4354 q 13137 4339 13158 4354 q 13108 4315 13115 4324 l 13079 4346 q 13125 4388 13094 4368 q 13200 4408 13156 4408 q 13261 4388 13240 4408 q 13272 4322 13282 4367 z "},"ổ":{"ha":600,"x_min":44,"x_max":8669,"o":"m 539 239 q 431 61 517 133 q 236 -11 344 -11 q 72 61 128 -11 q 39 239 17 133 q 148 417 61 344 q 343 490 235 490 q 506 417 451 490 q 539 239 561 344 m 453 239 q 434 365 469 314 q 326 415 399 415 q 198 365 254 415 q 125 239 142 314 q 144 113 110 164 q 251 63 179 63 q 381 113 324 63 q 453 239 438 164 m 1818 1479 l 1743 1479 l 1707 1578 l 1631 1479 l 1554 1479 l 1697 1639 l 1746 1639 l 1818 1479 m 13172 4142 q 13151 4099 13167 4118 q 13117 4064 13135 4081 q 13085 4031 13100 4047 q 13065 3997 13069 4015 l 13003 3997 q 13024 4038 13007 4019 q 13059 4072 13040 4056 q 13093 4103 13078 4088 q 13113 4135 13108 4118 q 13109 4166 13118 4158 q 13082 4174 13100 4174 q 13037 4158 13058 4174 q 13008 4135 13015 4143 l 12979 4165 q 13025 4208 12994 4188 q 13100 4228 13056 4228 q 13161 4207 13140 4228 q 13172 4142 13182 4186 z "},"Ỗ":{"ha":719,"x_min":14,"x_max":7888,"o":"m 606 331 q 581 522 631 444 q 425 599 532 599 q 237 522 318 599 q 131 331 156 444 q 156 140 107 217 q 311 63 204 63 q 500 140 418 63 q 606 331 582 217 m 692 329 q 549 85 661 183 q 294 -14 438 -14 q 83 85 151 -14 q 44 329 14 183 q 187 574 75 475 q 442 674 299 674 q 653 574 585 674 q 692 329 722 475 m 1918 1668 l 1843 1668 l 1807 1767 l 1731 1668 l 1654 1668 l 1797 1828 l 1846 1828 l 1918 1668 m 13693 5144 q 13656 5067 13682 5096 q 13590 5039 13631 5039 q 13565 5045 13579 5039 q 13535 5059 13550 5051 q 13505 5073 13519 5067 q 13481 5079 13490 5079 q 13465 5069 13469 5079 q 13457 5046 13460 5058 l 13396 5046 q 13431 5116 13406 5088 q 13494 5144 13457 5144 q 13522 5139 13507 5144 q 13551 5126 13538 5133 q 13578 5113 13564 5118 q 13601 5107 13592 5107 q 13635 5144 13628 5107 l 13693 5144 z "},"ỗ":{"ha":600,"x_min":58,"x_max":8408,"o":"m 539 239 q 431 61 517 133 q 236 -11 344 -11 q 72 61 128 -11 q 39 239 17 133 q 148 417 61 344 q 343 490 235 490 q 506 417 451 490 q 539 239 561 344 m 453 239 q 434 365 469 314 q 326 415 399 415 q 198 365 254 415 q 125 239 142 314 q 144 113 110 164 q 251 63 179 63 q 381 113 324 63 q 453 239 438 164 m 1818 1479 l 1743 1479 l 1707 1578 l 1631 1479 l 1554 1479 l 1697 1639 l 1746 1639 l 1818 1479 m 13589 4939 q 13552 4862 13578 4890 q 13486 4833 13526 4833 q 13460 4840 13475 4833 q 13431 4853 13446 4846 q 13401 4867 13415 4861 q 13376 4874 13386 4874 q 13360 4863 13365 4874 q 13353 4840 13356 4853 l 13292 4840 q 13327 4910 13301 4882 q 13390 4939 13353 4939 q 13418 4933 13403 4939 q 13447 4920 13433 4928 q 13474 4907 13460 4913 q 13497 4901 13488 4901 q 13531 4939 13524 4901 l 13589 4939 z "},"Ộ":{"ha":719,"x_min":14,"x_max":6593,"o":"m 606 331 q 581 522 631 444 q 425 599 532 599 q 237 522 318 599 q 131 331 156 444 q 156 140 107 217 q 311 63 204 63 q 500 140 418 63 q 606 331 582 217 m 692 329 q 549 85 661 183 q 294 -14 438 -14 q 83 85 151 -14 q 44 329 14 183 q 187 574 75 475 q 442 674 299 674 q 653 574 585 674 q 692 329 722 475 m 10708 -133 q 10679 -181 10703 -161 q 10629 -200 10656 -200 q 10588 -181 10603 -200 q 10579 -133 10574 -161 q 10608 -86 10585 -106 q 10657 -67 10631 -67 q 10699 -86 10683 -67 q 10708 -133 10714 -106 m 1918 1668 l 1843 1668 l 1807 1767 l 1731 1668 l 1654 1668 l 1797 1828 l 1846 1828 l 1918 1668 z "},"ộ":{"ha":572,"x_min":58,"x_max":6728,"o":"m 525 239 q 417 61 503 133 q 222 -11 331 -11 q 58 61 114 -11 q 25 239 3 133 q 134 417 47 344 q 329 490 221 490 q 492 417 438 490 q 525 239 547 344 m 439 239 q 420 365 456 314 q 313 415 385 415 q 184 365 240 415 q 111 239 128 314 q 131 113 96 164 q 238 63 165 63 q 367 113 310 63 q 439 239 424 164 m 10635 -133 q 10606 -181 10629 -161 q 10556 -200 10582 -200 q 10515 -181 10529 -200 q 10506 -133 10500 -161 q 10534 -86 10511 -106 q 10583 -67 10557 -67 q 10625 -86 10610 -67 q 10635 -133 10640 -106 m 1804 1479 l 1729 1479 l 1693 1578 l 1617 1479 l 1540 1479 l 1683 1639 l 1732 1639 l 1804 1479 z "},"Ớ":{"ha":719,"x_min":14,"x_max":12018,"o":"m 692 329 q 549 85 661 183 q 294 -14 438 -14 q 83 85 151 -14 q 44 329 14 183 q 187 574 75 475 q 442 674 299 674 q 608 622 542 674 q 668 732 654 668 l 743 732 q 650 578 725 651 q 692 329 724 479 m 606 331 q 581 522 631 444 q 425 599 532 599 q 237 522 318 599 q 131 331 156 444 q 156 140 107 217 q 311 63 204 63 q 500 140 418 63 q 606 331 582 217 m 15057 4429 l 15131 4404 l 14985 4269 l 14918 4269 l 15057 4429 z "},"ớ":{"ha":600,"x_min":3,"x_max":12514,"o":"m 525 239 q 417 61 503 133 q 222 -11 331 -11 q 58 61 114 -11 q 25 239 3 133 q 134 417 47 344 q 329 490 221 490 q 482 428 426 490 q 531 526 519 474 l 606 526 q 515 375 589 450 q 525 239 542 314 m 439 239 q 420 365 456 314 q 313 415 385 415 q 184 365 240 415 q 111 239 128 314 q 131 113 96 164 q 238 63 165 63 q 367 113 310 63 q 439 239 424 164 m 14958 4240 l 15032 4215 l 14886 4081 l 14819 4081 l 14958 4240 z "},"Ờ":{"ha":719,"x_min":14,"x_max":9925,"o":"m 692 329 q 549 85 661 183 q 294 -14 438 -14 q 83 85 151 -14 q 44 329 14 183 q 187 574 75 475 q 442 674 299 674 q 608 622 542 674 q 668 732 654 668 l 743 732 q 650 578 725 651 q 692 329 724 479 m 606 331 q 581 522 631 444 q 425 599 532 599 q 237 522 318 599 q 131 331 156 444 q 156 140 107 217 q 311 63 204 63 q 500 140 418 63 q 606 331 582 217 m 12840 4060 l 12774 4060 l 12686 4194 l 12771 4219 l 12840 4060 z "},"ờ":{"ha":600,"x_min":3,"x_max":10390,"o":"m 525 239 q 417 61 503 133 q 222 -11 331 -11 q 58 61 114 -11 q 25 239 3 133 q 134 417 47 344 q 329 490 221 490 q 482 428 426 490 q 531 526 519 474 l 606 526 q 515 375 589 450 q 525 239 542 314 m 439 239 q 420 365 456 314 q 313 415 385 415 q 184 365 240 415 q 111 239 128 314 q 131 113 96 164 q 238 63 165 63 q 367 113 310 63 q 439 239 424 164 m 12742 3871 l 12675 3871 l 12588 4006 l 12672 4031 l 12742 3871 z "},"Ở":{"ha":719,"x_min":14,"x_max":9228,"o":"m 692 329 q 549 85 661 183 q 294 -14 438 -14 q 83 85 151 -14 q 44 329 14 183 q 187 574 75 475 q 442 674 299 674 q 608 622 542 674 q 668 732 654 668 l 743 732 q 650 578 725 651 q 692 329 724 479 m 606 331 q 581 522 631 444 q 425 599 532 599 q 237 522 318 599 q 131 331 156 444 q 156 140 107 217 q 311 63 204 63 q 500 140 418 63 q 606 331 582 217 m 13072 4206 q 13051 4163 13067 4182 q 13017 4128 13035 4144 q 12985 4095 13000 4111 q 12965 4061 12969 4079 l 12903 4061 q 12924 4101 12907 4083 q 12959 4135 12940 4119 q 12993 4167 12978 4151 q 13013 4199 13008 4182 q 13009 4230 13018 4222 q 12982 4238 13000 4238 q 12937 4222 12958 4238 q 12908 4199 12915 4207 l 12879 4229 q 12925 4272 12894 4251 q 13000 4292 12956 4292 q 13061 4271 13040 4292 q 13072 4206 13082 4250 z "},"ở":{"ha":600,"x_min":3,"x_max":9686,"o":"m 525 239 q 417 61 503 133 q 222 -11 331 -11 q 58 61 114 -11 q 25 239 3 133 q 134 417 47 344 q 329 490 221 490 q 482 428 426 490 q 531 526 519 474 l 606 526 q 515 375 589 450 q 525 239 542 314 m 439 239 q 420 365 456 314 q 313 415 385 415 q 184 365 240 415 q 111 239 128 314 q 131 113 96 164 q 238 63 165 63 q 367 113 310 63 q 439 239 424 164 m 12972 4017 q 12951 3974 12967 3993 q 12917 3939 12935 3956 q 12885 3906 12900 3922 q 12865 3872 12869 3890 l 12803 3872 q 12824 3913 12807 3894 q 12859 3947 12840 3931 q 12893 3978 12878 3963 q 12913 4010 12908 3993 q 12909 4041 12918 4033 q 12882 4049 12900 4049 q 12837 4033 12858 4049 q 12808 4010 12815 4018 l 12779 4040 q 12825 4083 12794 4063 q 12900 4103 12856 4103 q 12961 4082 12940 4103 q 12972 4017 12982 4061 z "},"Ỡ":{"ha":719,"x_min":14,"x_max":8988,"o":"m 692 329 q 549 85 661 183 q 294 -14 438 -14 q 83 85 151 -14 q 44 329 14 183 q 187 574 75 475 q 442 674 299 674 q 608 622 542 674 q 668 732 654 668 l 743 732 q 650 578 725 651 q 692 329 724 479 m 606 331 q 581 522 631 444 q 425 599 532 599 q 237 522 318 599 q 131 331 156 444 q 156 140 107 217 q 311 63 204 63 q 500 140 418 63 q 606 331 582 217 m 13647 4928 q 13610 4851 13636 4879 q 13544 4822 13585 4822 q 13519 4828 13533 4822 q 13489 4842 13504 4835 q 13459 4856 13474 4850 q 13435 4863 13444 4863 q 13419 4852 13424 4863 q 13411 4829 13414 4842 l 13350 4829 q 13385 4899 13360 4871 q 13449 4928 13411 4928 q 13476 4922 13461 4928 q 13505 4909 13492 4917 q 13532 4896 13518 4901 q 13556 4890 13546 4890 q 13589 4928 13582 4890 l 13647 4928 z "},"ỡ":{"ha":600,"x_min":3,"x_max":9468,"o":"m 525 239 q 417 61 503 133 q 222 -11 331 -11 q 58 61 114 -11 q 25 239 3 133 q 134 417 47 344 q 329 490 221 490 q 482 428 426 490 q 531 526 519 474 l 606 526 q 515 375 589 450 q 525 239 542 314 m 439 239 q 420 365 456 314 q 313 415 385 415 q 184 365 240 415 q 111 239 128 314 q 131 113 96 164 q 238 63 165 63 q 367 113 310 63 q 439 239 424 164 m 13549 4739 q 13512 4662 13538 4690 q 13446 4633 13486 4633 q 13420 4640 13435 4633 q 13390 4653 13406 4646 q 13360 4667 13375 4661 q 13336 4674 13346 4674 q 13320 4663 13325 4674 q 13313 4640 13315 4653 l 13251 4640 q 13287 4710 13261 4682 q 13350 4739 13313 4739 q 13378 4733 13363 4739 q 13406 4720 13393 4728 q 13433 4707 13419 4713 q 13457 4701 13447 4701 q 13490 4739 13483 4701 l 13549 4739 z "},"Ợ":{"ha":719,"x_min":14,"x_max":7019,"o":"m 692 329 q 549 85 661 183 q 294 -14 438 -14 q 83 85 151 -14 q 44 329 14 183 q 187 574 75 475 q 442 674 299 674 q 608 622 542 674 q 668 732 654 668 l 743 732 q 650 578 725 651 q 692 329 724 479 m 606 331 q 581 522 631 444 q 425 599 532 599 q 237 522 318 599 q 131 331 156 444 q 156 140 107 217 q 311 63 204 63 q 500 140 418 63 q 606 331 582 217 m 10708 -133 q 10679 -181 10703 -161 q 10629 -200 10656 -200 q 10588 -181 10603 -200 q 10579 -133 10574 -161 q 10608 -86 10585 -106 q 10657 -67 10631 -67 q 10699 -86 10683 -67 q 10708 -133 10714 -106 z "},"ợ":{"ha":600,"x_min":3,"x_max":7458,"o":"m 525 239 q 417 61 503 133 q 222 -11 331 -11 q 58 61 114 -11 q 25 239 3 133 q 134 417 47 344 q 329 490 221 490 q 482 428 426 490 q 531 526 519 474 l 606 526 q 515 375 589 450 q 525 239 542 314 m 439 239 q 420 365 456 314 q 313 415 385 415 q 184 365 240 415 q 111 239 128 314 q 131 113 96 164 q 238 63 165 63 q 367 113 310 63 q 439 239 424 164 m 10649 -133 q 10619 -181 10643 -161 q 10569 -200 10596 -200 q 10528 -181 10543 -200 q 10519 -133 10514 -161 q 10548 -86 10525 -106 q 10597 -67 10571 -67 q 10639 -86 10624 -67 q 10649 -133 10654 -106 z "},"Ụ":{"ha":669,"x_min":6,"x_max":7932,"o":"m 599 282 q 271 -12 536 -12 q 68 282 6 -12 l 149 661 l 238 661 l 157 282 q 286 63 110 63 q 510 282 463 63 l 590 661 l 679 661 l 599 282 m 10683 -133 q 10654 -181 10678 -161 q 10604 -200 10631 -200 q 10563 -181 10578 -200 q 10554 -133 10549 -161 q 10583 -86 10560 -106 q 10632 -67 10606 -67 q 10674 -86 10658 -67 q 10683 -133 10689 -106 z "},"ụ":{"ha":581,"x_min":43,"x_max":8361,"o":"m 492 6 l 404 -11 q 383 69 388 11 q 201 -12 282 -12 q 43 133 43 -12 q 53 214 43 169 l 86 368 q 90 408 90 388 q 82 469 90 439 l 165 486 q 178 411 178 449 q 172 358 178 385 l 143 222 q 135 160 135 183 q 228 65 135 65 q 335 105 279 65 q 403 193 392 144 l 463 472 l 550 472 l 476 126 q 474 97 474 114 q 492 6 474 56 m 10639 -133 q 10610 -181 10633 -161 q 10560 -200 10586 -200 q 10519 -181 10533 -200 q 10510 -133 10504 -161 q 10538 -86 10515 -106 q 10588 -67 10561 -67 q 10629 -86 10614 -67 q 10639 -133 10644 -106 z "},"Ủ":{"ha":669,"x_min":6,"x_max":10218,"o":"m 599 282 q 271 -12 536 -12 q 68 282 6 -12 l 149 661 l 238 661 l 157 282 q 286 63 110 63 q 510 282 463 63 l 590 661 l 679 661 l 599 282 m 13046 4200 q 13024 4158 13040 4176 q 12991 4122 13008 4139 q 12958 4090 12974 4106 q 12939 4056 12943 4074 l 12876 4056 q 12897 4096 12881 4078 q 12933 4130 12914 4114 q 12967 4161 12951 4146 q 12986 4193 12982 4176 q 12983 4224 12992 4217 q 12956 4232 12974 4232 q 12910 4217 12932 4232 q 12882 4193 12889 4201 l 12853 4224 q 12899 4266 12868 4246 q 12974 4286 12929 4286 q 13035 4265 13014 4286 q 13046 4200 13056 4244 z "},"ủ":{"ha":581,"x_min":43,"x_max":10667,"o":"m 492 6 l 404 -11 q 383 69 388 11 q 201 -12 282 -12 q 43 133 43 -12 q 53 214 43 169 l 86 368 q 90 408 90 388 q 82 469 90 439 l 165 486 q 178 411 178 449 q 172 358 178 385 l 143 222 q 135 160 135 183 q 228 65 135 65 q 335 105 279 65 q 403 193 392 144 l 463 472 l 550 472 l 476 126 q 474 97 474 114 q 492 6 474 56 m 12963 4011 q 12941 3969 12957 3988 q 12908 3933 12925 3950 q 12875 3901 12890 3917 q 12856 3867 12860 3885 l 12793 3867 q 12814 3907 12797 3889 q 12849 3941 12831 3925 q 12883 3972 12868 3957 q 12903 4004 12899 3988 q 12899 4035 12908 4028 q 12872 4043 12890 4043 q 12827 4028 12849 4043 q 12799 4004 12806 4013 l 12769 4035 q 12815 4077 12785 4057 q 12890 4097 12846 4097 q 12951 4076 12931 4097 q 12963 4011 12972 4056 z "},"Ứ":{"ha":669,"x_min":6,"x_max":13082,"o":"m 599 282 q 271 -12 536 -12 q 68 282 6 -12 l 149 661 l 238 661 l 157 282 q 286 63 110 63 q 510 282 463 63 l 590 661 l 679 661 l 667 606 q 728 659 701 622 q 763 732 754 696 l 838 732 q 765 606 819 667 q 650 525 711 546 l 599 282 m 15031 4429 l 15104 4404 l 14958 4269 l 14892 4269 l 15031 4429 z "},"ứ":{"ha":575,"x_min":43,"x_max":13565,"o":"m 492 6 l 404 -11 q 383 69 388 11 q 201 -12 282 -12 q 43 133 43 -12 q 53 214 43 169 l 86 368 q 90 408 90 388 q 82 469 90 439 l 165 486 q 178 411 178 449 q 172 358 178 385 l 143 222 q 135 160 135 183 q 228 65 135 65 q 335 105 279 65 q 403 193 392 144 l 463 472 l 550 472 l 532 389 q 588 440 560 406 q 625 515 618 479 l 700 515 q 636 399 689 461 q 515 310 578 332 l 476 126 q 474 97 474 114 q 492 6 474 56 m 14946 4240 l 15019 4215 l 14874 4081 l 14807 4081 l 14946 4240 z "},"Ừ":{"ha":669,"x_min":6,"x_max":10929,"o":"m 599 282 q 271 -12 536 -12 q 68 282 6 -12 l 149 661 l 238 661 l 157 282 q 286 63 110 63 q 510 282 463 63 l 590 661 l 679 661 l 667 606 q 728 659 701 622 q 763 732 754 696 l 838 732 q 765 606 819 667 q 650 525 711 546 l 599 282 m 12815 4060 l 12749 4060 l 12661 4194 l 12746 4219 l 12815 4060 z "},"ừ":{"ha":575,"x_min":43,"x_max":11382,"o":"m 492 6 l 404 -11 q 383 69 388 11 q 201 -12 282 -12 q 43 133 43 -12 q 53 214 43 169 l 86 368 q 90 408 90 388 q 82 469 90 439 l 165 486 q 178 411 178 449 q 172 358 178 385 l 143 222 q 135 160 135 183 q 228 65 135 65 q 335 105 279 65 q 403 193 392 144 l 463 472 l 550 472 l 532 389 q 588 440 560 406 q 625 515 618 479 l 700 515 q 636 399 689 461 q 515 310 578 332 l 476 126 q 474 97 474 114 q 492 6 474 56 m 12729 3871 l 12663 3871 l 12575 4006 l 12660 4031 l 12729 3871 z "},"Ử":{"ha":669,"x_min":6,"x_max":11199,"o":"m 599 282 q 271 -12 536 -12 q 68 282 6 -12 l 149 661 l 238 661 l 157 282 q 286 63 110 63 q 510 282 463 63 l 590 661 l 679 661 l 667 606 q 728 659 701 622 q 763 732 754 696 l 838 732 q 765 606 819 667 q 650 525 711 546 l 599 282 m 13046 4200 q 13024 4158 13040 4176 q 12991 4122 13008 4139 q 12958 4090 12974 4106 q 12939 4056 12943 4074 l 12876 4056 q 12897 4096 12881 4078 q 12933 4130 12914 4114 q 12967 4161 12951 4146 q 12986 4193 12982 4176 q 12983 4224 12992 4217 q 12956 4232 12974 4232 q 12910 4217 12932 4232 q 12882 4193 12889 4201 l 12853 4224 q 12899 4266 12868 4246 q 12974 4286 12929 4286 q 13035 4265 13014 4286 q 13046 4200 13056 4244 z "},"ử":{"ha":575,"x_min":43,"x_max":11644,"o":"m 492 6 l 404 -11 q 383 69 388 11 q 201 -12 282 -12 q 43 133 43 -12 q 53 214 43 169 l 86 368 q 90 408 90 388 q 82 469 90 439 l 165 486 q 178 411 178 449 q 172 358 178 385 l 143 222 q 135 160 135 183 q 228 65 135 65 q 335 105 279 65 q 403 193 392 144 l 463 472 l 550 472 l 532 389 q 588 440 560 406 q 625 515 618 479 l 700 515 q 636 399 689 461 q 515 310 578 332 l 476 126 q 474 97 474 114 q 492 6 474 56 m 12960 4011 q 12938 3969 12954 3988 q 12905 3933 12922 3950 q 12872 3901 12888 3917 q 12853 3867 12857 3885 l 12790 3867 q 12811 3907 12794 3889 q 12847 3941 12828 3925 q 12881 3972 12865 3957 q 12900 4004 12896 3988 q 12897 4035 12906 4028 q 12869 4043 12888 4043 q 12824 4028 12846 4043 q 12796 4004 12803 4013 l 12767 4035 q 12813 4077 12782 4057 q 12888 4097 12843 4097 q 12949 4076 12928 4097 q 12960 4011 12969 4056 z "},"Ữ":{"ha":669,"x_min":6,"x_max":10022,"o":"m 599 282 q 271 -12 536 -12 q 68 282 6 -12 l 149 661 l 238 661 l 157 282 q 286 63 110 63 q 510 282 463 63 l 590 661 l 679 661 l 667 606 q 728 659 701 622 q 763 732 754 696 l 838 732 q 765 606 819 667 q 650 525 711 546 l 599 282 m 13622 4928 q 13585 4851 13611 4879 q 13519 4822 13560 4822 q 13494 4828 13508 4822 q 13464 4842 13479 4835 q 13434 4856 13449 4850 q 13410 4863 13419 4863 q 13394 4852 13399 4863 q 13386 4829 13389 4842 l 13325 4829 q 13360 4899 13335 4871 q 13424 4928 13386 4928 q 13451 4922 13436 4928 q 13480 4909 13467 4917 q 13507 4896 13493 4901 q 13531 4890 13521 4890 q 13564 4928 13557 4890 l 13622 4928 z "},"ữ":{"ha":575,"x_min":43,"x_max":10490,"o":"m 492 6 l 404 -11 q 383 69 388 11 q 201 -12 282 -12 q 43 133 43 -12 q 53 214 43 169 l 86 368 q 90 408 90 388 q 82 469 90 439 l 165 486 q 178 411 178 449 q 172 358 178 385 l 143 222 q 135 160 135 183 q 228 65 135 65 q 335 105 279 65 q 403 193 392 144 l 463 472 l 550 472 l 532 389 q 588 440 560 406 q 625 515 618 479 l 700 515 q 636 399 689 461 q 515 310 578 332 l 476 126 q 474 97 474 114 q 492 6 474 56 m 13536 4739 q 13499 4662 13525 4690 q 13433 4633 13474 4633 q 13408 4640 13422 4633 q 13378 4653 13393 4646 q 13348 4667 13363 4661 q 13324 4674 13333 4674 q 13308 4663 13313 4674 q 13300 4640 13303 4653 l 13239 4640 q 13274 4710 13249 4682 q 13338 4739 13300 4739 q 13365 4733 13350 4739 q 13394 4720 13381 4728 q 13421 4707 13407 4713 q 13444 4701 13435 4701 q 13478 4739 13471 4701 l 13536 4739 z "},"Ự":{"ha":669,"x_min":6,"x_max":8835,"o":"m 599 282 q 271 -12 536 -12 q 68 282 6 -12 l 149 661 l 238 661 l 157 282 q 286 63 110 63 q 510 282 463 63 l 590 661 l 679 661 l 667 606 q 728 659 701 622 q 763 732 754 696 l 838 732 q 765 606 819 667 q 650 525 711 546 l 599 282 m 10683 -133 q 10654 -181 10678 -161 q 10604 -200 10631 -200 q 10563 -181 10578 -200 q 10554 -133 10549 -161 q 10583 -86 10560 -106 q 10632 -67 10606 -67 q 10674 -86 10658 -67 q 10683 -133 10689 -106 z "},"ự":{"ha":575,"x_min":43,"x_max":9261,"o":"m 492 6 l 404 -11 q 383 69 388 11 q 201 -12 282 -12 q 43 133 43 -12 q 53 214 43 169 l 86 368 q 90 408 90 388 q 82 469 90 439 l 165 486 q 178 411 178 449 q 172 358 178 385 l 143 222 q 135 160 135 183 q 228 65 135 65 q 335 105 279 65 q 403 193 392 144 l 463 472 l 550 472 l 532 389 q 588 440 560 406 q 625 515 618 479 l 700 515 q 636 399 689 461 q 515 310 578 332 l 476 126 q 474 97 474 114 q 492 6 474 56 m 10636 -133 q 10607 -181 10631 -161 q 10557 -200 10583 -200 q 10516 -181 10531 -200 q 10507 -133 10501 -161 q 10535 -86 10513 -106 q 10585 -67 10558 -67 q 10626 -86 10611 -67 q 10636 -133 10642 -106 z "},"Ỳ":{"ha":550,"x_min":71,"x_max":11861,"o":"m 258 0 l 172 0 l 233 289 l 71 661 l 172 661 l 292 364 l 538 661 l 638 661 l 319 290 l 258 0 m 12756 4060 l 12689 4060 l 12601 4194 l 12686 4219 l 12756 4060 z "},"ỳ":{"ha":501,"x_min":-68,"x_max":12276,"o":"m 229 10 q -61 -210 103 -175 l -68 -137 q 150 35 61 -110 l 33 472 l 129 472 l 218 122 l 449 472 l 544 472 l 229 10 m 12692 3871 l 12625 3871 l 12538 4006 l 12622 4031 l 12692 3871 z "},"Ỵ":{"ha":550,"x_min":71,"x_max":9675,"o":"m 258 0 l 172 0 l 233 289 l 71 661 l 172 661 l 292 364 l 538 661 l 638 661 l 319 290 l 258 0 m 10624 -133 q 10594 -181 10618 -161 q 10544 -200 10571 -200 q 10503 -181 10518 -200 q 10494 -133 10489 -161 q 10523 -86 10500 -106 q 10572 -67 10546 -67 q 10614 -86 10599 -67 q 10624 -133 10629 -106 z "},"ỵ":{"ha":501,"x_min":-68,"x_max":10215,"o":"m 229 10 q -61 -210 103 -175 l -68 -137 q 150 35 61 -110 l 33 472 l 129 472 l 218 122 l 449 472 l 544 472 l 229 10 m 10750 -133 q 10721 -181 10744 -161 q 10671 -200 10697 -200 q 10630 -181 10644 -200 q 10621 -133 10615 -161 q 10649 -86 10626 -106 q 10699 -67 10672 -67 q 10740 -86 10725 -67 q 10750 -133 10756 -106 z "}}}
